<svg width="254" height="191" viewBox="0 0 254 191" fill="none" xmlns="http://www.w3.org/2000/svg">
<g filter="url(#filter0_i_212_708)">
<path d="M254 22.5C254 33.2696 245.27 42 234.5 42C232.221 42 230.033 41.609 228 40.8904C226.935 40.5139 219.816 44 218.5 44.5C219.5 43 222.913 38.2306 222 37.4672C217.722 33.8902 215 28.5129 215 22.5C215 11.7304 223.73 3 234.5 3C245.27 3 254 11.7304 254 22.5Z" fill="#8061FF"/>
</g>
<g filter="url(#filter1_i_212_708)">
<path d="M254 22.5C254 33.2696 245.27 42 234.5 42C232.221 42 230.033 41.609 228 40.8904C226.935 40.5139 219.816 44 218.5 44.5C219.5 43 222.913 38.2306 222 37.4672C217.722 33.8902 215 28.5129 215 22.5C215 11.7304 223.73 3 234.5 3C245.27 3 254 11.7304 254 22.5Z" fill="#8061FF"/>
</g>
<g filter="url(#filter2_d_212_708)">
<path d="M232.162 12.747C232.074 11.2567 233.259 10 234.752 10V10C236.243 10 237.428 11.2546 237.342 12.7437L236.706 23.8019C236.646 24.8337 235.792 25.64 234.759 25.64V25.64C233.726 25.64 232.873 24.8351 232.812 23.8043L232.162 12.747Z" fill="white"/>
</g>
<g filter="url(#filter3_d_212_708)">
<rect x="232" y="27.48" width="5.52" height="5.52" rx="2.76" fill="white"/>
</g>
<g filter="url(#filter4_i_212_708)">
<circle cx="12" cy="13" r="12" fill="#8061FF"/>
</g>
<g filter="url(#filter5_i_212_708)">
<circle cx="239" cy="154" r="12" fill="#8061FF"/>
</g>
<g filter="url(#filter6_i_212_708)">
<circle cx="19" cy="146" r="7" fill="#FBBC05"/>
</g>
<rect x="57" y="4" width="78" height="173" fill="white"/>
<circle cx="70" cy="164" r="11" fill="#C4C4C4" fill-opacity="0.22"/>
<g filter="url(#filter7_i_212_708)">
<path fill-rule="evenodd" clip-rule="evenodd" d="M53 28C53 14.8007 53 8.20101 57.1005 4.1005C61.201 0 67.8007 0 81 0H112C125.199 0 131.799 0 135.899 4.1005C140 8.20101 140 14.8007 140 28V152C140 165.199 140 171.799 135.899 175.899C131.799 180 125.199 180 112 180H81C67.8007 180 61.201 180 57.1005 175.899C53 171.799 53 165.199 53 152V28ZM59 33C59 19.8007 59 13.201 63.1005 9.1005C67.201 5 73.8007 5 87 5H88.126C88.0438 5.31962 88 5.6547 88 6C88 8.20914 89.7909 10 92 10H105C107.209 10 109 8.20914 109 6C109 5.65533 108.956 5.32085 108.874 5.00176C120.18 5.0233 126.108 5.30913 129.899 9.1005C134 13.201 134 19.8007 134 33V147C134 160.199 134 166.799 129.899 170.899C125.799 175 119.199 175 106 175H87C73.8007 175 67.201 175 63.1005 170.899C59 166.799 59 160.199 59 147V33Z" fill="#8061FF"/>
</g>
<path d="M96 27.5C96 27.2239 96.2239 27 96.5 27H101.5C101.776 27 102 27.2239 102 27.5V31.5C102 31.7761 101.776 32 101.5 32H96.5C96.2239 32 96 31.7761 96 31.5V27.5Z" fill="#3F3D56"/>
<path d="M100.769 27C100.897 27 101.001 26.8963 100.987 26.7696C100.935 26.324 100.735 25.9061 100.414 25.5858C100.039 25.2107 99.5304 25 99 25C98.4696 25 97.9609 25.2107 97.5858 25.5858C97.2654 25.9061 97.065 26.324 97.0133 26.7696C96.9986 26.8963 97.1034 27 97.2309 27V27C97.3585 27 97.4601 26.896 97.4792 26.7699C97.528 26.4471 97.6787 26.146 97.9124 25.9124C98.2008 25.6239 98.5921 25.4619 99 25.4619C99.4079 25.4619 99.7992 25.6239 100.088 25.9124C100.321 26.146 100.472 26.4471 100.521 26.7699C100.54 26.896 100.642 27 100.769 27V27Z" fill="#3F3D56"/>
<circle cx="78.5" cy="28.5" r="11.5" fill="#C4C4C4" fill-opacity="0.22"/>
<path d="M134 36C128.696 36 123.609 38.1071 119.858 41.8579C116.107 45.6086 114 50.6957 114 56C114 61.3043 116.107 66.3914 119.858 70.1421C123.609 73.8929 128.696 76 134 76L134 56L134 36Z" fill="#C4C4C4" fill-opacity="0.22"/>
<g opacity="0.5">
<g filter="url(#filter8_i_212_708)">
<rect x="66" y="134" width="63" height="28.1157" rx="4.68595" fill="white"/>
</g>
<rect x="66.2603" y="134.26" width="62.4793" height="27.595" rx="4.42562" stroke="#FBBC05" stroke-width="0.520661"/>
<g filter="url(#filter9_i_212_708)">
<rect x="71.2065" y="140.14" width="14.8537" height="17.8244" rx="1.42595" fill="#FBBC05"/>
</g>
<g filter="url(#filter10_i_212_708)">
<path fill-rule="evenodd" clip-rule="evenodd" d="M78.9901 138.001C78.6948 138.001 78.4554 138.241 78.4554 138.536C78.4554 138.831 78.6948 139.071 78.9901 139.071C79.2854 139.071 79.5248 138.831 79.5248 138.536C79.5248 138.241 79.2854 138.001 78.9901 138.001ZM78.0989 138.536C78.0989 138.044 78.4979 137.645 78.9901 137.645C79.4823 137.645 79.8813 138.044 79.8813 138.536C79.8813 139.028 79.4823 139.427 78.9901 139.427C78.4979 139.427 78.0989 139.028 78.0989 138.536Z" fill="#8061FF"/>
</g>
<g filter="url(#filter11_i_212_708)">
<rect x="75.9597" y="139.071" width="5.94148" height="2.61425" rx="0.712977" fill="#8061FF"/>
</g>
<g filter="url(#filter12_d_212_708)">
<rect x="73.2268" y="143.586" width="5.82265" height="0.831807" rx="0.415904" fill="white"/>
</g>
<g filter="url(#filter13_d_212_708)">
<rect x="73.2268" y="145.725" width="4.51552" height="0.831807" rx="0.415904" fill="white"/>
</g>
<g filter="url(#filter14_d_212_708)">
<rect x="73.2268" y="147.864" width="3.32723" height="0.831807" rx="0.415904" fill="white"/>
</g>
<g filter="url(#filter15_d_212_708)">
<rect x="73.2268" y="150.003" width="10.6947" height="0.831807" rx="0.415904" fill="white"/>
</g>
<g filter="url(#filter16_d_212_708)">
<rect x="73.2268" y="152.142" width="10.6947" height="0.831807" rx="0.415904" fill="white"/>
</g>
<g filter="url(#filter17_d_212_708)">
<rect x="73.2268" y="154.281" width="10.6947" height="0.831807" rx="0.415904" fill="white"/>
</g>
<g filter="url(#filter18_i_212_708)">
<path d="M79.8482 145.073C80.4174 144.082 80.702 143.586 81.1289 143.586C81.5558 143.586 81.8405 144.082 82.4097 145.073L83.2102 146.466C83.7794 147.457 84.064 147.953 83.8505 148.324C83.6371 148.696 83.0679 148.696 81.9294 148.696H80.3284C79.19 148.696 78.6208 148.696 78.4073 148.324C78.1938 147.953 78.4785 147.457 79.0477 146.466L79.8482 145.073Z" fill="#8061FF"/>
</g>
<g filter="url(#filter19_d_212_708)">
<rect x="80.8318" y="144.893" width="0.475318" height="2.0201" rx="0.237659" fill="white"/>
</g>
<g filter="url(#filter20_d_212_708)">
<rect x="80.7129" y="147.151" width="0.712977" height="0.712977" rx="0.356489" fill="white"/>
</g>
<g filter="url(#filter21_i_212_708)">
<rect x="90.9917" y="137.645" width="12.4959" height="12.4959" rx="2.08264" fill="#8061FF"/>
</g>
<g filter="url(#filter22_i_212_708)">
<rect x="90.9917" y="152.744" width="33.3223" height="1.56198" rx="0.780992" fill="#FBBC05"/>
</g>
<g filter="url(#filter23_i_212_708)">
<rect x="106.612" y="144.934" width="17.7025" height="1.56198" rx="0.780992" fill="#FBBC05"/>
</g>
<g filter="url(#filter24_i_212_708)">
<rect x="90.9917" y="156.388" width="33.3223" height="1.56198" rx="0.780992" fill="#FBBC05"/>
</g>
<g filter="url(#filter25_i_212_708)">
<rect x="106.612" y="148.579" width="17.7025" height="1.56198" rx="0.780992" fill="#FBBC05"/>
</g>
</g>
<g filter="url(#filter26_i_212_708)">
<path d="M171.402 177.355H162.166L168.235 92.9137H200.693C203.015 95.2358 196.383 148.416 192.776 174.716H183.013L184.332 108.219C182.221 113.074 174.832 156.333 171.402 177.355Z" fill="#8061FF"/>
</g>
<g filter="url(#filter27_i_212_708)">
<path d="M186.443 96.3442C196.788 96.5553 200.781 94.8489 201.485 93.9693L200.693 61.7759C203.492 61.4296 209.099 60.7864 209.137 60.9843C206.182 45.3626 196.295 40.9294 191.721 40.6656C191.457 41.809 189.979 44.096 186.18 44.096C182.38 44.096 180.022 41.809 179.319 40.6656C178.703 40.8415 175.888 41.8794 169.555 44.6238C163.222 47.3681 159.88 59.6649 159 65.4703L170.347 67.8452L167.708 96.3442C169.643 96.2562 176.099 96.1331 186.443 96.3442Z" fill="#FBBC05"/>
</g>
<mask id="mask0_212_708" style="mask-type:alpha" maskUnits="userSpaceOnUse" x="159" y="40" width="51" height="57">
<path d="M186.443 96.3442C196.788 96.5553 200.781 94.8489 201.485 93.9693L200.693 61.7759C203.492 61.4296 209.099 60.7864 209.137 60.9843C206.182 45.3626 196.295 40.9294 191.721 40.6656C191.457 41.809 189.979 44.096 186.18 44.096C182.38 44.096 180.022 41.809 179.319 40.6656C178.703 40.8415 175.888 41.8794 169.555 44.6238C163.222 47.3681 159.88 59.6649 159 65.4703L170.347 67.8452L167.708 96.3442C169.643 96.2562 176.099 96.1331 186.443 96.3442Z" fill="url(#paint0_linear_212_708)"/>
</mask>
<g mask="url(#mask0_212_708)">
<path fill-rule="evenodd" clip-rule="evenodd" d="M160.152 70.2183C160.281 70.0726 160.49 70.0726 160.619 70.2183L161.938 71.7112C162.067 71.857 162.067 72.0933 161.938 72.2391C161.809 72.3848 161.6 72.3848 161.472 72.2391L160.152 70.7461C160.023 70.6004 160.023 70.3641 160.152 70.2183Z" fill="black" fill-opacity="0.08"/>
<path fill-rule="evenodd" clip-rule="evenodd" d="M160.152 75.0703C160.281 74.9245 160.49 74.9245 160.619 75.0703L161.938 76.5632C162.067 76.7089 162.067 76.9452 161.938 77.091C161.809 77.2368 161.6 77.2368 161.472 77.091L160.152 75.5981C160.023 75.4523 160.023 75.216 160.152 75.0703Z" fill="black" fill-opacity="0.08"/>
<path fill-rule="evenodd" clip-rule="evenodd" d="M160.152 79.9222C160.281 79.7765 160.49 79.7765 160.619 79.9222L161.938 81.4151C162.067 81.5609 162.067 81.7972 161.938 81.9429C161.809 82.0887 161.6 82.0887 161.472 81.9429L160.152 80.45C160.023 80.3043 160.023 80.068 160.152 79.9222Z" fill="black" fill-opacity="0.08"/>
<path fill-rule="evenodd" clip-rule="evenodd" d="M160.152 84.7742C160.281 84.6284 160.49 84.6284 160.619 84.7742L161.938 86.2671C162.067 86.4128 162.067 86.6491 161.938 86.7949C161.809 86.9407 161.6 86.9407 161.472 86.7949L160.152 85.302C160.023 85.1562 160.023 84.9199 160.152 84.7742Z" fill="black" fill-opacity="0.08"/>
<path fill-rule="evenodd" clip-rule="evenodd" d="M160.152 89.6261C160.281 89.4804 160.49 89.4804 160.619 89.6261L161.938 91.119C162.067 91.2648 162.067 91.5011 161.938 91.6468C161.809 91.7926 161.6 91.7926 161.472 91.6468L160.152 90.1539C160.023 90.0082 160.023 89.7719 160.152 89.6261Z" fill="black" fill-opacity="0.08"/>
<path fill-rule="evenodd" clip-rule="evenodd" d="M160.152 94.4781C160.281 94.3323 160.49 94.3323 160.619 94.4781L161.938 95.971C162.067 96.1167 162.067 96.353 161.938 96.4988C161.809 96.6445 161.6 96.6445 161.472 96.4988L160.152 95.0059C160.023 94.8601 160.023 94.6238 160.152 94.4781Z" fill="black" fill-opacity="0.08"/>
<path fill-rule="evenodd" clip-rule="evenodd" d="M169.388 70.2183C169.517 70.0726 169.726 70.0726 169.855 70.2183L171.174 71.7112C171.303 71.857 171.303 72.0933 171.174 72.2391C171.045 72.3848 170.836 72.3848 170.707 72.2391L169.388 70.7461C169.259 70.6004 169.259 70.3641 169.388 70.2183Z" fill="black" fill-opacity="0.08"/>
<path fill-rule="evenodd" clip-rule="evenodd" d="M169.388 75.0703C169.517 74.9245 169.726 74.9245 169.855 75.0703L171.174 76.5632C171.303 76.7089 171.303 76.9452 171.174 77.091C171.045 77.2368 170.836 77.2368 170.707 77.091L169.388 75.5981C169.259 75.4523 169.259 75.216 169.388 75.0703Z" fill="black" fill-opacity="0.08"/>
<path fill-rule="evenodd" clip-rule="evenodd" d="M169.388 79.9222C169.517 79.7765 169.726 79.7765 169.855 79.9222L171.174 81.4151C171.303 81.5609 171.303 81.7972 171.174 81.9429C171.045 82.0887 170.836 82.0887 170.707 81.9429L169.388 80.45C169.259 80.3043 169.259 80.068 169.388 79.9222Z" fill="black" fill-opacity="0.08"/>
<path fill-rule="evenodd" clip-rule="evenodd" d="M169.388 84.7742C169.517 84.6284 169.726 84.6284 169.855 84.7742L171.174 86.2671C171.303 86.4128 171.303 86.6491 171.174 86.7949C171.045 86.9407 170.836 86.9407 170.707 86.7949L169.388 85.302C169.259 85.1562 169.259 84.9199 169.388 84.7742Z" fill="black" fill-opacity="0.08"/>
<path fill-rule="evenodd" clip-rule="evenodd" d="M169.388 89.6261C169.517 89.4804 169.726 89.4804 169.855 89.6261L171.174 91.119C171.303 91.2648 171.303 91.5011 171.174 91.6468C171.045 91.7926 170.836 91.7926 170.707 91.6468L169.388 90.1539C169.259 90.0082 169.259 89.7719 169.388 89.6261Z" fill="black" fill-opacity="0.08"/>
<path fill-rule="evenodd" clip-rule="evenodd" d="M169.388 94.4781C169.517 94.3323 169.726 94.3323 169.855 94.4781L171.174 95.971C171.303 96.1167 171.303 96.353 171.174 96.4988C171.045 96.6445 170.836 96.6445 170.707 96.4988L169.388 95.0059C169.259 94.8601 169.259 94.6238 169.388 94.4781Z" fill="black" fill-opacity="0.08"/>
<path fill-rule="evenodd" clip-rule="evenodd" d="M178.624 70.2183C178.753 70.0726 178.962 70.0726 179.09 70.2183L180.41 71.7112C180.539 71.857 180.539 72.0933 180.41 72.2391C180.281 72.3848 180.072 72.3848 179.943 72.2391L178.624 70.7461C178.495 70.6004 178.495 70.3641 178.624 70.2183Z" fill="black" fill-opacity="0.08"/>
<path fill-rule="evenodd" clip-rule="evenodd" d="M178.624 75.0703C178.753 74.9245 178.962 74.9245 179.09 75.0703L180.41 76.5632C180.539 76.7089 180.539 76.9452 180.41 77.091C180.281 77.2368 180.072 77.2368 179.943 77.091L178.624 75.5981C178.495 75.4523 178.495 75.216 178.624 75.0703Z" fill="black" fill-opacity="0.08"/>
<path fill-rule="evenodd" clip-rule="evenodd" d="M178.624 79.9222C178.753 79.7765 178.962 79.7765 179.09 79.9222L180.41 81.4151C180.539 81.5609 180.539 81.7972 180.41 81.9429C180.281 82.0887 180.072 82.0887 179.943 81.9429L178.624 80.45C178.495 80.3043 178.495 80.068 178.624 79.9222Z" fill="black" fill-opacity="0.08"/>
<path fill-rule="evenodd" clip-rule="evenodd" d="M178.624 84.7742C178.753 84.6284 178.962 84.6284 179.09 84.7742L180.41 86.2671C180.539 86.4128 180.539 86.6491 180.41 86.7949C180.281 86.9407 180.072 86.9407 179.943 86.7949L178.624 85.302C178.495 85.1562 178.495 84.9199 178.624 84.7742Z" fill="black" fill-opacity="0.08"/>
<path fill-rule="evenodd" clip-rule="evenodd" d="M178.624 89.6261C178.753 89.4804 178.962 89.4804 179.09 89.6261L180.41 91.119C180.539 91.2648 180.539 91.5011 180.41 91.6468C180.281 91.7926 180.072 91.7926 179.943 91.6468L178.624 90.1539C178.495 90.0082 178.495 89.7719 178.624 89.6261Z" fill="black" fill-opacity="0.08"/>
<path fill-rule="evenodd" clip-rule="evenodd" d="M178.624 94.4781C178.753 94.3323 178.962 94.3323 179.09 94.4781L180.41 95.971C180.539 96.1167 180.539 96.353 180.41 96.4988C180.281 96.6445 180.072 96.6445 179.943 96.4988L178.624 95.0059C178.495 94.8601 178.495 94.6238 178.624 94.4781Z" fill="black" fill-opacity="0.08"/>
<path fill-rule="evenodd" clip-rule="evenodd" d="M166.556 70.2183C166.427 70.0726 166.218 70.0726 166.09 70.2183L164.77 71.7112C164.641 71.857 164.641 72.0933 164.77 72.2391C164.899 72.3848 165.108 72.3848 165.237 72.2391L166.556 70.7461C166.685 70.6004 166.685 70.3641 166.556 70.2183Z" fill="black" fill-opacity="0.08"/>
<path fill-rule="evenodd" clip-rule="evenodd" d="M166.556 75.0703C166.427 74.9245 166.218 74.9245 166.09 75.0703L164.77 76.5632C164.641 76.7089 164.641 76.9452 164.77 77.091C164.899 77.2368 165.108 77.2368 165.237 77.091L166.556 75.5981C166.685 75.4523 166.685 75.216 166.556 75.0703Z" fill="black" fill-opacity="0.08"/>
<path fill-rule="evenodd" clip-rule="evenodd" d="M166.556 79.9222C166.427 79.7765 166.218 79.7765 166.09 79.9222L164.77 81.4151C164.641 81.5609 164.641 81.7972 164.77 81.9429C164.899 82.0887 165.108 82.0887 165.237 81.9429L166.556 80.45C166.685 80.3043 166.685 80.068 166.556 79.9222Z" fill="black" fill-opacity="0.08"/>
<path fill-rule="evenodd" clip-rule="evenodd" d="M166.556 84.7742C166.427 84.6284 166.218 84.6284 166.09 84.7742L164.77 86.2671C164.641 86.4128 164.641 86.6491 164.77 86.7949C164.899 86.9407 165.108 86.9407 165.237 86.7949L166.556 85.302C166.685 85.1562 166.685 84.9199 166.556 84.7742Z" fill="black" fill-opacity="0.08"/>
<path fill-rule="evenodd" clip-rule="evenodd" d="M166.556 89.6261C166.427 89.4804 166.218 89.4804 166.09 89.6261L164.77 91.119C164.641 91.2648 164.641 91.5011 164.77 91.6468C164.899 91.7926 165.108 91.7926 165.237 91.6468L166.556 90.1539C166.685 90.0082 166.685 89.7719 166.556 89.6261Z" fill="black" fill-opacity="0.08"/>
<path fill-rule="evenodd" clip-rule="evenodd" d="M166.556 94.4781C166.427 94.3323 166.218 94.3323 166.09 94.4781L164.77 95.971C164.641 96.1167 164.641 96.353 164.77 96.4988C164.899 96.6445 165.108 96.6445 165.237 96.4988L166.556 95.0059C166.685 94.8601 166.685 94.6238 166.556 94.4781Z" fill="black" fill-opacity="0.08"/>
<path fill-rule="evenodd" clip-rule="evenodd" d="M175.792 70.2183C175.663 70.0726 175.454 70.0726 175.325 70.2183L174.006 71.7112C173.877 71.857 173.877 72.0933 174.006 72.2391C174.135 72.3848 174.344 72.3848 174.472 72.2391L175.792 70.7461C175.921 70.6004 175.921 70.3641 175.792 70.2183Z" fill="black" fill-opacity="0.08"/>
<path fill-rule="evenodd" clip-rule="evenodd" d="M175.792 75.0703C175.663 74.9245 175.454 74.9245 175.325 75.0703L174.006 76.5632C173.877 76.7089 173.877 76.9452 174.006 77.091C174.135 77.2368 174.344 77.2368 174.472 77.091L175.792 75.5981C175.921 75.4523 175.921 75.216 175.792 75.0703Z" fill="black" fill-opacity="0.08"/>
<path fill-rule="evenodd" clip-rule="evenodd" d="M175.792 79.9222C175.663 79.7765 175.454 79.7765 175.325 79.9222L174.006 81.4151C173.877 81.5609 173.877 81.7972 174.006 81.9429C174.135 82.0887 174.344 82.0887 174.472 81.9429L175.792 80.45C175.921 80.3043 175.921 80.068 175.792 79.9222Z" fill="black" fill-opacity="0.08"/>
<path fill-rule="evenodd" clip-rule="evenodd" d="M175.792 84.7742C175.663 84.6284 175.454 84.6284 175.325 84.7742L174.006 86.2671C173.877 86.4128 173.877 86.6491 174.006 86.7949C174.135 86.9407 174.344 86.9407 174.472 86.7949L175.792 85.302C175.921 85.1562 175.921 84.9199 175.792 84.7742Z" fill="black" fill-opacity="0.08"/>
<path fill-rule="evenodd" clip-rule="evenodd" d="M175.792 89.6261C175.663 89.4804 175.454 89.4804 175.325 89.6261L174.006 91.119C173.877 91.2648 173.877 91.5011 174.006 91.6468C174.135 91.7926 174.344 91.7926 174.472 91.6468L175.792 90.1539C175.921 90.0082 175.921 89.7719 175.792 89.6261Z" fill="black" fill-opacity="0.08"/>
<path fill-rule="evenodd" clip-rule="evenodd" d="M175.792 94.4781C175.663 94.3323 175.454 94.3323 175.325 94.4781L174.006 95.971C173.877 96.1167 173.877 96.353 174.006 96.4988C174.135 96.6445 174.344 96.6445 174.472 96.4988L175.792 95.0059C175.921 94.8601 175.921 94.6238 175.792 94.4781Z" fill="black" fill-opacity="0.08"/>
<path fill-rule="evenodd" clip-rule="evenodd" d="M185.028 70.2183C184.899 70.0726 184.69 70.0726 184.561 70.2183L183.242 71.7112C183.113 71.857 183.113 72.0933 183.242 72.2391C183.371 72.3848 183.579 72.3848 183.708 72.2391L185.028 70.7461C185.156 70.6004 185.156 70.3641 185.028 70.2183Z" fill="black" fill-opacity="0.08"/>
<path fill-rule="evenodd" clip-rule="evenodd" d="M185.028 75.0703C184.899 74.9245 184.69 74.9245 184.561 75.0703L183.242 76.5632C183.113 76.7089 183.113 76.9452 183.242 77.091C183.371 77.2368 183.579 77.2368 183.708 77.091L185.028 75.5981C185.156 75.4523 185.156 75.216 185.028 75.0703Z" fill="black" fill-opacity="0.08"/>
<path fill-rule="evenodd" clip-rule="evenodd" d="M185.028 79.9222C184.899 79.7765 184.69 79.7765 184.561 79.9222L183.242 81.4151C183.113 81.5609 183.113 81.7972 183.242 81.9429C183.371 82.0887 183.579 82.0887 183.708 81.9429L185.028 80.45C185.156 80.3043 185.156 80.068 185.028 79.9222Z" fill="black" fill-opacity="0.08"/>
<path fill-rule="evenodd" clip-rule="evenodd" d="M185.028 84.7742C184.899 84.6284 184.69 84.6284 184.561 84.7742L183.242 86.2671C183.113 86.4128 183.113 86.6491 183.242 86.7949C183.371 86.9407 183.579 86.9407 183.708 86.7949L185.028 85.302C185.156 85.1562 185.156 84.9199 185.028 84.7742Z" fill="black" fill-opacity="0.08"/>
<path fill-rule="evenodd" clip-rule="evenodd" d="M185.028 89.6261C184.899 89.4804 184.69 89.4804 184.561 89.6261L183.242 91.119C183.113 91.2648 183.113 91.5011 183.242 91.6468C183.371 91.7926 183.579 91.7926 183.708 91.6468L185.028 90.1539C185.156 90.0082 185.156 89.7719 185.028 89.6261Z" fill="black" fill-opacity="0.08"/>
<path fill-rule="evenodd" clip-rule="evenodd" d="M185.028 94.4781C184.899 94.3323 184.69 94.3323 184.561 94.4781L183.242 95.971C183.113 96.1167 183.113 96.353 183.242 96.4988C183.371 96.6445 183.579 96.6445 183.708 96.4988L185.028 95.0059C185.156 94.8601 185.156 94.6238 185.028 94.4781Z" fill="black" fill-opacity="0.08"/>
<path fill-rule="evenodd" clip-rule="evenodd" d="M187.86 70.2183C187.988 70.0726 188.197 70.0726 188.326 70.2183L189.645 71.7112C189.774 71.857 189.774 72.0933 189.645 72.2391C189.517 72.3848 189.308 72.3848 189.179 72.2391L187.86 70.7461C187.731 70.6004 187.731 70.3641 187.86 70.2183Z" fill="black" fill-opacity="0.08"/>
<path fill-rule="evenodd" clip-rule="evenodd" d="M187.86 75.0703C187.988 74.9245 188.197 74.9245 188.326 75.0703L189.645 76.5632C189.774 76.7089 189.774 76.9452 189.645 77.091C189.517 77.2368 189.308 77.2368 189.179 77.091L187.86 75.5981C187.731 75.4523 187.731 75.216 187.86 75.0703Z" fill="black" fill-opacity="0.08"/>
<path fill-rule="evenodd" clip-rule="evenodd" d="M187.86 79.9222C187.988 79.7765 188.197 79.7765 188.326 79.9222L189.645 81.4151C189.774 81.5609 189.774 81.7972 189.645 81.9429C189.517 82.0887 189.308 82.0887 189.179 81.9429L187.86 80.45C187.731 80.3043 187.731 80.068 187.86 79.9222Z" fill="black" fill-opacity="0.08"/>
<path fill-rule="evenodd" clip-rule="evenodd" d="M187.86 84.7742C187.988 84.6284 188.197 84.6284 188.326 84.7742L189.645 86.2671C189.774 86.4128 189.774 86.6491 189.645 86.7949C189.517 86.9407 189.308 86.9407 189.179 86.7949L187.86 85.302C187.731 85.1562 187.731 84.9199 187.86 84.7742Z" fill="black" fill-opacity="0.08"/>
<path fill-rule="evenodd" clip-rule="evenodd" d="M187.86 89.6261C187.988 89.4804 188.197 89.4804 188.326 89.6261L189.645 91.119C189.774 91.2648 189.774 91.5011 189.645 91.6468C189.517 91.7926 189.308 91.7926 189.179 91.6468L187.86 90.1539C187.731 90.0082 187.731 89.7719 187.86 89.6261Z" fill="black" fill-opacity="0.08"/>
<path fill-rule="evenodd" clip-rule="evenodd" d="M187.86 94.4781C187.988 94.3323 188.197 94.3323 188.326 94.4781L189.645 95.971C189.774 96.1167 189.774 96.353 189.645 96.4988C189.517 96.6445 189.308 96.6445 189.179 96.4988L187.86 95.0059C187.731 94.8601 187.731 94.6238 187.86 94.4781Z" fill="black" fill-opacity="0.08"/>
<path fill-rule="evenodd" clip-rule="evenodd" d="M197.095 70.2183C197.224 70.0726 197.433 70.0726 197.562 70.2183L198.881 71.7112C199.01 71.857 199.01 72.0933 198.881 72.2391C198.752 72.3848 198.544 72.3848 198.415 72.2391L197.095 70.7461C196.967 70.6004 196.967 70.3641 197.095 70.2183Z" fill="black" fill-opacity="0.08"/>
<path fill-rule="evenodd" clip-rule="evenodd" d="M197.095 75.0703C197.224 74.9245 197.433 74.9245 197.562 75.0703L198.881 76.5632C199.01 76.7089 199.01 76.9452 198.881 77.091C198.752 77.2368 198.544 77.2368 198.415 77.091L197.095 75.5981C196.967 75.4523 196.967 75.216 197.095 75.0703Z" fill="black" fill-opacity="0.08"/>
<path fill-rule="evenodd" clip-rule="evenodd" d="M197.095 79.9222C197.224 79.7765 197.433 79.7765 197.562 79.9222L198.881 81.4151C199.01 81.5609 199.01 81.7972 198.881 81.9429C198.752 82.0887 198.544 82.0887 198.415 81.9429L197.095 80.45C196.967 80.3043 196.967 80.068 197.095 79.9222Z" fill="black" fill-opacity="0.08"/>
<path fill-rule="evenodd" clip-rule="evenodd" d="M197.095 84.7742C197.224 84.6284 197.433 84.6284 197.562 84.7742L198.881 86.2671C199.01 86.4128 199.01 86.6491 198.881 86.7949C198.752 86.9407 198.544 86.9407 198.415 86.7949L197.095 85.302C196.967 85.1562 196.967 84.9199 197.095 84.7742Z" fill="black" fill-opacity="0.08"/>
<path fill-rule="evenodd" clip-rule="evenodd" d="M197.095 89.6261C197.224 89.4804 197.433 89.4804 197.562 89.6261L198.881 91.119C199.01 91.2648 199.01 91.5011 198.881 91.6468C198.752 91.7926 198.544 91.7926 198.415 91.6468L197.095 90.1539C196.967 90.0082 196.967 89.7719 197.095 89.6261Z" fill="black" fill-opacity="0.08"/>
<path fill-rule="evenodd" clip-rule="evenodd" d="M197.095 94.4781C197.224 94.3323 197.433 94.3323 197.562 94.4781L198.881 95.971C199.01 96.1167 199.01 96.353 198.881 96.4988C198.752 96.6445 198.544 96.6445 198.415 96.4988L197.095 95.0059C196.967 94.8601 196.967 94.6238 197.095 94.4781Z" fill="black" fill-opacity="0.08"/>
<path fill-rule="evenodd" clip-rule="evenodd" d="M206.331 70.2183C206.46 70.0726 206.669 70.0726 206.798 70.2183L208.117 71.7112C208.246 71.857 208.246 72.0933 208.117 72.2391C207.988 72.3848 207.779 72.3848 207.651 72.2391L206.331 70.7461C206.202 70.6004 206.202 70.3641 206.331 70.2183Z" fill="black" fill-opacity="0.08"/>
<path fill-rule="evenodd" clip-rule="evenodd" d="M206.331 75.0703C206.46 74.9245 206.669 74.9245 206.798 75.0703L208.117 76.5632C208.246 76.7089 208.246 76.9452 208.117 77.091C207.988 77.2368 207.779 77.2368 207.651 77.091L206.331 75.5981C206.202 75.4523 206.202 75.216 206.331 75.0703Z" fill="black" fill-opacity="0.08"/>
<path fill-rule="evenodd" clip-rule="evenodd" d="M206.331 79.9222C206.46 79.7765 206.669 79.7765 206.798 79.9222L208.117 81.4151C208.246 81.5609 208.246 81.7972 208.117 81.9429C207.988 82.0887 207.779 82.0887 207.651 81.9429L206.331 80.45C206.202 80.3043 206.202 80.068 206.331 79.9222Z" fill="black" fill-opacity="0.08"/>
<path fill-rule="evenodd" clip-rule="evenodd" d="M206.331 84.7742C206.46 84.6284 206.669 84.6284 206.798 84.7742L208.117 86.2671C208.246 86.4128 208.246 86.6491 208.117 86.7949C207.988 86.9407 207.779 86.9407 207.651 86.7949L206.331 85.302C206.202 85.1562 206.202 84.9199 206.331 84.7742Z" fill="black" fill-opacity="0.08"/>
<path fill-rule="evenodd" clip-rule="evenodd" d="M206.331 89.6261C206.46 89.4804 206.669 89.4804 206.798 89.6261L208.117 91.119C208.246 91.2648 208.246 91.5011 208.117 91.6468C207.988 91.7926 207.779 91.7926 207.651 91.6468L206.331 90.1539C206.202 90.0082 206.202 89.7719 206.331 89.6261Z" fill="black" fill-opacity="0.08"/>
<path fill-rule="evenodd" clip-rule="evenodd" d="M206.331 94.4781C206.46 94.3323 206.669 94.3323 206.798 94.4781L208.117 95.971C208.246 96.1167 208.246 96.353 208.117 96.4988C207.988 96.6445 207.779 96.6445 207.651 96.4988L206.331 95.0059C206.202 94.8601 206.202 94.6238 206.331 94.4781Z" fill="black" fill-opacity="0.08"/>
<path fill-rule="evenodd" clip-rule="evenodd" d="M194.263 70.2183C194.135 70.0726 193.926 70.0726 193.797 70.2183L192.477 71.7112C192.349 71.857 192.349 72.0933 192.477 72.2391C192.606 72.3848 192.815 72.3848 192.944 72.2391L194.263 70.7461C194.392 70.6004 194.392 70.3641 194.263 70.2183Z" fill="black" fill-opacity="0.08"/>
<path fill-rule="evenodd" clip-rule="evenodd" d="M194.263 75.0703C194.135 74.9245 193.926 74.9245 193.797 75.0703L192.477 76.5632C192.349 76.7089 192.349 76.9452 192.477 77.091C192.606 77.2368 192.815 77.2368 192.944 77.091L194.263 75.5981C194.392 75.4523 194.392 75.216 194.263 75.0703Z" fill="black" fill-opacity="0.08"/>
<path fill-rule="evenodd" clip-rule="evenodd" d="M194.263 79.9222C194.135 79.7765 193.926 79.7765 193.797 79.9222L192.477 81.4151C192.349 81.5609 192.349 81.7972 192.477 81.9429C192.606 82.0887 192.815 82.0887 192.944 81.9429L194.263 80.45C194.392 80.3043 194.392 80.068 194.263 79.9222Z" fill="black" fill-opacity="0.08"/>
<path fill-rule="evenodd" clip-rule="evenodd" d="M194.263 84.7742C194.135 84.6284 193.926 84.6284 193.797 84.7742L192.477 86.2671C192.349 86.4128 192.349 86.6491 192.477 86.7949C192.606 86.9407 192.815 86.9407 192.944 86.7949L194.263 85.302C194.392 85.1562 194.392 84.9199 194.263 84.7742Z" fill="black" fill-opacity="0.08"/>
<path fill-rule="evenodd" clip-rule="evenodd" d="M194.263 89.6261C194.135 89.4804 193.926 89.4804 193.797 89.6261L192.477 91.119C192.349 91.2648 192.349 91.5011 192.477 91.6468C192.606 91.7926 192.815 91.7926 192.944 91.6468L194.263 90.1539C194.392 90.0082 194.392 89.7719 194.263 89.6261Z" fill="black" fill-opacity="0.08"/>
<path fill-rule="evenodd" clip-rule="evenodd" d="M194.263 94.4781C194.135 94.3323 193.926 94.3323 193.797 94.4781L192.477 95.971C192.349 96.1167 192.349 96.353 192.477 96.4988C192.606 96.6445 192.815 96.6445 192.944 96.4988L194.263 95.0059C194.392 94.8601 194.392 94.6238 194.263 94.4781Z" fill="black" fill-opacity="0.08"/>
<path fill-rule="evenodd" clip-rule="evenodd" d="M203.499 70.2183C203.37 70.0726 203.161 70.0726 203.033 70.2183L201.713 71.7112C201.584 71.857 201.584 72.0933 201.713 72.2391C201.842 72.3848 202.051 72.3848 202.18 72.2391L203.499 70.7461C203.628 70.6004 203.628 70.3641 203.499 70.2183Z" fill="black" fill-opacity="0.08"/>
<path fill-rule="evenodd" clip-rule="evenodd" d="M203.499 75.0703C203.37 74.9245 203.161 74.9245 203.033 75.0703L201.713 76.5632C201.584 76.7089 201.584 76.9452 201.713 77.091C201.842 77.2368 202.051 77.2368 202.18 77.091L203.499 75.5981C203.628 75.4523 203.628 75.216 203.499 75.0703Z" fill="black" fill-opacity="0.08"/>
<path fill-rule="evenodd" clip-rule="evenodd" d="M203.499 79.9222C203.37 79.7765 203.161 79.7765 203.033 79.9222L201.713 81.4151C201.584 81.5609 201.584 81.7972 201.713 81.9429C201.842 82.0887 202.051 82.0887 202.18 81.9429L203.499 80.45C203.628 80.3043 203.628 80.068 203.499 79.9222Z" fill="black" fill-opacity="0.08"/>
<path fill-rule="evenodd" clip-rule="evenodd" d="M203.499 84.7742C203.37 84.6284 203.161 84.6284 203.033 84.7742L201.713 86.2671C201.584 86.4128 201.584 86.6491 201.713 86.7949C201.842 86.9407 202.051 86.9407 202.18 86.7949L203.499 85.302C203.628 85.1562 203.628 84.9199 203.499 84.7742Z" fill="black" fill-opacity="0.08"/>
<path fill-rule="evenodd" clip-rule="evenodd" d="M203.499 89.6261C203.37 89.4804 203.161 89.4804 203.033 89.6261L201.713 91.119C201.584 91.2648 201.584 91.5011 201.713 91.6468C201.842 91.7926 202.051 91.7926 202.18 91.6468L203.499 90.1539C203.628 90.0082 203.628 89.7719 203.499 89.6261Z" fill="black" fill-opacity="0.08"/>
<path fill-rule="evenodd" clip-rule="evenodd" d="M203.499 94.4781C203.37 94.3323 203.161 94.3323 203.033 94.4781L201.713 95.971C201.584 96.1167 201.584 96.353 201.713 96.4988C201.842 96.6445 202.051 96.6445 202.18 96.4988L203.499 95.0059C203.628 94.8601 203.628 94.6238 203.499 94.4781Z" fill="black" fill-opacity="0.08"/>
<path fill-rule="evenodd" clip-rule="evenodd" d="M212.735 70.2183C212.606 70.0726 212.397 70.0726 212.268 70.2183L210.949 71.7112C210.82 71.857 210.82 72.0933 210.949 72.2391C211.078 72.3848 211.287 72.3848 211.416 72.2391L212.735 70.7461C212.864 70.6004 212.864 70.3641 212.735 70.2183Z" fill="black" fill-opacity="0.08"/>
<path fill-rule="evenodd" clip-rule="evenodd" d="M212.735 75.0703C212.606 74.9245 212.397 74.9245 212.268 75.0703L210.949 76.5632C210.82 76.7089 210.82 76.9452 210.949 77.091C211.078 77.2368 211.287 77.2368 211.416 77.091L212.735 75.5981C212.864 75.4523 212.864 75.216 212.735 75.0703Z" fill="black" fill-opacity="0.08"/>
<path fill-rule="evenodd" clip-rule="evenodd" d="M212.735 79.9222C212.606 79.7765 212.397 79.7765 212.268 79.9222L210.949 81.4151C210.82 81.5609 210.82 81.7972 210.949 81.9429C211.078 82.0887 211.287 82.0887 211.416 81.9429L212.735 80.45C212.864 80.3043 212.864 80.068 212.735 79.9222Z" fill="black" fill-opacity="0.08"/>
<path fill-rule="evenodd" clip-rule="evenodd" d="M212.735 84.7742C212.606 84.6284 212.397 84.6284 212.268 84.7742L210.949 86.2671C210.82 86.4128 210.82 86.6491 210.949 86.7949C211.078 86.9407 211.287 86.9407 211.416 86.7949L212.735 85.302C212.864 85.1562 212.864 84.9199 212.735 84.7742Z" fill="black" fill-opacity="0.08"/>
<path fill-rule="evenodd" clip-rule="evenodd" d="M212.735 89.6261C212.606 89.4804 212.397 89.4804 212.268 89.6261L210.949 91.119C210.82 91.2648 210.82 91.5011 210.949 91.6468C211.078 91.7926 211.287 91.7926 211.416 91.6468L212.735 90.1539C212.864 90.0082 212.864 89.7719 212.735 89.6261Z" fill="black" fill-opacity="0.08"/>
<path fill-rule="evenodd" clip-rule="evenodd" d="M212.735 94.4781C212.606 94.3323 212.397 94.3323 212.268 94.4781L210.949 95.971C210.82 96.1167 210.82 96.353 210.949 96.4988C211.078 96.6445 211.287 96.6445 211.416 96.4988L212.735 95.0059C212.864 94.8601 212.864 94.6238 212.735 94.4781Z" fill="black" fill-opacity="0.08"/>
<path fill-rule="evenodd" clip-rule="evenodd" d="M160.152 40.7749C160.281 40.6291 160.49 40.6291 160.619 40.7749L161.938 42.2678C162.067 42.4136 162.067 42.6499 161.938 42.7956C161.809 42.9414 161.6 42.9414 161.472 42.7956L160.152 41.3027C160.023 41.157 160.023 40.9207 160.152 40.7749Z" fill="black" fill-opacity="0.08"/>
<path fill-rule="evenodd" clip-rule="evenodd" d="M160.152 45.6269C160.281 45.4811 160.49 45.4811 160.619 45.6269L161.938 47.1198C162.067 47.2655 162.067 47.5018 161.938 47.6476C161.809 47.7933 161.6 47.7933 161.472 47.6476L160.152 46.1547C160.023 46.0089 160.023 45.7726 160.152 45.6269Z" fill="black" fill-opacity="0.08"/>
<path fill-rule="evenodd" clip-rule="evenodd" d="M160.152 50.4788C160.281 50.333 160.49 50.333 160.619 50.4788L161.938 51.9717C162.067 52.1175 162.067 52.3538 161.938 52.4995C161.809 52.6453 161.6 52.6453 161.472 52.4995L160.152 51.0066C160.023 50.8609 160.023 50.6246 160.152 50.4788Z" fill="black" fill-opacity="0.08"/>
<path fill-rule="evenodd" clip-rule="evenodd" d="M160.152 55.3307C160.281 55.185 160.49 55.185 160.619 55.3307L161.938 56.8237C162.067 56.9694 162.067 57.2057 161.938 57.3515C161.809 57.4972 161.6 57.4972 161.472 57.3515L160.152 55.8586C160.023 55.7128 160.023 55.4765 160.152 55.3307Z" fill="black" fill-opacity="0.08"/>
<path fill-rule="evenodd" clip-rule="evenodd" d="M160.152 60.1827C160.281 60.0369 160.49 60.0369 160.619 60.1827L161.938 61.6756C162.067 61.8214 162.067 62.0577 161.938 62.2034C161.809 62.3492 161.6 62.3492 161.472 62.2034L160.152 60.7105C160.023 60.5648 160.023 60.3284 160.152 60.1827Z" fill="black" fill-opacity="0.08"/>
<path fill-rule="evenodd" clip-rule="evenodd" d="M160.152 65.0346C160.281 64.8889 160.49 64.8889 160.619 65.0346L161.938 66.5276C162.067 66.6733 162.067 66.9096 161.938 67.0554C161.809 67.2011 161.6 67.2011 161.472 67.0554L160.152 65.5625C160.023 65.4167 160.023 65.1804 160.152 65.0346Z" fill="black" fill-opacity="0.08"/>
<path fill-rule="evenodd" clip-rule="evenodd" d="M169.388 40.7749C169.517 40.6291 169.726 40.6291 169.855 40.7749L171.174 42.2678C171.303 42.4136 171.303 42.6499 171.174 42.7956C171.045 42.9414 170.836 42.9414 170.707 42.7956L169.388 41.3027C169.259 41.157 169.259 40.9207 169.388 40.7749Z" fill="black" fill-opacity="0.08"/>
<path fill-rule="evenodd" clip-rule="evenodd" d="M169.388 45.6269C169.517 45.4811 169.726 45.4811 169.855 45.6269L171.174 47.1198C171.303 47.2655 171.303 47.5018 171.174 47.6476C171.045 47.7933 170.836 47.7933 170.707 47.6476L169.388 46.1547C169.259 46.0089 169.259 45.7726 169.388 45.6269Z" fill="black" fill-opacity="0.08"/>
<path fill-rule="evenodd" clip-rule="evenodd" d="M169.388 50.4788C169.517 50.333 169.726 50.333 169.855 50.4788L171.174 51.9717C171.303 52.1175 171.303 52.3538 171.174 52.4995C171.045 52.6453 170.836 52.6453 170.707 52.4995L169.388 51.0066C169.259 50.8609 169.259 50.6246 169.388 50.4788Z" fill="black" fill-opacity="0.08"/>
<path fill-rule="evenodd" clip-rule="evenodd" d="M169.388 55.3307C169.517 55.185 169.726 55.185 169.855 55.3307L171.174 56.8237C171.303 56.9694 171.303 57.2057 171.174 57.3515C171.045 57.4972 170.836 57.4972 170.707 57.3515L169.388 55.8586C169.259 55.7128 169.259 55.4765 169.388 55.3307Z" fill="black" fill-opacity="0.08"/>
<path fill-rule="evenodd" clip-rule="evenodd" d="M169.388 60.1827C169.517 60.0369 169.726 60.0369 169.855 60.1827L171.174 61.6756C171.303 61.8214 171.303 62.0577 171.174 62.2034C171.045 62.3492 170.836 62.3492 170.707 62.2034L169.388 60.7105C169.259 60.5648 169.259 60.3284 169.388 60.1827Z" fill="black" fill-opacity="0.08"/>
<path fill-rule="evenodd" clip-rule="evenodd" d="M169.388 65.0346C169.517 64.8889 169.726 64.8889 169.855 65.0346L171.174 66.5276C171.303 66.6733 171.303 66.9096 171.174 67.0554C171.045 67.2011 170.836 67.2011 170.707 67.0554L169.388 65.5625C169.259 65.4167 169.259 65.1804 169.388 65.0346Z" fill="black" fill-opacity="0.08"/>
<path fill-rule="evenodd" clip-rule="evenodd" d="M178.624 40.7749C178.753 40.6291 178.962 40.6291 179.09 40.7749L180.41 42.2678C180.539 42.4136 180.539 42.6499 180.41 42.7956C180.281 42.9414 180.072 42.9414 179.943 42.7956L178.624 41.3027C178.495 41.157 178.495 40.9207 178.624 40.7749Z" fill="black" fill-opacity="0.08"/>
<path fill-rule="evenodd" clip-rule="evenodd" d="M178.624 45.6269C178.753 45.4811 178.962 45.4811 179.09 45.6269L180.41 47.1198C180.539 47.2655 180.539 47.5018 180.41 47.6476C180.281 47.7933 180.072 47.7933 179.943 47.6476L178.624 46.1547C178.495 46.0089 178.495 45.7726 178.624 45.6269Z" fill="black" fill-opacity="0.08"/>
<path fill-rule="evenodd" clip-rule="evenodd" d="M178.624 50.4788C178.753 50.333 178.962 50.333 179.09 50.4788L180.41 51.9717C180.539 52.1175 180.539 52.3538 180.41 52.4995C180.281 52.6453 180.072 52.6453 179.943 52.4995L178.624 51.0066C178.495 50.8609 178.495 50.6246 178.624 50.4788Z" fill="black" fill-opacity="0.08"/>
<path fill-rule="evenodd" clip-rule="evenodd" d="M178.624 55.3307C178.753 55.185 178.962 55.185 179.09 55.3307L180.41 56.8237C180.539 56.9694 180.539 57.2057 180.41 57.3515C180.281 57.4972 180.072 57.4972 179.943 57.3515L178.624 55.8586C178.495 55.7128 178.495 55.4765 178.624 55.3307Z" fill="black" fill-opacity="0.08"/>
<path fill-rule="evenodd" clip-rule="evenodd" d="M178.624 60.1827C178.753 60.0369 178.962 60.0369 179.09 60.1827L180.41 61.6756C180.539 61.8214 180.539 62.0577 180.41 62.2034C180.281 62.3492 180.072 62.3492 179.943 62.2034L178.624 60.7105C178.495 60.5648 178.495 60.3284 178.624 60.1827Z" fill="black" fill-opacity="0.08"/>
<path fill-rule="evenodd" clip-rule="evenodd" d="M178.624 65.0346C178.753 64.8889 178.962 64.8889 179.09 65.0346L180.41 66.5276C180.539 66.6733 180.539 66.9096 180.41 67.0554C180.281 67.2011 180.072 67.2011 179.943 67.0554L178.624 65.5625C178.495 65.4167 178.495 65.1804 178.624 65.0346Z" fill="black" fill-opacity="0.08"/>
<path fill-rule="evenodd" clip-rule="evenodd" d="M166.556 40.7749C166.427 40.6291 166.218 40.6291 166.09 40.7749L164.77 42.2678C164.641 42.4136 164.641 42.6499 164.77 42.7956C164.899 42.9414 165.108 42.9414 165.237 42.7956L166.556 41.3027C166.685 41.157 166.685 40.9207 166.556 40.7749Z" fill="black" fill-opacity="0.08"/>
<path fill-rule="evenodd" clip-rule="evenodd" d="M166.556 45.6269C166.427 45.4811 166.218 45.4811 166.09 45.6269L164.77 47.1198C164.641 47.2655 164.641 47.5018 164.77 47.6476C164.899 47.7933 165.108 47.7933 165.237 47.6476L166.556 46.1547C166.685 46.0089 166.685 45.7726 166.556 45.6269Z" fill="black" fill-opacity="0.08"/>
<path fill-rule="evenodd" clip-rule="evenodd" d="M166.556 50.4788C166.427 50.333 166.218 50.333 166.09 50.4788L164.77 51.9717C164.641 52.1175 164.641 52.3538 164.77 52.4995C164.899 52.6453 165.108 52.6453 165.237 52.4995L166.556 51.0066C166.685 50.8609 166.685 50.6246 166.556 50.4788Z" fill="black" fill-opacity="0.08"/>
<path fill-rule="evenodd" clip-rule="evenodd" d="M166.556 55.3307C166.427 55.185 166.218 55.185 166.09 55.3307L164.77 56.8237C164.641 56.9694 164.641 57.2057 164.77 57.3515C164.899 57.4972 165.108 57.4972 165.237 57.3515L166.556 55.8586C166.685 55.7128 166.685 55.4765 166.556 55.3307Z" fill="black" fill-opacity="0.08"/>
<path fill-rule="evenodd" clip-rule="evenodd" d="M166.556 60.1827C166.427 60.0369 166.218 60.0369 166.09 60.1827L164.77 61.6756C164.641 61.8214 164.641 62.0577 164.77 62.2034C164.899 62.3492 165.108 62.3492 165.237 62.2034L166.556 60.7105C166.685 60.5648 166.685 60.3284 166.556 60.1827Z" fill="black" fill-opacity="0.08"/>
<path fill-rule="evenodd" clip-rule="evenodd" d="M166.556 65.0346C166.427 64.8889 166.218 64.8889 166.09 65.0346L164.77 66.5276C164.641 66.6733 164.641 66.9096 164.77 67.0554C164.899 67.2011 165.108 67.2011 165.237 67.0554L166.556 65.5625C166.685 65.4167 166.685 65.1804 166.556 65.0346Z" fill="black" fill-opacity="0.08"/>
<path fill-rule="evenodd" clip-rule="evenodd" d="M175.792 40.7749C175.663 40.6291 175.454 40.6291 175.325 40.7749L174.006 42.2678C173.877 42.4136 173.877 42.6499 174.006 42.7956C174.135 42.9414 174.344 42.9414 174.472 42.7956L175.792 41.3027C175.921 41.157 175.921 40.9207 175.792 40.7749Z" fill="black" fill-opacity="0.08"/>
<path fill-rule="evenodd" clip-rule="evenodd" d="M175.792 45.6269C175.663 45.4811 175.454 45.4811 175.325 45.6269L174.006 47.1198C173.877 47.2655 173.877 47.5018 174.006 47.6476C174.135 47.7933 174.344 47.7933 174.472 47.6476L175.792 46.1547C175.921 46.0089 175.921 45.7726 175.792 45.6269Z" fill="black" fill-opacity="0.08"/>
<path fill-rule="evenodd" clip-rule="evenodd" d="M175.792 50.4788C175.663 50.333 175.454 50.333 175.325 50.4788L174.006 51.9717C173.877 52.1175 173.877 52.3538 174.006 52.4995C174.135 52.6453 174.344 52.6453 174.472 52.4995L175.792 51.0066C175.921 50.8609 175.921 50.6246 175.792 50.4788Z" fill="black" fill-opacity="0.08"/>
<path fill-rule="evenodd" clip-rule="evenodd" d="M175.792 55.3307C175.663 55.185 175.454 55.185 175.325 55.3307L174.006 56.8237C173.877 56.9694 173.877 57.2057 174.006 57.3515C174.135 57.4972 174.344 57.4972 174.472 57.3515L175.792 55.8586C175.921 55.7128 175.921 55.4765 175.792 55.3307Z" fill="black" fill-opacity="0.08"/>
<path fill-rule="evenodd" clip-rule="evenodd" d="M175.792 60.1827C175.663 60.0369 175.454 60.0369 175.325 60.1827L174.006 61.6756C173.877 61.8214 173.877 62.0577 174.006 62.2034C174.135 62.3492 174.344 62.3492 174.472 62.2034L175.792 60.7105C175.921 60.5648 175.921 60.3284 175.792 60.1827Z" fill="black" fill-opacity="0.08"/>
<path fill-rule="evenodd" clip-rule="evenodd" d="M175.792 65.0346C175.663 64.8889 175.454 64.8889 175.325 65.0346L174.006 66.5276C173.877 66.6733 173.877 66.9096 174.006 67.0554C174.135 67.2011 174.344 67.2011 174.472 67.0554L175.792 65.5625C175.921 65.4167 175.921 65.1804 175.792 65.0346Z" fill="black" fill-opacity="0.08"/>
<path fill-rule="evenodd" clip-rule="evenodd" d="M185.028 40.7749C184.899 40.6291 184.69 40.6291 184.561 40.7749L183.242 42.2678C183.113 42.4136 183.113 42.6499 183.242 42.7956C183.371 42.9414 183.579 42.9414 183.708 42.7956L185.028 41.3027C185.156 41.157 185.156 40.9207 185.028 40.7749Z" fill="black" fill-opacity="0.08"/>
<path fill-rule="evenodd" clip-rule="evenodd" d="M185.028 45.6269C184.899 45.4811 184.69 45.4811 184.561 45.6269L183.242 47.1198C183.113 47.2655 183.113 47.5018 183.242 47.6476C183.371 47.7933 183.579 47.7933 183.708 47.6476L185.028 46.1547C185.156 46.0089 185.156 45.7726 185.028 45.6269Z" fill="black" fill-opacity="0.08"/>
<path fill-rule="evenodd" clip-rule="evenodd" d="M185.028 50.4788C184.899 50.333 184.69 50.333 184.561 50.4788L183.242 51.9717C183.113 52.1175 183.113 52.3538 183.242 52.4995C183.371 52.6453 183.579 52.6453 183.708 52.4995L185.028 51.0066C185.156 50.8609 185.156 50.6246 185.028 50.4788Z" fill="black" fill-opacity="0.08"/>
<path fill-rule="evenodd" clip-rule="evenodd" d="M185.028 55.3307C184.899 55.185 184.69 55.185 184.561 55.3307L183.242 56.8237C183.113 56.9694 183.113 57.2057 183.242 57.3515C183.371 57.4972 183.579 57.4972 183.708 57.3515L185.028 55.8586C185.156 55.7128 185.156 55.4765 185.028 55.3307Z" fill="black" fill-opacity="0.08"/>
<path fill-rule="evenodd" clip-rule="evenodd" d="M185.028 60.1827C184.899 60.0369 184.69 60.0369 184.561 60.1827L183.242 61.6756C183.113 61.8214 183.113 62.0577 183.242 62.2034C183.371 62.3492 183.579 62.3492 183.708 62.2034L185.028 60.7105C185.156 60.5648 185.156 60.3284 185.028 60.1827Z" fill="black" fill-opacity="0.08"/>
<path fill-rule="evenodd" clip-rule="evenodd" d="M185.028 65.0346C184.899 64.8889 184.69 64.8889 184.561 65.0346L183.242 66.5276C183.113 66.6733 183.113 66.9096 183.242 67.0554C183.371 67.2011 183.579 67.2011 183.708 67.0554L185.028 65.5625C185.156 65.4167 185.156 65.1804 185.028 65.0346Z" fill="black" fill-opacity="0.08"/>
<path fill-rule="evenodd" clip-rule="evenodd" d="M187.86 40.7749C187.988 40.6292 188.197 40.6292 188.326 40.7749L189.645 42.2678C189.774 42.4136 189.774 42.6499 189.645 42.7957C189.517 42.9414 189.308 42.9414 189.179 42.7957L187.86 41.3028C187.731 41.157 187.731 40.9207 187.86 40.7749Z" fill="black" fill-opacity="0.08"/>
<path fill-rule="evenodd" clip-rule="evenodd" d="M187.86 45.6269C187.988 45.4811 188.197 45.4811 188.326 45.6269L189.645 47.1198C189.774 47.2655 189.774 47.5019 189.645 47.6476C189.517 47.7934 189.308 47.7934 189.179 47.6476L187.86 46.1547C187.731 46.009 187.731 45.7726 187.86 45.6269Z" fill="black" fill-opacity="0.08"/>
<path fill-rule="evenodd" clip-rule="evenodd" d="M187.86 50.4788C187.988 50.3331 188.197 50.3331 188.326 50.4788L189.645 51.9717C189.774 52.1175 189.774 52.3538 189.645 52.4996C189.517 52.6453 189.308 52.6453 189.179 52.4996L187.86 51.0067C187.731 50.8609 187.731 50.6246 187.86 50.4788Z" fill="black" fill-opacity="0.08"/>
<path fill-rule="evenodd" clip-rule="evenodd" d="M187.86 55.3308C187.988 55.185 188.197 55.185 188.326 55.3308L189.645 56.8237C189.774 56.9694 189.774 57.2058 189.645 57.3515C189.517 57.4973 189.308 57.4973 189.179 57.3515L187.86 55.8586C187.731 55.7128 187.731 55.4765 187.86 55.3308Z" fill="black" fill-opacity="0.08"/>
<path fill-rule="evenodd" clip-rule="evenodd" d="M187.86 60.1827C187.988 60.037 188.197 60.037 188.326 60.1827L189.645 61.6756C189.774 61.8214 189.774 62.0577 189.645 62.2035C189.517 62.3492 189.308 62.3492 189.179 62.2035L187.86 60.7105C187.731 60.5648 187.731 60.3285 187.86 60.1827Z" fill="black" fill-opacity="0.08"/>
<path fill-rule="evenodd" clip-rule="evenodd" d="M187.86 65.0347C187.988 64.8889 188.197 64.8889 188.326 65.0347L189.645 66.5276C189.774 66.6733 189.774 66.9096 189.645 67.0554C189.517 67.2012 189.308 67.2012 189.179 67.0554L187.86 65.5625C187.731 65.4167 187.731 65.1804 187.86 65.0347Z" fill="black" fill-opacity="0.08"/>
<path fill-rule="evenodd" clip-rule="evenodd" d="M197.095 40.7749C197.224 40.6292 197.433 40.6292 197.562 40.7749L198.881 42.2678C199.01 42.4136 199.01 42.6499 198.881 42.7957C198.752 42.9414 198.544 42.9414 198.415 42.7957L197.095 41.3028C196.967 41.157 196.967 40.9207 197.095 40.7749Z" fill="black" fill-opacity="0.08"/>
<path fill-rule="evenodd" clip-rule="evenodd" d="M197.095 45.6269C197.224 45.4811 197.433 45.4811 197.562 45.6269L198.881 47.1198C199.01 47.2655 199.01 47.5019 198.881 47.6476C198.752 47.7934 198.544 47.7934 198.415 47.6476L197.095 46.1547C196.967 46.009 196.967 45.7726 197.095 45.6269Z" fill="black" fill-opacity="0.08"/>
<path fill-rule="evenodd" clip-rule="evenodd" d="M197.095 50.4788C197.224 50.3331 197.433 50.3331 197.562 50.4788L198.881 51.9717C199.01 52.1175 199.01 52.3538 198.881 52.4996C198.752 52.6453 198.544 52.6453 198.415 52.4996L197.095 51.0067C196.967 50.8609 196.967 50.6246 197.095 50.4788Z" fill="black" fill-opacity="0.08"/>
<path fill-rule="evenodd" clip-rule="evenodd" d="M197.095 55.3308C197.224 55.185 197.433 55.185 197.562 55.3308L198.881 56.8237C199.01 56.9694 199.01 57.2058 198.881 57.3515C198.752 57.4973 198.544 57.4973 198.415 57.3515L197.095 55.8586C196.967 55.7128 196.967 55.4765 197.095 55.3308Z" fill="black" fill-opacity="0.08"/>
<path fill-rule="evenodd" clip-rule="evenodd" d="M197.095 60.1827C197.224 60.037 197.433 60.037 197.562 60.1827L198.881 61.6756C199.01 61.8214 199.01 62.0577 198.881 62.2035C198.752 62.3492 198.544 62.3492 198.415 62.2035L197.095 60.7105C196.967 60.5648 196.967 60.3285 197.095 60.1827Z" fill="black" fill-opacity="0.08"/>
<path fill-rule="evenodd" clip-rule="evenodd" d="M197.095 65.0347C197.224 64.8889 197.433 64.8889 197.562 65.0347L198.881 66.5276C199.01 66.6733 199.01 66.9096 198.881 67.0554C198.752 67.2012 198.544 67.2012 198.415 67.0554L197.095 65.5625C196.967 65.4167 196.967 65.1804 197.095 65.0347Z" fill="black" fill-opacity="0.08"/>
<path fill-rule="evenodd" clip-rule="evenodd" d="M206.331 40.7749C206.46 40.6292 206.669 40.6292 206.798 40.7749L208.117 42.2678C208.246 42.4136 208.246 42.6499 208.117 42.7957C207.988 42.9414 207.779 42.9414 207.651 42.7957L206.331 41.3028C206.202 41.157 206.202 40.9207 206.331 40.7749Z" fill="black" fill-opacity="0.08"/>
<path fill-rule="evenodd" clip-rule="evenodd" d="M206.331 45.6269C206.46 45.4811 206.669 45.4811 206.798 45.6269L208.117 47.1198C208.246 47.2655 208.246 47.5019 208.117 47.6476C207.988 47.7934 207.779 47.7934 207.651 47.6476L206.331 46.1547C206.202 46.009 206.202 45.7726 206.331 45.6269Z" fill="black" fill-opacity="0.08"/>
<path fill-rule="evenodd" clip-rule="evenodd" d="M206.331 50.4788C206.46 50.3331 206.669 50.3331 206.798 50.4788L208.117 51.9717C208.246 52.1175 208.246 52.3538 208.117 52.4996C207.988 52.6453 207.779 52.6453 207.651 52.4996L206.331 51.0067C206.202 50.8609 206.202 50.6246 206.331 50.4788Z" fill="black" fill-opacity="0.08"/>
<path fill-rule="evenodd" clip-rule="evenodd" d="M206.331 55.3308C206.46 55.185 206.669 55.185 206.798 55.3308L208.117 56.8237C208.246 56.9694 208.246 57.2058 208.117 57.3515C207.988 57.4973 207.779 57.4973 207.651 57.3515L206.331 55.8586C206.202 55.7128 206.202 55.4765 206.331 55.3308Z" fill="black" fill-opacity="0.08"/>
<path fill-rule="evenodd" clip-rule="evenodd" d="M206.331 60.1827C206.46 60.037 206.669 60.037 206.798 60.1827L208.117 61.6756C208.246 61.8214 208.246 62.0577 208.117 62.2035C207.988 62.3492 207.779 62.3492 207.651 62.2035L206.331 60.7105C206.202 60.5648 206.202 60.3285 206.331 60.1827Z" fill="black" fill-opacity="0.08"/>
<path fill-rule="evenodd" clip-rule="evenodd" d="M206.331 65.0347C206.46 64.8889 206.669 64.8889 206.798 65.0347L208.117 66.5276C208.246 66.6733 208.246 66.9096 208.117 67.0554C207.988 67.2012 207.779 67.2012 207.651 67.0554L206.331 65.5625C206.202 65.4167 206.202 65.1804 206.331 65.0347Z" fill="black" fill-opacity="0.08"/>
<path fill-rule="evenodd" clip-rule="evenodd" d="M194.263 40.7749C194.135 40.6292 193.926 40.6292 193.797 40.7749L192.477 42.2678C192.349 42.4136 192.349 42.6499 192.477 42.7957C192.606 42.9414 192.815 42.9414 192.944 42.7957L194.263 41.3028C194.392 41.157 194.392 40.9207 194.263 40.7749Z" fill="black" fill-opacity="0.08"/>
<path fill-rule="evenodd" clip-rule="evenodd" d="M194.263 45.6269C194.135 45.4811 193.926 45.4811 193.797 45.6269L192.477 47.1198C192.349 47.2655 192.349 47.5019 192.477 47.6476C192.606 47.7934 192.815 47.7934 192.944 47.6476L194.263 46.1547C194.392 46.009 194.392 45.7726 194.263 45.6269Z" fill="black" fill-opacity="0.08"/>
<path fill-rule="evenodd" clip-rule="evenodd" d="M194.263 50.4788C194.135 50.3331 193.926 50.3331 193.797 50.4788L192.477 51.9717C192.349 52.1175 192.349 52.3538 192.477 52.4996C192.606 52.6453 192.815 52.6453 192.944 52.4996L194.263 51.0067C194.392 50.8609 194.392 50.6246 194.263 50.4788Z" fill="black" fill-opacity="0.08"/>
<path fill-rule="evenodd" clip-rule="evenodd" d="M194.263 55.3308C194.135 55.185 193.926 55.185 193.797 55.3308L192.477 56.8237C192.349 56.9694 192.349 57.2058 192.477 57.3515C192.606 57.4973 192.815 57.4973 192.944 57.3515L194.263 55.8586C194.392 55.7128 194.392 55.4765 194.263 55.3308Z" fill="black" fill-opacity="0.08"/>
<path fill-rule="evenodd" clip-rule="evenodd" d="M194.263 60.1827C194.135 60.037 193.926 60.037 193.797 60.1827L192.477 61.6756C192.349 61.8214 192.349 62.0577 192.477 62.2035C192.606 62.3492 192.815 62.3492 192.944 62.2035L194.263 60.7105C194.392 60.5648 194.392 60.3285 194.263 60.1827Z" fill="black" fill-opacity="0.08"/>
<path fill-rule="evenodd" clip-rule="evenodd" d="M194.263 65.0347C194.135 64.8889 193.926 64.8889 193.797 65.0347L192.477 66.5276C192.349 66.6733 192.349 66.9096 192.477 67.0554C192.606 67.2012 192.815 67.2012 192.944 67.0554L194.263 65.5625C194.392 65.4167 194.392 65.1804 194.263 65.0347Z" fill="black" fill-opacity="0.08"/>
<path fill-rule="evenodd" clip-rule="evenodd" d="M203.499 40.7749C203.37 40.6292 203.161 40.6292 203.033 40.7749L201.713 42.2678C201.584 42.4136 201.584 42.6499 201.713 42.7957C201.842 42.9414 202.051 42.9414 202.18 42.7957L203.499 41.3028C203.628 41.157 203.628 40.9207 203.499 40.7749Z" fill="black" fill-opacity="0.08"/>
<path fill-rule="evenodd" clip-rule="evenodd" d="M203.499 45.6269C203.37 45.4811 203.161 45.4811 203.033 45.6269L201.713 47.1198C201.584 47.2655 201.584 47.5019 201.713 47.6476C201.842 47.7934 202.051 47.7934 202.18 47.6476L203.499 46.1547C203.628 46.009 203.628 45.7726 203.499 45.6269Z" fill="black" fill-opacity="0.08"/>
<path fill-rule="evenodd" clip-rule="evenodd" d="M203.499 50.4788C203.37 50.3331 203.161 50.3331 203.033 50.4788L201.713 51.9717C201.584 52.1175 201.584 52.3538 201.713 52.4996C201.842 52.6453 202.051 52.6453 202.18 52.4996L203.499 51.0067C203.628 50.8609 203.628 50.6246 203.499 50.4788Z" fill="black" fill-opacity="0.08"/>
<path fill-rule="evenodd" clip-rule="evenodd" d="M203.499 55.3308C203.37 55.185 203.161 55.185 203.033 55.3308L201.713 56.8237C201.584 56.9694 201.584 57.2058 201.713 57.3515C201.842 57.4973 202.051 57.4973 202.18 57.3515L203.499 55.8586C203.628 55.7128 203.628 55.4765 203.499 55.3308Z" fill="black" fill-opacity="0.08"/>
<path fill-rule="evenodd" clip-rule="evenodd" d="M203.499 60.1827C203.37 60.037 203.161 60.037 203.033 60.1827L201.713 61.6756C201.584 61.8214 201.584 62.0577 201.713 62.2035C201.842 62.3492 202.051 62.3492 202.18 62.2035L203.499 60.7105C203.628 60.5648 203.628 60.3285 203.499 60.1827Z" fill="black" fill-opacity="0.08"/>
<path fill-rule="evenodd" clip-rule="evenodd" d="M203.499 65.0347C203.37 64.8889 203.161 64.8889 203.033 65.0347L201.713 66.5276C201.584 66.6733 201.584 66.9096 201.713 67.0554C201.842 67.2012 202.051 67.2012 202.18 67.0554L203.499 65.5625C203.628 65.4167 203.628 65.1804 203.499 65.0347Z" fill="black" fill-opacity="0.08"/>
<path fill-rule="evenodd" clip-rule="evenodd" d="M212.735 40.7749C212.606 40.6292 212.397 40.6292 212.268 40.7749L210.949 42.2678C210.82 42.4136 210.82 42.6499 210.949 42.7957C211.078 42.9414 211.287 42.9414 211.416 42.7957L212.735 41.3028C212.864 41.157 212.864 40.9207 212.735 40.7749Z" fill="black" fill-opacity="0.08"/>
<path fill-rule="evenodd" clip-rule="evenodd" d="M212.735 45.6269C212.606 45.4811 212.397 45.4811 212.268 45.6269L210.949 47.1198C210.82 47.2655 210.82 47.5019 210.949 47.6476C211.078 47.7934 211.287 47.7934 211.416 47.6476L212.735 46.1547C212.864 46.009 212.864 45.7726 212.735 45.6269Z" fill="black" fill-opacity="0.08"/>
<path fill-rule="evenodd" clip-rule="evenodd" d="M212.735 50.4788C212.606 50.3331 212.397 50.3331 212.268 50.4788L210.949 51.9717C210.82 52.1175 210.82 52.3538 210.949 52.4996C211.078 52.6453 211.287 52.6453 211.416 52.4996L212.735 51.0067C212.864 50.8609 212.864 50.6246 212.735 50.4788Z" fill="black" fill-opacity="0.08"/>
<path fill-rule="evenodd" clip-rule="evenodd" d="M212.735 55.3308C212.606 55.185 212.397 55.185 212.268 55.3308L210.949 56.8237C210.82 56.9694 210.82 57.2058 210.949 57.3515C211.078 57.4973 211.287 57.4973 211.416 57.3515L212.735 55.8586C212.864 55.7128 212.864 55.4765 212.735 55.3308Z" fill="black" fill-opacity="0.08"/>
<path fill-rule="evenodd" clip-rule="evenodd" d="M212.735 60.1827C212.606 60.037 212.397 60.037 212.268 60.1827L210.949 61.6756C210.82 61.8214 210.82 62.0577 210.949 62.2035C211.078 62.3492 211.287 62.3492 211.416 62.2035L212.735 60.7105C212.864 60.5648 212.864 60.3285 212.735 60.1827Z" fill="black" fill-opacity="0.08"/>
<path fill-rule="evenodd" clip-rule="evenodd" d="M212.735 65.0347C212.606 64.8889 212.397 64.8889 212.268 65.0347L210.949 66.5276C210.82 66.6733 210.82 66.9096 210.949 67.0554C211.078 67.2012 211.287 67.2012 211.416 67.0554L212.735 65.5625C212.864 65.4167 212.864 65.1804 212.735 65.0347Z" fill="black" fill-opacity="0.08"/>
</g>
<path d="M162.052 80.5152C157.619 78.8263 158.973 69.96 160.205 65.7379C163.582 65.7379 167.242 66.6175 168.649 67.0573V68.1128L172.343 64.1546C173.399 63.451 175.615 61.1465 176.038 57.5577C176.565 53.0717 181.051 50.9607 184.482 52.0162C187.912 53.0717 186.329 54.3911 184.482 54.1272C183.004 53.9161 182.283 54.2152 182.107 54.3911C183.426 54.3911 184.482 57.5576 185.009 58.6132C185.537 59.6687 184.482 59.1409 182.635 62.3075C181.157 64.8407 179.38 65.65 178.676 65.7379L174.718 73.6543C172.871 77.3486 167.593 82.6262 162.052 80.5152Z" fill="#FFBE9F"/>
<path d="M190.355 53.2831L189.661 68.3242C189.633 68.9257 190.113 69.4284 190.715 69.4284H198.381C198.939 69.4284 199.4 68.9945 199.434 68.4377L200.36 53.3966C200.397 52.7893 199.915 52.2762 199.306 52.2762H191.409C190.845 52.2762 190.381 52.7197 190.355 53.2831Z" fill="black"/>
<path d="M205.091 79.9837C213.957 84.2058 210.896 68.9887 208.346 60.9843L201.749 61.5121L201.397 64.1509L201.661 61.5121C202.1 60.0168 202.136 57.0262 198.758 57.0262C194.536 57.0262 194.272 64.4148 195.591 64.6787C196.647 64.8898 197.263 64.2389 197.439 63.887C197.175 67.9332 198.336 76.8171 205.091 79.9837Z" fill="#FFBE9F"/>
<path d="M179.055 32.4853V41.1933C180.023 42.5127 182.697 45.1515 185.652 45.1515C188.607 45.1515 191.105 43.0405 191.985 41.985V39.0823C195.574 39.2934 196.295 33.8926 196.207 31.1659C196.119 28.615 195.732 22.7218 194.888 19.5552C193.832 15.597 193.304 14.5415 188.027 14.2776C182.327 14.2776 179.671 17.2683 179.055 18.7636V29.8465C176.416 25.6244 175.888 29.3187 175.888 31.1659C175.888 32.6436 177.999 32.6612 179.055 32.4853Z" fill="#FFBE9F"/>
<path d="M180.954 26.2688C180.954 29.4353 179.723 30.7547 179.107 31.0186C179.529 28.2742 177.524 28.116 176.468 28.3799C176.732 27.9401 176.891 26.0577 175.413 22.0467C173.513 16.558 176.732 15.5377 178.579 15.7137C180.268 10.8583 184.561 11.5795 186.496 12.5471C187.903 10.3481 191.457 6.90007 194.412 10.6999C199.69 17.6664 196.083 20.2876 193.621 20.7274C193.533 19.0561 192.829 15.7137 190.718 15.7137C188.607 15.7137 187.903 18.1765 187.815 19.4079C186.672 18.3524 183.963 16.6636 182.274 18.3524C180.163 20.4634 180.954 22.3106 180.954 26.2688Z" fill="#050505" stroke="black" stroke-width="0.527759"/>
<path d="M170.875 180.786V177.355H162.694V181.841C164.19 183.688 167.655 187.858 169.555 189.758C171.455 191.658 172.458 190.901 172.722 190.285L170.875 180.786Z" fill="#FBBC05"/>
<path d="M183.277 181.313V175.244C183.277 174.953 183.513 174.716 183.805 174.716H191.626C191.952 174.716 192.2 175.009 192.146 175.331L192.075 175.758C192.026 176.053 192.232 176.336 192.516 176.43C194.26 177.006 197.841 179.232 200.344 180.893C200.776 181.179 200.571 181.841 200.054 181.841H183.805C183.513 181.841 183.277 181.605 183.277 181.313Z" fill="#FBBC05"/>
<g filter="url(#filter28_i_212_708)">
<rect x="26" y="39" width="104" height="85.2613" rx="10.3063" fill="white"/>
</g>
<rect x="26.5" y="39.5" width="103" height="84.2613" rx="9.80631" stroke="#FBBC05"/>
<circle cx="43" cy="57" r="8" fill="#C4C4C4" fill-opacity="0.22"/>
<circle cx="116" cy="100" r="5" fill="#C4C4C4" fill-opacity="0.22"/>
<circle cx="38.5" cy="111.5" r="3.5" fill="#C4C4C4" fill-opacity="0.22"/>
<g filter="url(#filter29_i_212_708)">
<path d="M97.9656 95.0573H57.948C56.6357 95.0573 55.3772 94.536 54.4492 93.608C53.5213 92.6804 53 91.4216 53 90.1092V71.7753C53 71.509 53.0542 71.2454 53.1594 71.001C53.2645 70.7564 53.4184 70.5358 53.6117 70.3526L74.817 50.2517C75.6648 49.448 76.7887 49 77.9568 49C79.1253 49 80.2488 49.448 81.0966 50.2517L101.315 69.4169C101.82 69.8956 102.222 70.4723 102.497 71.1117C102.772 71.7511 102.914 72.4397 102.914 73.1354V90.1092C102.914 90.7592 102.786 91.4025 102.537 92.0031C102.288 92.6034 101.924 93.1485 101.464 93.608C101.005 94.0675 100.459 94.432 99.8591 94.6807C99.2588 94.9294 98.6156 95.0573 97.9656 95.0573Z" fill="#8061FF"/>
</g>
<g filter="url(#filter30_i_212_708)">
<rect x="61.9944" y="53.5565" width="31.7771" height="38.1326" rx="3.05061" fill="#FBBC05"/>
</g>
<g filter="url(#filter31_d_212_708)">
<rect x="66.2959" y="58.7765" width="7.43009" height="1.95529" rx="0.977644" fill="white"/>
</g>
<g filter="url(#filter32_d_212_708)">
<rect x="66.2959" y="63.4692" width="7.43009" height="1.56423" rx="0.782115" fill="white"/>
</g>
<g filter="url(#filter33_d_212_708)">
<rect x="66.3159" y="67.9283" width="7.11808" height="1.77952" rx="0.88976" fill="white"/>
</g>
<g filter="url(#filter34_d_212_708)">
<rect x="66.3159" y="72.5042" width="22.8795" height="1.77952" rx="0.88976" fill="white"/>
</g>
<g filter="url(#filter35_d_212_708)">
<rect x="66.3159" y="77.0801" width="22.8795" height="1.77952" rx="0.88976" fill="white"/>
</g>
<g filter="url(#filter36_d_212_708)">
<rect x="66.3159" y="81.6561" width="22.8795" height="1.77952" rx="0.88976" fill="white"/>
</g>
<g filter="url(#filter37_i_212_708)">
<path d="M77.9567 83.1756L54.3732 71.7767C54.2274 71.7063 54.066 71.6738 53.9042 71.6828C53.7425 71.6918 53.5856 71.7415 53.4483 71.8275C53.3111 71.9139 53.198 72.0332 53.1195 72.1751C53.0411 72.3167 53 72.4763 53 72.6382V92.2501C53 92.6427 53.0773 93.031 53.2274 93.3935C53.3776 93.756 53.5977 94.0853 53.8751 94.363C54.1525 94.6402 54.4819 94.8604 54.8444 95.0106C55.2069 95.1607 55.5954 95.2378 55.9878 95.2378H99.9259C100.318 95.2378 100.707 95.1607 101.069 95.0106C101.432 94.8604 101.761 94.6402 102.039 94.363C102.316 94.0853 102.536 93.756 102.686 93.3935C102.837 93.031 102.914 92.6427 102.914 92.2501V72.9741C102.914 72.7766 102.864 72.5818 102.768 72.409C102.672 72.2362 102.534 72.0903 102.366 71.9851C102.199 71.8799 102.008 71.8193 101.81 71.8083C101.613 71.7974 101.416 71.8369 101.238 71.9229L77.9567 83.1756Z" fill="#8061FF"/>
</g>
<g filter="url(#filter38_i_212_708)">
<path d="M80.9035 61.8549C81.9968 59.9516 82.5434 59 83.3634 59C84.1833 59 84.73 59.9516 85.8232 61.8549L87.3607 64.5314C88.4539 66.4347 89.0006 67.3863 88.5906 68.1001C88.1806 68.8138 87.0873 68.8138 84.9008 68.8138H81.8259C79.6394 68.8138 78.5461 68.8138 78.1361 68.1001C77.7261 67.3863 78.2728 66.4347 79.3661 64.5314L80.9035 61.8549Z" fill="#8061FF"/>
</g>
<g filter="url(#filter39_d_212_708)">
<rect x="82.7927" y="61.5105" width="0.912913" height="3.87988" rx="0.456456" fill="white"/>
</g>
<g filter="url(#filter40_d_212_708)">
<rect x="82.5645" y="65.8469" width="1.36937" height="1.36937" rx="0.684685" fill="white"/>
</g>
<path d="M62.704 104.552C60.352 104.552 58.444 106.316 58.444 108.812C58.444 111.32 60.352 113.072 62.704 113.072C64.948 113.072 66.58 111.428 66.832 109.496V108.428H62.236V109.52H65.368C65.164 110.924 64.216 111.836 62.704 111.836C61.048 111.836 59.848 110.648 59.848 108.812C59.848 106.976 61.048 105.8 62.704 105.8C63.7 105.8 64.492 106.22 64.936 107.06H66.58C65.944 105.428 64.444 104.552 62.704 104.552ZM73.8093 113H75.2493L72.2613 104.648H70.6773L67.6893 113H69.1173L69.7173 111.296H73.2093L73.8093 113ZM72.8253 110.18H70.1013L71.4693 106.304L72.8253 110.18ZM80.3524 104.552C78.0004 104.552 76.0924 106.316 76.0924 108.812C76.0924 111.32 78.0004 113.072 80.3524 113.072C82.5964 113.072 84.2284 111.428 84.4804 109.496V108.428H79.8844V109.52H83.0164C82.8124 110.924 81.8644 111.836 80.3524 111.836C78.6964 111.836 77.4964 110.648 77.4964 108.812C77.4964 106.976 78.6964 105.8 80.3524 105.8C81.3484 105.8 82.1404 106.22 82.5844 107.06H84.2284C83.5924 105.428 82.0924 104.552 80.3524 104.552ZM91.4577 113H92.8977L89.9097 104.648H88.3257L85.3377 113H86.7657L87.3657 111.296H90.8577L91.4577 113ZM90.4737 110.18H87.7497L89.1177 106.304L90.4737 110.18ZM94.1969 104.66V113H98.3849V111.896H95.5649V104.66H94.1969Z" fill="#ECB105"/>
<defs>
<filter id="filter0_i_212_708" x="209.942" y="1.31384" width="44.0585" height="43.1862" filterUnits="userSpaceOnUse" color-interpolation-filters="sRGB">
<feFlood flood-opacity="0" result="BackgroundImageFix"/>
<feBlend mode="normal" in="SourceGraphic" in2="BackgroundImageFix" result="shape"/>
<feColorMatrix in="SourceAlpha" type="matrix" values="0 0 0 0 0 0 0 0 0 0 0 0 0 0 0 0 0 0 127 0" result="hardAlpha"/>
<feOffset dx="-5.05847" dy="-1.68616"/>
<feGaussianBlur stdDeviation="12.6462"/>
<feComposite in2="hardAlpha" operator="arithmetic" k2="-1" k3="1"/>
<feColorMatrix type="matrix" values="0 0 0 0 0 0 0 0 0 0 0 0 0 0 0 0 0 0 0.1 0"/>
<feBlend mode="normal" in2="shape" result="effect1_innerShadow_212_708"/>
</filter>
<filter id="filter1_i_212_708" x="209.942" y="1.31384" width="44.0585" height="43.1862" filterUnits="userSpaceOnUse" color-interpolation-filters="sRGB">
<feFlood flood-opacity="0" result="BackgroundImageFix"/>
<feBlend mode="normal" in="SourceGraphic" in2="BackgroundImageFix" result="shape"/>
<feColorMatrix in="SourceAlpha" type="matrix" values="0 0 0 0 0 0 0 0 0 0 0 0 0 0 0 0 0 0 127 0" result="hardAlpha"/>
<feOffset dx="-5.05847" dy="-1.68616"/>
<feGaussianBlur stdDeviation="12.6462"/>
<feComposite in2="hardAlpha" operator="arithmetic" k2="-1" k3="1"/>
<feColorMatrix type="matrix" values="0 0 0 0 0 0 0 0 0 0 0 0 0 0 0 0 0 0 0.1 0"/>
<feBlend mode="normal" in2="shape" result="effect1_innerShadow_212_708"/>
</filter>
<filter id="filter2_d_212_708" x="231.726" y="9.64106" width="6.48164" height="16.9322" filterUnits="userSpaceOnUse" color-interpolation-filters="sRGB">
<feFlood flood-opacity="0" result="BackgroundImageFix"/>
<feColorMatrix in="SourceAlpha" type="matrix" values="0 0 0 0 0 0 0 0 0 0 0 0 0 0 0 0 0 0 127 0" result="hardAlpha"/>
<feOffset dx="0.215365" dy="0.287153"/>
<feGaussianBlur stdDeviation="0.323047"/>
<feComposite in2="hardAlpha" operator="out"/>
<feColorMatrix type="matrix" values="0 0 0 0 0 0 0 0 0 0 0 0 0 0 0 0 0 0 0.25 0"/>
<feBlend mode="normal" in2="BackgroundImageFix" result="effect1_dropShadow_212_708"/>
<feBlend mode="normal" in="SourceGraphic" in2="effect1_dropShadow_212_708" result="shape"/>
</filter>
<filter id="filter3_d_212_708" x="231.569" y="27.1211" width="6.81221" height="6.81218" filterUnits="userSpaceOnUse" color-interpolation-filters="sRGB">
<feFlood flood-opacity="0" result="BackgroundImageFix"/>
<feColorMatrix in="SourceAlpha" type="matrix" values="0 0 0 0 0 0 0 0 0 0 0 0 0 0 0 0 0 0 127 0" result="hardAlpha"/>
<feOffset dx="0.215365" dy="0.287153"/>
<feGaussianBlur stdDeviation="0.323047"/>
<feComposite in2="hardAlpha" operator="out"/>
<feColorMatrix type="matrix" values="0 0 0 0 0 0 0 0 0 0 0 0 0 0 0 0 0 0 0.25 0"/>
<feBlend mode="normal" in2="BackgroundImageFix" result="effect1_dropShadow_212_708"/>
<feBlend mode="normal" in="SourceGraphic" in2="effect1_dropShadow_212_708" result="shape"/>
</filter>
<filter id="filter4_i_212_708" x="-5.05847" y="-0.686156" width="29.0585" height="25.6862" filterUnits="userSpaceOnUse" color-interpolation-filters="sRGB">
<feFlood flood-opacity="0" result="BackgroundImageFix"/>
<feBlend mode="normal" in="SourceGraphic" in2="BackgroundImageFix" result="shape"/>
<feColorMatrix in="SourceAlpha" type="matrix" values="0 0 0 0 0 0 0 0 0 0 0 0 0 0 0 0 0 0 127 0" result="hardAlpha"/>
<feOffset dx="-5.05847" dy="-1.68616"/>
<feGaussianBlur stdDeviation="12.6462"/>
<feComposite in2="hardAlpha" operator="arithmetic" k2="-1" k3="1"/>
<feColorMatrix type="matrix" values="0 0 0 0 0 0 0 0 0 0 0 0 0 0 0 0 0 0 0.1 0"/>
<feBlend mode="normal" in2="shape" result="effect1_innerShadow_212_708"/>
</filter>
<filter id="filter5_i_212_708" x="221.942" y="140.314" width="29.0585" height="25.6862" filterUnits="userSpaceOnUse" color-interpolation-filters="sRGB">
<feFlood flood-opacity="0" result="BackgroundImageFix"/>
<feBlend mode="normal" in="SourceGraphic" in2="BackgroundImageFix" result="shape"/>
<feColorMatrix in="SourceAlpha" type="matrix" values="0 0 0 0 0 0 0 0 0 0 0 0 0 0 0 0 0 0 127 0" result="hardAlpha"/>
<feOffset dx="-5.05847" dy="-1.68616"/>
<feGaussianBlur stdDeviation="12.6462"/>
<feComposite in2="hardAlpha" operator="arithmetic" k2="-1" k3="1"/>
<feColorMatrix type="matrix" values="0 0 0 0 0 0 0 0 0 0 0 0 0 0 0 0 0 0 0.1 0"/>
<feBlend mode="normal" in2="shape" result="effect1_innerShadow_212_708"/>
</filter>
<filter id="filter6_i_212_708" x="11.4039" y="138.234" width="14.5961" height="14.7664" filterUnits="userSpaceOnUse" color-interpolation-filters="sRGB">
<feFlood flood-opacity="0" result="BackgroundImageFix"/>
<feBlend mode="normal" in="SourceGraphic" in2="BackgroundImageFix" result="shape"/>
<feColorMatrix in="SourceAlpha" type="matrix" values="0 0 0 0 0 0 0 0 0 0 0 0 0 0 0 0 0 0 127 0" result="hardAlpha"/>
<feOffset dx="-0.596051" dy="-0.766351"/>
<feGaussianBlur stdDeviation="1.27725"/>
<feComposite in2="hardAlpha" operator="arithmetic" k2="-1" k3="1"/>
<feColorMatrix type="matrix" values="0 0 0 0 0 0 0 0 0 0 0 0 0 0 0 0 0 0 0.1 0"/>
<feBlend mode="normal" in2="shape" result="effect1_innerShadow_212_708"/>
</filter>
<filter id="filter7_i_212_708" x="47.9415" y="-1.68616" width="92.0585" height="181.686" filterUnits="userSpaceOnUse" color-interpolation-filters="sRGB">
<feFlood flood-opacity="0" result="BackgroundImageFix"/>
<feBlend mode="normal" in="SourceGraphic" in2="BackgroundImageFix" result="shape"/>
<feColorMatrix in="SourceAlpha" type="matrix" values="0 0 0 0 0 0 0 0 0 0 0 0 0 0 0 0 0 0 127 0" result="hardAlpha"/>
<feOffset dx="-5.05847" dy="-1.68616"/>
<feGaussianBlur stdDeviation="12.6462"/>
<feComposite in2="hardAlpha" operator="arithmetic" k2="-1" k3="1"/>
<feColorMatrix type="matrix" values="0 0 0 0 0 0 0 0 0 0 0 0 0 0 0 0 0 0 0.1 0"/>
<feBlend mode="normal" in2="shape" result="effect1_innerShadow_212_708"/>
</filter>
<filter id="filter8_i_212_708" x="65.6897" y="133.601" width="63.3103" height="28.5147" filterUnits="userSpaceOnUse" color-interpolation-filters="sRGB">
<feFlood flood-opacity="0" result="BackgroundImageFix"/>
<feBlend mode="normal" in="SourceGraphic" in2="BackgroundImageFix" result="shape"/>
<feColorMatrix in="SourceAlpha" type="matrix" values="0 0 0 0 0 0 0 0 0 0 0 0 0 0 0 0 0 0 127 0" result="hardAlpha"/>
<feOffset dx="-0.310341" dy="-0.399009"/>
<feGaussianBlur stdDeviation="0.665016"/>
<feComposite in2="hardAlpha" operator="arithmetic" k2="-1" k3="1"/>
<feColorMatrix type="matrix" values="0 0 0 0 0 0 0 0 0 0 0 0 0 0 0 0 0 0 0.1 0"/>
<feBlend mode="normal" in2="shape" result="effect1_innerShadow_212_708"/>
</filter>
<filter id="filter9_i_212_708" x="71.1357" y="140.049" width="14.9246" height="17.9155" filterUnits="userSpaceOnUse" color-interpolation-filters="sRGB">
<feFlood flood-opacity="0" result="BackgroundImageFix"/>
<feBlend mode="normal" in="SourceGraphic" in2="BackgroundImageFix" result="shape"/>
<feColorMatrix in="SourceAlpha" type="matrix" values="0 0 0 0 0 0 0 0 0 0 0 0 0 0 0 0 0 0 127 0" result="hardAlpha"/>
<feOffset dx="-0.0708285" dy="-0.0910652"/>
<feGaussianBlur stdDeviation="0.151775"/>
<feComposite in2="hardAlpha" operator="arithmetic" k2="-1" k3="1"/>
<feColorMatrix type="matrix" values="0 0 0 0 0 0 0 0 0 0 0 0 0 0 0 0 0 0 0.1 0"/>
<feBlend mode="normal" in2="shape" result="effect1_innerShadow_212_708"/>
</filter>
<filter id="filter10_i_212_708" x="77.4978" y="137.444" width="2.38357" height="1.98281" filterUnits="userSpaceOnUse" color-interpolation-filters="sRGB">
<feFlood flood-opacity="0" result="BackgroundImageFix"/>
<feBlend mode="normal" in="SourceGraphic" in2="BackgroundImageFix" result="shape"/>
<feColorMatrix in="SourceAlpha" type="matrix" values="0 0 0 0 0 0 0 0 0 0 0 0 0 0 0 0 0 0 127 0" result="hardAlpha"/>
<feOffset dx="-0.601096" dy="-0.200365"/>
<feGaussianBlur stdDeviation="1.50274"/>
<feComposite in2="hardAlpha" operator="arithmetic" k2="-1" k3="1"/>
<feColorMatrix type="matrix" values="0 0 0 0 0 0 0 0 0 0 0 0 0 0 0 0 0 0 0.1 0"/>
<feBlend mode="normal" in2="shape" result="effect1_innerShadow_212_708"/>
</filter>
<filter id="filter11_i_212_708" x="75.3586" y="138.87" width="6.5425" height="2.81462" filterUnits="userSpaceOnUse" color-interpolation-filters="sRGB">
<feFlood flood-opacity="0" result="BackgroundImageFix"/>
<feBlend mode="normal" in="SourceGraphic" in2="BackgroundImageFix" result="shape"/>
<feColorMatrix in="SourceAlpha" type="matrix" values="0 0 0 0 0 0 0 0 0 0 0 0 0 0 0 0 0 0 127 0" result="hardAlpha"/>
<feOffset dx="-0.601096" dy="-0.200365"/>
<feGaussianBlur stdDeviation="1.50274"/>
<feComposite in2="hardAlpha" operator="arithmetic" k2="-1" k3="1"/>
<feColorMatrix type="matrix" values="0 0 0 0 0 0 0 0 0 0 0 0 0 0 0 0 0 0 0.1 0"/>
<feBlend mode="normal" in2="shape" result="effect1_innerShadow_212_708"/>
</filter>
<filter id="filter12_d_212_708" x="73.1756" y="143.543" width="5.9763" height="0.985368" filterUnits="userSpaceOnUse" color-interpolation-filters="sRGB">
<feFlood flood-opacity="0" result="BackgroundImageFix"/>
<feColorMatrix in="SourceAlpha" type="matrix" values="0 0 0 0 0 0 0 0 0 0 0 0 0 0 0 0 0 0 127 0" result="hardAlpha"/>
<feOffset dx="0.0255917" dy="0.0341223"/>
<feGaussianBlur stdDeviation="0.0383875"/>
<feComposite in2="hardAlpha" operator="out"/>
<feColorMatrix type="matrix" values="0 0 0 0 0 0 0 0 0 0 0 0 0 0 0 0 0 0 0.25 0"/>
<feBlend mode="normal" in2="BackgroundImageFix" result="effect1_dropShadow_212_708"/>
<feBlend mode="normal" in="SourceGraphic" in2="effect1_dropShadow_212_708" result="shape"/>
</filter>
<filter id="filter13_d_212_708" x="73.1756" y="145.682" width="4.66918" height="0.985368" filterUnits="userSpaceOnUse" color-interpolation-filters="sRGB">
<feFlood flood-opacity="0" result="BackgroundImageFix"/>
<feColorMatrix in="SourceAlpha" type="matrix" values="0 0 0 0 0 0 0 0 0 0 0 0 0 0 0 0 0 0 127 0" result="hardAlpha"/>
<feOffset dx="0.0255917" dy="0.0341223"/>
<feGaussianBlur stdDeviation="0.0383875"/>
<feComposite in2="hardAlpha" operator="out"/>
<feColorMatrix type="matrix" values="0 0 0 0 0 0 0 0 0 0 0 0 0 0 0 0 0 0 0.25 0"/>
<feBlend mode="normal" in2="BackgroundImageFix" result="effect1_dropShadow_212_708"/>
<feBlend mode="normal" in="SourceGraphic" in2="effect1_dropShadow_212_708" result="shape"/>
</filter>
<filter id="filter14_d_212_708" x="73.1756" y="147.821" width="3.4807" height="0.985368" filterUnits="userSpaceOnUse" color-interpolation-filters="sRGB">
<feFlood flood-opacity="0" result="BackgroundImageFix"/>
<feColorMatrix in="SourceAlpha" type="matrix" values="0 0 0 0 0 0 0 0 0 0 0 0 0 0 0 0 0 0 127 0" result="hardAlpha"/>
<feOffset dx="0.0255917" dy="0.0341223"/>
<feGaussianBlur stdDeviation="0.0383875"/>
<feComposite in2="hardAlpha" operator="out"/>
<feColorMatrix type="matrix" values="0 0 0 0 0 0 0 0 0 0 0 0 0 0 0 0 0 0 0.25 0"/>
<feBlend mode="normal" in2="BackgroundImageFix" result="effect1_dropShadow_212_708"/>
<feBlend mode="normal" in="SourceGraphic" in2="effect1_dropShadow_212_708" result="shape"/>
</filter>
<filter id="filter15_d_212_708" x="73.1756" y="149.96" width="10.8481" height="0.985368" filterUnits="userSpaceOnUse" color-interpolation-filters="sRGB">
<feFlood flood-opacity="0" result="BackgroundImageFix"/>
<feColorMatrix in="SourceAlpha" type="matrix" values="0 0 0 0 0 0 0 0 0 0 0 0 0 0 0 0 0 0 127 0" result="hardAlpha"/>
<feOffset dx="0.0255917" dy="0.0341223"/>
<feGaussianBlur stdDeviation="0.0383875"/>
<feComposite in2="hardAlpha" operator="out"/>
<feColorMatrix type="matrix" values="0 0 0 0 0 0 0 0 0 0 0 0 0 0 0 0 0 0 0.25 0"/>
<feBlend mode="normal" in2="BackgroundImageFix" result="effect1_dropShadow_212_708"/>
<feBlend mode="normal" in="SourceGraphic" in2="effect1_dropShadow_212_708" result="shape"/>
</filter>
<filter id="filter16_d_212_708" x="73.1756" y="152.099" width="10.8481" height="0.985368" filterUnits="userSpaceOnUse" color-interpolation-filters="sRGB">
<feFlood flood-opacity="0" result="BackgroundImageFix"/>
<feColorMatrix in="SourceAlpha" type="matrix" values="0 0 0 0 0 0 0 0 0 0 0 0 0 0 0 0 0 0 127 0" result="hardAlpha"/>
<feOffset dx="0.0255917" dy="0.0341223"/>
<feGaussianBlur stdDeviation="0.0383875"/>
<feComposite in2="hardAlpha" operator="out"/>
<feColorMatrix type="matrix" values="0 0 0 0 0 0 0 0 0 0 0 0 0 0 0 0 0 0 0.25 0"/>
<feBlend mode="normal" in2="BackgroundImageFix" result="effect1_dropShadow_212_708"/>
<feBlend mode="normal" in="SourceGraphic" in2="effect1_dropShadow_212_708" result="shape"/>
</filter>
<filter id="filter17_d_212_708" x="73.1756" y="154.238" width="10.8481" height="0.985337" filterUnits="userSpaceOnUse" color-interpolation-filters="sRGB">
<feFlood flood-opacity="0" result="BackgroundImageFix"/>
<feColorMatrix in="SourceAlpha" type="matrix" values="0 0 0 0 0 0 0 0 0 0 0 0 0 0 0 0 0 0 127 0" result="hardAlpha"/>
<feOffset dx="0.0255917" dy="0.0341223"/>
<feGaussianBlur stdDeviation="0.0383875"/>
<feComposite in2="hardAlpha" operator="out"/>
<feColorMatrix type="matrix" values="0 0 0 0 0 0 0 0 0 0 0 0 0 0 0 0 0 0 0.25 0"/>
<feBlend mode="normal" in2="BackgroundImageFix" result="effect1_dropShadow_212_708"/>
<feBlend mode="normal" in="SourceGraphic" in2="effect1_dropShadow_212_708" result="shape"/>
</filter>
<filter id="filter18_i_212_708" x="75.7027" y="142.708" width="8.21871" height="5.9876" filterUnits="userSpaceOnUse" color-interpolation-filters="sRGB">
<feFlood flood-opacity="0" result="BackgroundImageFix"/>
<feBlend mode="normal" in="SourceGraphic" in2="BackgroundImageFix" result="shape"/>
<feColorMatrix in="SourceAlpha" type="matrix" values="0 0 0 0 0 0 0 0 0 0 0 0 0 0 0 0 0 0 127 0" result="hardAlpha"/>
<feOffset dx="-2.63375" dy="-0.877916"/>
<feGaussianBlur stdDeviation="6.58437"/>
<feComposite in2="hardAlpha" operator="arithmetic" k2="-1" k3="1"/>
<feColorMatrix type="matrix" values="0 0 0 0 0 0 0 0 0 0 0 0 0 0 0 0 0 0 0.1 0"/>
<feBlend mode="normal" in2="shape" result="effect1_innerShadow_212_708"/>
</filter>
<filter id="filter19_d_212_708" x="80.7806" y="144.851" width="0.628892" height="2.17366" filterUnits="userSpaceOnUse" color-interpolation-filters="sRGB">
<feFlood flood-opacity="0" result="BackgroundImageFix"/>
<feColorMatrix in="SourceAlpha" type="matrix" values="0 0 0 0 0 0 0 0 0 0 0 0 0 0 0 0 0 0 127 0" result="hardAlpha"/>
<feOffset dx="0.0255917" dy="0.0341223"/>
<feGaussianBlur stdDeviation="0.0383875"/>
<feComposite in2="hardAlpha" operator="out"/>
<feColorMatrix type="matrix" values="0 0 0 0 0 0 0 0 0 0 0 0 0 0 0 0 0 0 0.25 0"/>
<feBlend mode="normal" in2="BackgroundImageFix" result="effect1_dropShadow_212_708"/>
<feBlend mode="normal" in="SourceGraphic" in2="effect1_dropShadow_212_708" result="shape"/>
</filter>
<filter id="filter20_d_212_708" x="80.6617" y="147.108" width="0.866441" height="0.866532" filterUnits="userSpaceOnUse" color-interpolation-filters="sRGB">
<feFlood flood-opacity="0" result="BackgroundImageFix"/>
<feColorMatrix in="SourceAlpha" type="matrix" values="0 0 0 0 0 0 0 0 0 0 0 0 0 0 0 0 0 0 127 0" result="hardAlpha"/>
<feOffset dx="0.0255917" dy="0.0341223"/>
<feGaussianBlur stdDeviation="0.0383875"/>
<feComposite in2="hardAlpha" operator="out"/>
<feColorMatrix type="matrix" values="0 0 0 0 0 0 0 0 0 0 0 0 0 0 0 0 0 0 0.25 0"/>
<feBlend mode="normal" in2="BackgroundImageFix" result="effect1_dropShadow_212_708"/>
<feBlend mode="normal" in="SourceGraphic" in2="effect1_dropShadow_212_708" result="shape"/>
</filter>
<filter id="filter21_i_212_708" x="88.358" y="136.767" width="15.1296" height="13.3738" filterUnits="userSpaceOnUse" color-interpolation-filters="sRGB">
<feFlood flood-opacity="0" result="BackgroundImageFix"/>
<feBlend mode="normal" in="SourceGraphic" in2="BackgroundImageFix" result="shape"/>
<feColorMatrix in="SourceAlpha" type="matrix" values="0 0 0 0 0 0 0 0 0 0 0 0 0 0 0 0 0 0 127 0" result="hardAlpha"/>
<feOffset dx="-2.63375" dy="-0.877916"/>
<feGaussianBlur stdDeviation="6.58437"/>
<feComposite in2="hardAlpha" operator="arithmetic" k2="-1" k3="1"/>
<feColorMatrix type="matrix" values="0 0 0 0 0 0 0 0 0 0 0 0 0 0 0 0 0 0 0.1 0"/>
<feBlend mode="normal" in2="shape" result="effect1_innerShadow_212_708"/>
</filter>
<filter id="filter22_i_212_708" x="90.6814" y="152.345" width="33.6326" height="1.96099" filterUnits="userSpaceOnUse" color-interpolation-filters="sRGB">
<feFlood flood-opacity="0" result="BackgroundImageFix"/>
<feBlend mode="normal" in="SourceGraphic" in2="BackgroundImageFix" result="shape"/>
<feColorMatrix in="SourceAlpha" type="matrix" values="0 0 0 0 0 0 0 0 0 0 0 0 0 0 0 0 0 0 127 0" result="hardAlpha"/>
<feOffset dx="-0.310341" dy="-0.399009"/>
<feGaussianBlur stdDeviation="0.665016"/>
<feComposite in2="hardAlpha" operator="arithmetic" k2="-1" k3="1"/>
<feColorMatrix type="matrix" values="0 0 0 0 0 0 0 0 0 0 0 0 0 0 0 0 0 0 0.1 0"/>
<feBlend mode="normal" in2="shape" result="effect1_innerShadow_212_708"/>
</filter>
<filter id="filter23_i_212_708" x="106.301" y="144.535" width="18.0127" height="1.96099" filterUnits="userSpaceOnUse" color-interpolation-filters="sRGB">
<feFlood flood-opacity="0" result="BackgroundImageFix"/>
<feBlend mode="normal" in="SourceGraphic" in2="BackgroundImageFix" result="shape"/>
<feColorMatrix in="SourceAlpha" type="matrix" values="0 0 0 0 0 0 0 0 0 0 0 0 0 0 0 0 0 0 127 0" result="hardAlpha"/>
<feOffset dx="-0.310341" dy="-0.399009"/>
<feGaussianBlur stdDeviation="0.665016"/>
<feComposite in2="hardAlpha" operator="arithmetic" k2="-1" k3="1"/>
<feColorMatrix type="matrix" values="0 0 0 0 0 0 0 0 0 0 0 0 0 0 0 0 0 0 0.1 0"/>
<feBlend mode="normal" in2="shape" result="effect1_innerShadow_212_708"/>
</filter>
<filter id="filter24_i_212_708" x="90.6814" y="155.989" width="33.6326" height="1.96102" filterUnits="userSpaceOnUse" color-interpolation-filters="sRGB">
<feFlood flood-opacity="0" result="BackgroundImageFix"/>
<feBlend mode="normal" in="SourceGraphic" in2="BackgroundImageFix" result="shape"/>
<feColorMatrix in="SourceAlpha" type="matrix" values="0 0 0 0 0 0 0 0 0 0 0 0 0 0 0 0 0 0 127 0" result="hardAlpha"/>
<feOffset dx="-0.310341" dy="-0.399009"/>
<feGaussianBlur stdDeviation="0.665016"/>
<feComposite in2="hardAlpha" operator="arithmetic" k2="-1" k3="1"/>
<feColorMatrix type="matrix" values="0 0 0 0 0 0 0 0 0 0 0 0 0 0 0 0 0 0 0.1 0"/>
<feBlend mode="normal" in2="shape" result="effect1_innerShadow_212_708"/>
</filter>
<filter id="filter25_i_212_708" x="106.301" y="148.18" width="18.0127" height="1.96099" filterUnits="userSpaceOnUse" color-interpolation-filters="sRGB">
<feFlood flood-opacity="0" result="BackgroundImageFix"/>
<feBlend mode="normal" in="SourceGraphic" in2="BackgroundImageFix" result="shape"/>
<feColorMatrix in="SourceAlpha" type="matrix" values="0 0 0 0 0 0 0 0 0 0 0 0 0 0 0 0 0 0 127 0" result="hardAlpha"/>
<feOffset dx="-0.310341" dy="-0.399009"/>
<feGaussianBlur stdDeviation="0.665016"/>
<feComposite in2="hardAlpha" operator="arithmetic" k2="-1" k3="1"/>
<feColorMatrix type="matrix" values="0 0 0 0 0 0 0 0 0 0 0 0 0 0 0 0 0 0 0.1 0"/>
<feBlend mode="normal" in2="shape" result="effect1_innerShadow_212_708"/>
</filter>
<filter id="filter26_i_212_708" x="159.497" y="92.0238" width="41.678" height="85.3314" filterUnits="userSpaceOnUse" color-interpolation-filters="sRGB">
<feFlood flood-opacity="0" result="BackgroundImageFix"/>
<feBlend mode="normal" in="SourceGraphic" in2="BackgroundImageFix" result="shape"/>
<feColorMatrix in="SourceAlpha" type="matrix" values="0 0 0 0 0 0 0 0 0 0 0 0 0 0 0 0 0 0 127 0" result="hardAlpha"/>
<feOffset dx="-2.66965" dy="-0.889885"/>
<feGaussianBlur stdDeviation="6.67414"/>
<feComposite in2="hardAlpha" operator="arithmetic" k2="-1" k3="1"/>
<feColorMatrix type="matrix" values="0 0 0 0 0 0 0 0 0 0 0 0 0 0 0 0 0 0 0.1 0"/>
<feBlend mode="normal" in2="shape" result="effect1_innerShadow_212_708"/>
</filter>
<filter id="filter27_i_212_708" x="158.685" y="40.2611" width="50.4518" height="56.101" filterUnits="userSpaceOnUse" color-interpolation-filters="sRGB">
<feFlood flood-opacity="0" result="BackgroundImageFix"/>
<feBlend mode="normal" in="SourceGraphic" in2="BackgroundImageFix" result="shape"/>
<feColorMatrix in="SourceAlpha" type="matrix" values="0 0 0 0 0 0 0 0 0 0 0 0 0 0 0 0 0 0 127 0" result="hardAlpha"/>
<feOffset dx="-0.314572" dy="-0.404449"/>
<feGaussianBlur stdDeviation="0.674082"/>
<feComposite in2="hardAlpha" operator="arithmetic" k2="-1" k3="1"/>
<feColorMatrix type="matrix" values="0 0 0 0 0 0 0 0 0 0 0 0 0 0 0 0 0 0 0.1 0"/>
<feBlend mode="normal" in2="shape" result="effect1_innerShadow_212_708"/>
</filter>
<filter id="filter28_i_212_708" x="25.3174" y="38.1224" width="104.683" height="86.1388" filterUnits="userSpaceOnUse" color-interpolation-filters="sRGB">
<feFlood flood-opacity="0" result="BackgroundImageFix"/>
<feBlend mode="normal" in="SourceGraphic" in2="BackgroundImageFix" result="shape"/>
<feColorMatrix in="SourceAlpha" type="matrix" values="0 0 0 0 0 0 0 0 0 0 0 0 0 0 0 0 0 0 127 0" result="hardAlpha"/>
<feOffset dx="-0.682565" dy="-0.877583"/>
<feGaussianBlur stdDeviation="1.46264"/>
<feComposite in2="hardAlpha" operator="arithmetic" k2="-1" k3="1"/>
<feColorMatrix type="matrix" values="0 0 0 0 0 0 0 0 0 0 0 0 0 0 0 0 0 0 0.1 0"/>
<feBlend mode="normal" in2="shape" result="effect1_innerShadow_212_708"/>
</filter>
<filter id="filter29_i_212_708" x="51.0218" y="48.3406" width="51.8917" height="46.7167" filterUnits="userSpaceOnUse" color-interpolation-filters="sRGB">
<feFlood flood-opacity="0" result="BackgroundImageFix"/>
<feBlend mode="normal" in="SourceGraphic" in2="BackgroundImageFix" result="shape"/>
<feColorMatrix in="SourceAlpha" type="matrix" values="0 0 0 0 0 0 0 0 0 0 0 0 0 0 0 0 0 0 127 0" result="hardAlpha"/>
<feOffset dx="-1.97815" dy="-0.659384"/>
<feGaussianBlur stdDeviation="4.94538"/>
<feComposite in2="hardAlpha" operator="arithmetic" k2="-1" k3="1"/>
<feColorMatrix type="matrix" values="0 0 0 0 0 0 0 0 0 0 0 0 0 0 0 0 0 0 0.1 0"/>
<feBlend mode="normal" in2="shape" result="effect1_innerShadow_212_708"/>
</filter>
<filter id="filter30_i_212_708" x="61.8429" y="53.3616" width="31.9286" height="38.3274" filterUnits="userSpaceOnUse" color-interpolation-filters="sRGB">
<feFlood flood-opacity="0" result="BackgroundImageFix"/>
<feBlend mode="normal" in="SourceGraphic" in2="BackgroundImageFix" result="shape"/>
<feColorMatrix in="SourceAlpha" type="matrix" values="0 0 0 0 0 0 0 0 0 0 0 0 0 0 0 0 0 0 127 0" result="hardAlpha"/>
<feOffset dx="-0.151526" dy="-0.19482"/>
<feGaussianBlur stdDeviation="0.324699"/>
<feComposite in2="hardAlpha" operator="arithmetic" k2="-1" k3="1"/>
<feColorMatrix type="matrix" values="0 0 0 0 0 0 0 0 0 0 0 0 0 0 0 0 0 0 0.1 0"/>
<feBlend mode="normal" in2="shape" result="effect1_innerShadow_212_708"/>
</filter>
<filter id="filter31_d_212_708" x="66.1864" y="58.6852" width="7.75867" height="2.28379" filterUnits="userSpaceOnUse" color-interpolation-filters="sRGB">
<feFlood flood-opacity="0" result="BackgroundImageFix"/>
<feColorMatrix in="SourceAlpha" type="matrix" values="0 0 0 0 0 0 0 0 0 0 0 0 0 0 0 0 0 0 127 0" result="hardAlpha"/>
<feOffset dx="0.0547494" dy="0.0729992"/>
<feGaussianBlur stdDeviation="0.0821241"/>
<feComposite in2="hardAlpha" operator="out"/>
<feColorMatrix type="matrix" values="0 0 0 0 0 0 0 0 0 0 0 0 0 0 0 0 0 0 0.25 0"/>
<feBlend mode="normal" in2="BackgroundImageFix" result="effect1_dropShadow_212_708"/>
<feBlend mode="normal" in="SourceGraphic" in2="effect1_dropShadow_212_708" result="shape"/>
</filter>
<filter id="filter32_d_212_708" x="66.1864" y="63.3779" width="7.75867" height="1.89274" filterUnits="userSpaceOnUse" color-interpolation-filters="sRGB">
<feFlood flood-opacity="0" result="BackgroundImageFix"/>
<feColorMatrix in="SourceAlpha" type="matrix" values="0 0 0 0 0 0 0 0 0 0 0 0 0 0 0 0 0 0 127 0" result="hardAlpha"/>
<feOffset dx="0.0547494" dy="0.0729992"/>
<feGaussianBlur stdDeviation="0.0821241"/>
<feComposite in2="hardAlpha" operator="out"/>
<feColorMatrix type="matrix" values="0 0 0 0 0 0 0 0 0 0 0 0 0 0 0 0 0 0 0.25 0"/>
<feBlend mode="normal" in2="BackgroundImageFix" result="effect1_dropShadow_212_708"/>
<feBlend mode="normal" in="SourceGraphic" in2="effect1_dropShadow_212_708" result="shape"/>
</filter>
<filter id="filter33_d_212_708" x="66.2064" y="67.8371" width="7.44666" height="2.10801" filterUnits="userSpaceOnUse" color-interpolation-filters="sRGB">
<feFlood flood-opacity="0" result="BackgroundImageFix"/>
<feColorMatrix in="SourceAlpha" type="matrix" values="0 0 0 0 0 0 0 0 0 0 0 0 0 0 0 0 0 0 127 0" result="hardAlpha"/>
<feOffset dx="0.0547494" dy="0.0729992"/>
<feGaussianBlur stdDeviation="0.0821241"/>
<feComposite in2="hardAlpha" operator="out"/>
<feColorMatrix type="matrix" values="0 0 0 0 0 0 0 0 0 0 0 0 0 0 0 0 0 0 0.25 0"/>
<feBlend mode="normal" in2="BackgroundImageFix" result="effect1_dropShadow_212_708"/>
<feBlend mode="normal" in="SourceGraphic" in2="effect1_dropShadow_212_708" result="shape"/>
</filter>
<filter id="filter34_d_212_708" x="66.2064" y="72.413" width="23.2081" height="2.10801" filterUnits="userSpaceOnUse" color-interpolation-filters="sRGB">
<feFlood flood-opacity="0" result="BackgroundImageFix"/>
<feColorMatrix in="SourceAlpha" type="matrix" values="0 0 0 0 0 0 0 0 0 0 0 0 0 0 0 0 0 0 127 0" result="hardAlpha"/>
<feOffset dx="0.0547494" dy="0.0729992"/>
<feGaussianBlur stdDeviation="0.0821241"/>
<feComposite in2="hardAlpha" operator="out"/>
<feColorMatrix type="matrix" values="0 0 0 0 0 0 0 0 0 0 0 0 0 0 0 0 0 0 0.25 0"/>
<feBlend mode="normal" in2="BackgroundImageFix" result="effect1_dropShadow_212_708"/>
<feBlend mode="normal" in="SourceGraphic" in2="effect1_dropShadow_212_708" result="shape"/>
</filter>
<filter id="filter35_d_212_708" x="66.2064" y="76.9889" width="23.2081" height="2.10801" filterUnits="userSpaceOnUse" color-interpolation-filters="sRGB">
<feFlood flood-opacity="0" result="BackgroundImageFix"/>
<feColorMatrix in="SourceAlpha" type="matrix" values="0 0 0 0 0 0 0 0 0 0 0 0 0 0 0 0 0 0 127 0" result="hardAlpha"/>
<feOffset dx="0.0547494" dy="0.0729992"/>
<feGaussianBlur stdDeviation="0.0821241"/>
<feComposite in2="hardAlpha" operator="out"/>
<feColorMatrix type="matrix" values="0 0 0 0 0 0 0 0 0 0 0 0 0 0 0 0 0 0 0.25 0"/>
<feBlend mode="normal" in2="BackgroundImageFix" result="effect1_dropShadow_212_708"/>
<feBlend mode="normal" in="SourceGraphic" in2="effect1_dropShadow_212_708" result="shape"/>
</filter>
<filter id="filter36_d_212_708" x="66.2064" y="81.5648" width="23.2081" height="2.10801" filterUnits="userSpaceOnUse" color-interpolation-filters="sRGB">
<feFlood flood-opacity="0" result="BackgroundImageFix"/>
<feColorMatrix in="SourceAlpha" type="matrix" values="0 0 0 0 0 0 0 0 0 0 0 0 0 0 0 0 0 0 127 0" result="hardAlpha"/>
<feOffset dx="0.0547494" dy="0.0729992"/>
<feGaussianBlur stdDeviation="0.0821241"/>
<feComposite in2="hardAlpha" operator="out"/>
<feColorMatrix type="matrix" values="0 0 0 0 0 0 0 0 0 0 0 0 0 0 0 0 0 0 0.25 0"/>
<feBlend mode="normal" in2="BackgroundImageFix" result="effect1_dropShadow_212_708"/>
<feBlend mode="normal" in="SourceGraphic" in2="effect1_dropShadow_212_708" result="shape"/>
</filter>
<filter id="filter37_i_212_708" x="51.0218" y="71.022" width="51.8917" height="24.2158" filterUnits="userSpaceOnUse" color-interpolation-filters="sRGB">
<feFlood flood-opacity="0" result="BackgroundImageFix"/>
<feBlend mode="normal" in="SourceGraphic" in2="BackgroundImageFix" result="shape"/>
<feColorMatrix in="SourceAlpha" type="matrix" values="0 0 0 0 0 0 0 0 0 0 0 0 0 0 0 0 0 0 127 0" result="hardAlpha"/>
<feOffset dx="-1.97815" dy="-0.659384"/>
<feGaussianBlur stdDeviation="4.94538"/>
<feComposite in2="hardAlpha" operator="arithmetic" k2="-1" k3="1"/>
<feColorMatrix type="matrix" values="0 0 0 0 0 0 0 0 0 0 0 0 0 0 0 0 0 0 0.1 0"/>
<feBlend mode="normal" in2="shape" result="effect1_innerShadow_212_708"/>
</filter>
<filter id="filter38_i_212_708" x="72.9415" y="57.3138" width="15.7853" height="11.5" filterUnits="userSpaceOnUse" color-interpolation-filters="sRGB">
<feFlood flood-opacity="0" result="BackgroundImageFix"/>
<feBlend mode="normal" in="SourceGraphic" in2="BackgroundImageFix" result="shape"/>
<feColorMatrix in="SourceAlpha" type="matrix" values="0 0 0 0 0 0 0 0 0 0 0 0 0 0 0 0 0 0 127 0" result="hardAlpha"/>
<feOffset dx="-5.05847" dy="-1.68616"/>
<feGaussianBlur stdDeviation="12.6462"/>
<feComposite in2="hardAlpha" operator="arithmetic" k2="-1" k3="1"/>
<feColorMatrix type="matrix" values="0 0 0 0 0 0 0 0 0 0 0 0 0 0 0 0 0 0 0.1 0"/>
<feBlend mode="normal" in2="shape" result="effect1_innerShadow_212_708"/>
</filter>
<filter id="filter39_d_212_708" x="82.6944" y="61.4286" width="1.20776" height="4.1748" filterUnits="userSpaceOnUse" color-interpolation-filters="sRGB">
<feFlood flood-opacity="0" result="BackgroundImageFix"/>
<feColorMatrix in="SourceAlpha" type="matrix" values="0 0 0 0 0 0 0 0 0 0 0 0 0 0 0 0 0 0 127 0" result="hardAlpha"/>
<feOffset dx="0.0491523" dy="0.0655364"/>
<feGaussianBlur stdDeviation="0.0737284"/>
<feComposite in2="hardAlpha" operator="out"/>
<feColorMatrix type="matrix" values="0 0 0 0 0 0 0 0 0 0 0 0 0 0 0 0 0 0 0.25 0"/>
<feBlend mode="normal" in2="BackgroundImageFix" result="effect1_dropShadow_212_708"/>
<feBlend mode="normal" in="SourceGraphic" in2="effect1_dropShadow_212_708" result="shape"/>
</filter>
<filter id="filter40_d_212_708" x="82.4661" y="65.765" width="1.6643" height="1.66427" filterUnits="userSpaceOnUse" color-interpolation-filters="sRGB">
<feFlood flood-opacity="0" result="BackgroundImageFix"/>
<feColorMatrix in="SourceAlpha" type="matrix" values="0 0 0 0 0 0 0 0 0 0 0 0 0 0 0 0 0 0 127 0" result="hardAlpha"/>
<feOffset dx="0.0491523" dy="0.0655364"/>
<feGaussianBlur stdDeviation="0.0737284"/>
<feComposite in2="hardAlpha" operator="out"/>
<feColorMatrix type="matrix" values="0 0 0 0 0 0 0 0 0 0 0 0 0 0 0 0 0 0 0.25 0"/>
<feBlend mode="normal" in2="BackgroundImageFix" result="effect1_dropShadow_212_708"/>
<feBlend mode="normal" in="SourceGraphic" in2="effect1_dropShadow_212_708" result="shape"/>
</filter>
<linearGradient id="paint0_linear_212_708" x1="159" y1="61.0423" x2="204.898" y2="80.4184" gradientUnits="userSpaceOnUse">
<stop stop-color="#FFC977"/>
<stop offset="1" stop-color="#FB9905"/>
</linearGradient>
</defs>
</svg>
