<svg width="209" height="226" viewBox="0 0 209 226" fill="none" xmlns="http://www.w3.org/2000/svg">
<path d="M140.745 224.397C141.056 221.749 138.409 218.492 137.046 217.194C133.672 215.767 126.923 213.768 126.923 217.194C126.923 221.866 140.355 227.706 140.745 224.397Z" fill="#1E0E00"/>
<path d="M98.1126 224.397V217.778L92.4672 216.61L79.0352 224.397H98.1126Z" fill="#1E0E00"/>
<path d="M138.67 216.47C136.023 219.585 128.223 218.547 124.654 217.638C121.929 204.336 116.4 176.447 116.089 171.308C115.777 166.168 108.302 142.821 104.603 131.79L97.5953 160.406C107.746 169.906 102.733 203.168 98.958 218.612C95.5189 218.806 88.5238 218.884 88.0566 217.638C82.2944 164.377 85.6557 111.869 88.0566 92.2725H126.211L128.547 153.398C134.777 161.185 137.892 198.691 138.67 216.47Z" fill="#7F60FC"/>
<path d="M58.7897 87.4058L85.4592 63.851V75.9204H144.054C141.523 68.9123 136.073 54.1176 134.515 51.0029C132.958 47.8882 116.736 40.3611 108.819 36.9869L103.174 40.6855L98.1126 38.5442C94.7383 39.9718 86.705 43.372 81.5658 45.5522C76.4266 47.7325 62.9426 67.6146 56.843 77.2831L58.7897 87.4058Z" fill="#F3E9DF"/>
<path d="M102.395 105.705L97.9177 94.9978L92.467 105.705L84.875 100.254V66.187L88.1843 42.4376L97.1391 38.9335V44.3842L101.811 57.8163L116.216 38.9335L134.905 49.4456C133.672 51.1976 130.894 55.2077 129.649 57.2323C128.403 59.2568 129.129 60.931 129.649 61.515L127.118 93.4405L102.395 105.705Z" fill="#FBBC05"/>
<path d="M109.883 32.3148L109.104 37.1815L104.043 40.4909L99.1764 37.9602V35.2348L97.8137 34.0668C93.4532 29.7063 93.5311 20.0508 94.1151 15.7681C93.3364 13.4321 95.0884 7.39737 96.0617 4.67202H110.272C111.57 5.96981 114.477 9.11045 115.723 11.2907C116.969 13.471 114.685 18.4285 113.387 20.6348C116.307 16.7414 116.891 19.6614 116.891 21.8028C116.891 23.5159 114.425 25.2419 113.193 25.8908C112.881 27.1367 110.856 30.6926 109.883 32.3148Z" fill="#FFBE9F"/>
<path d="M113.78 11.2702C115.805 13.2947 114.364 18.4729 113.391 20.8089C118.258 16.9155 118.258 14.1902 115.338 6.79282C112.418 -0.604554 99.7642 -0.215219 96.2601 0.174116C93.4569 0.485584 93.6646 4.71636 94.1188 6.79282C90.0697 10.8419 92.4316 14.5795 94.1188 15.9422C93.3401 14.9689 93.9241 12.0488 96.2601 8.93416C98.1289 6.44241 102.1 8.93415 103.852 10.4915C108.135 5.43013 111.25 8.73948 113.78 11.2702Z" fill="#553333"/>
<path d="M101.884 34.2615C99.5478 34.2615 96.7498 32.7042 96.3605 31.9255C96.036 33.7424 98.0683 37.1815 103.052 36.4029C109.748 35.3127 112.201 30.8873 112.591 28.8108C115.705 28.1879 115.705 25.4366 115.316 24.1388C113.914 25.2289 112.007 25.1121 111.228 24.9175C111.228 25.3068 111.15 26.6305 110.839 28.8108C110.527 30.9911 107.983 32.4446 106.751 32.8988V31.1468C106.102 32.1851 104.22 34.2615 101.884 34.2615Z" fill="#573533"/>
<path d="M65.0189 74.947C64.2402 77.7503 66.9655 83.772 68.3282 86.2378C52.7547 102.201 38.9983 83.3178 34.8453 74.947C36.9867 64.2403 34.9751 56.7781 33.4827 54.3123H40.296L41.6587 52.9496L51.3921 55.4803C53.8579 57.5567 59.6071 62.2547 62.8775 64.435C66.9655 67.1603 65.9922 71.443 65.0189 74.947Z" fill="#FBBC05"/>
<path d="M103.563 38.9335L109.5 35.5V42.5L103.563 40.4909L97.5 42.5V36.5L103.563 38.9335Z" fill="#947CF6"/>
<path d="M33.245 54.1176C36 58.5 38.1895 70.6254 29.9356 92.2725C26.756 103.953 20.8252 127.858 22.5382 130.038C24.6796 132.763 27.4049 136.073 27.0156 137.435C26.7041 138.526 23.5116 135.424 21.9542 133.737C20.0076 136.332 15.9974 141.562 15.5302 141.718C15.063 141.874 16.244 137.241 16.8929 134.905C16.1142 137.37 14.2844 142.419 13.1942 142.886C12.6261 143.13 12.9497 141.445 13.5644 139.298C12.9119 140.999 12.2654 142.352 11.8316 142.497C10.8972 142.808 11.4423 138.863 11.8316 136.851C11.6369 137.63 10.8583 139.304 9.30092 139.771C7.35425 140.355 14.1676 129.843 16.1143 128.87C14.9463 118.617 14.2065 96.633 20.5916 90.7151C20.2451 91.0593 21.3701 54.1176 33.245 54.1176Z" fill="#F8B494"/>
<path d="M68.7177 59.3736C62.9555 55.7918 54.8093 55.3053 51.5 55.5L64.5 66L68.7177 59.3736Z" fill="#F8B496"/>
<path d="M49.4457 46.5256C48.9785 48.2386 51.3275 56.5834 51.9764 58.7896L47.499 58.011L42.0483 54.8963L39.323 41.2695L49.4457 46.5256Z" fill="#EF9973"/>
<path d="M58.8256 42.4544C56.6453 45.5691 46.3668 43.7522 41.5002 42.4544C41.0459 44.5958 39.1641 51.1756 35.2708 60.3639C30.4041 71.8493 14.4413 88.98 3.53996 72.8226C-7.36143 56.6652 9.57466 47.7105 18.5294 44.9851C27.4841 42.2598 30.4041 29.9957 34.4921 24.545C41.3444 16.4468 48.1189 21.1708 50.6495 24.545C59.7989 22.9877 61.5509 38.5611 58.8256 42.4544Z" fill="#785452"/>
<path d="M50.0125 51.3179C48.6109 53.1867 46.7032 53.005 45.9245 52.6806C37.982 51.7462 34.3093 46.0619 33.4658 43.3366C31.8435 43.5312 28.9495 42.7525 30.3511 38.0805C31.7527 33.4085 33.2711 36.5232 33.8551 38.6645C39.4615 24.1812 45.7947 26.7898 48.2605 29.9045C53.0883 25.6996 55.0739 31.6565 55.4632 35.1605C54.6845 35.8743 53.1661 38.1973 53.3219 41.7792C53.5165 46.2566 51.7645 48.9819 50.0125 51.3179Z" fill="#FFBE9F"/>
<path d="M38.739 29.6123C42.6323 25.2518 46.7203 27.9252 48.2777 29.807C53.1444 26.1083 54.7017 31.1696 55.4804 35.063C56.259 38.9563 58.595 44.407 59.9577 38.1777C60.7364 26.8091 54.1826 24.3563 50.8083 24.5509C50.1594 23.6425 47.7326 21.4752 43.2163 20.0736C37.5709 18.3216 31.7309 27.6656 29.9789 29.807C28.2269 31.9484 33.8723 35.063 38.739 29.6123Z" fill="#644543"/>
<path d="M55.8697 92.4671C51.7817 87.9898 52.2971 83.9018 53.1444 82.3444C48.2776 86.0431 50.0983 94.4138 55.3543 96.5552C59.5591 98.2682 56.9728 94.6085 55.8697 92.4671Z" fill="#F3E9DF"/>
<path d="M63.4128 118.358C49.7082 116.489 52.9008 100.059 56.2101 92.0778C85.3324 77.5945 111.171 71.1186 120.45 69.691L190.92 83.5124C189.947 88.5738 185.703 103.836 176.515 124.393C167.326 144.95 142.448 145.417 131.157 143.081C119.321 130.778 107.927 104.991 103.709 93.6351C95.9872 102.655 77.1174 120.227 63.4128 118.358Z" fill="#947CF7"/>
<path d="M114.478 92.7732C118.372 99.3919 132.427 114.303 157.5 121C145.69 121.973 120.552 117.691 114.478 92.7732Z" fill="#A494E4"/>
<path d="M59.0405 88.5937C58.4176 90.4625 56.5747 91.8381 55.7311 92.2923C51.6821 87.6203 52.3569 83.8567 53.2005 82.559C52.876 81.5856 52.6164 78.7435 54.1738 75.1616C55.7311 71.5797 55.9907 73.0202 55.9258 74.1882C55.7311 75.9402 55.4197 79.2106 55.7311 78.2762C56.1205 77.1082 61.5712 71.6576 62.5445 72.0469C63.3232 72.3584 60.2734 76.3296 58.6512 78.2762C60.7925 76.3945 65.1141 72.9813 65.2699 74.3829C65.4139 75.6788 62.5734 78.295 60.8107 79.708C61.3116 79.397 62.3125 78.9078 64.1019 78.2762C66.7493 77.3418 66.1134 78.6656 65.4645 79.4442C63.3232 80.9367 59.3909 83.7659 60.7925 83.143C65.4645 80.6512 66.5028 81.4558 66.4379 82.1696C64.2316 83.5323 59.6634 86.7248 59.0405 88.5937Z" fill="#FFBE9F"/>
<path d="M189.217 83.1231C182.676 110.844 147.947 134.386 131.595 143.081C177.342 152.23 190.45 107.132 192.332 83.7071L189.217 83.1231Z" fill="#C0B3F7"/>
<path d="M190.774 92.8565L186.297 91.8831L189.217 83.1231L193.694 83.9018C193.383 86.5492 191.748 91.2991 190.774 92.8565Z" fill="#FFBE9F"/>
<path d="M193.5 84.0964C193.5 87.5226 190.45 91.4289 189.217 92.4671C189.217 92.5969 190.151 92.869 192.332 93.6477C197.588 95.0103 211.409 74.9596 208.294 75.5436C205.18 76.1276 193.5 83.7071 193.5 84.0964Z" fill="#F3E9DF"/>
<path d="M185.208 103.084L180.945 101.404L185.234 93.2269L189.529 94.7145C188.796 97.2776 186.419 101.703 185.208 103.084Z" fill="#FFBE9F"/>
<path d="M189.305 94.8754C188.755 98.2571 185.15 101.763 183.766 102.59C183.745 102.718 184.591 102.996 186.618 104.115C191.587 106.304 208.449 88.7334 205.281 88.8096C202.113 88.8858 189.368 94.4911 189.305 94.8754Z" fill="#F3E9DF"/>
<rect x="101" y="38" width="5" height="3" rx="1" fill="#7959FF"/>
</svg>
