<svg width="266" height="266" viewBox="0 0 266 266" fill="none" xmlns="http://www.w3.org/2000/svg">
<g filter="url(#filter0_i_48_1277)">
<path d="M260 60.5C260 71.2696 251.27 80 240.5 80C238.221 80 236.033 79.609 234 78.8904C232.935 78.5139 225.816 82 224.5 82.5C225.5 81 228.913 76.2306 228 75.4672C223.722 71.8902 221 66.5129 221 60.5C221 49.7304 229.73 41 240.5 41C251.27 41 260 49.7304 260 60.5Z" fill="#8061FF"/>
</g>
<g filter="url(#filter1_i_48_1277)">
<circle cx="18" cy="51" r="12" fill="#8061FF"/>
</g>
<g filter="url(#filter2_i_48_1277)">
<circle cx="245" cy="192" r="12" fill="#8061FF"/>
</g>
<g filter="url(#filter3_i_48_1277)">
<circle cx="25" cy="184" r="7" fill="#FBBC05"/>
</g>
<rect x="63" y="42" width="78" height="173" fill="white"/>
<circle cx="76" cy="202" r="11" fill="#C4C4C4" fill-opacity="0.22"/>
<g filter="url(#filter4_i_48_1277)">
<path fill-rule="evenodd" clip-rule="evenodd" d="M59 66C59 52.8007 59 46.201 63.1005 42.1005C67.201 38 73.8007 38 87 38H118C131.199 38 137.799 38 141.899 42.1005C146 46.201 146 52.8007 146 66V190C146 203.199 146 209.799 141.899 213.899C137.799 218 131.199 218 118 218H87C73.8007 218 67.201 218 63.1005 213.899C59 209.799 59 203.199 59 190V66ZM65 71C65 57.8007 65 51.201 69.1005 47.1005C73.201 43 79.8007 43 93 43H94.126C94.0438 43.3196 94 43.6547 94 44C94 46.2091 95.7909 48 98 48H111C113.209 48 115 46.2091 115 44C115 43.6553 114.956 43.3208 114.874 43.0018C126.18 43.0233 132.108 43.3091 135.899 47.1005C140 51.201 140 57.8007 140 71V185C140 198.199 140 204.799 135.899 208.899C131.799 213 125.199 213 112 213H93C79.8007 213 73.201 213 69.1005 208.899C65 204.799 65 198.199 65 185V71Z" fill="#8061FF"/>
</g>
<path d="M102 65.5C102 65.2239 102.224 65 102.5 65H107.5C107.776 65 108 65.2239 108 65.5V69.5C108 69.7761 107.776 70 107.5 70H102.5C102.224 70 102 69.7761 102 69.5V65.5Z" fill="#3F3D56"/>
<path d="M106.769 65C106.897 65 107.001 64.8963 106.987 64.7696C106.935 64.324 106.735 63.9061 106.414 63.5858C106.039 63.2107 105.53 63 105 63C104.47 63 103.961 63.2107 103.586 63.5858C103.265 63.9061 103.065 64.324 103.013 64.7696C102.999 64.8963 103.103 65 103.231 65V65C103.358 65 103.46 64.896 103.479 64.7699C103.528 64.4471 103.679 64.146 103.912 63.9124C104.201 63.6239 104.592 63.4619 105 63.4619C105.408 63.4619 105.799 63.6239 106.088 63.9124C106.321 64.146 106.472 64.4471 106.521 64.7699C106.54 64.896 106.642 65 106.769 65V65Z" fill="#3F3D56"/>
<circle cx="84.5" cy="66.5" r="11.5" fill="#C4C4C4" fill-opacity="0.22"/>
<path d="M140 74C134.696 74 129.609 76.1071 125.858 79.8579C122.107 83.6086 120 88.6957 120 94C120 99.3043 122.107 104.391 125.858 108.142C129.609 111.893 134.696 114 140 114L140 94L140 74Z" fill="#C4C4C4" fill-opacity="0.22"/>
<g opacity="0.5">
<g filter="url(#filter5_i_48_1277)">
<rect x="72" y="172" width="63" height="28.1157" rx="4.68595" fill="white"/>
</g>
<rect x="72.2603" y="172.26" width="62.4793" height="27.595" rx="4.42562" stroke="#FBBC05" stroke-width="0.520661"/>
<g filter="url(#filter6_i_48_1277)">
<rect x="77.2065" y="178.14" width="14.8537" height="17.8244" rx="1.42595" fill="#FBBC05"/>
</g>
<g filter="url(#filter7_i_48_1277)">
<path fill-rule="evenodd" clip-rule="evenodd" d="M84.9901 176.001C84.6948 176.001 84.4554 176.241 84.4554 176.536C84.4554 176.831 84.6948 177.071 84.9901 177.071C85.2854 177.071 85.5248 176.831 85.5248 176.536C85.5248 176.241 85.2854 176.001 84.9901 176.001ZM84.0989 176.536C84.0989 176.044 84.4979 175.645 84.9901 175.645C85.4823 175.645 85.8813 176.044 85.8813 176.536C85.8813 177.028 85.4823 177.427 84.9901 177.427C84.4979 177.427 84.0989 177.028 84.0989 176.536Z" fill="#8061FF"/>
</g>
<g filter="url(#filter8_i_48_1277)">
<rect x="81.9597" y="177.071" width="5.94148" height="2.61425" rx="0.712977" fill="#8061FF"/>
</g>
<g filter="url(#filter9_d_48_1277)">
<rect x="79.2268" y="181.586" width="5.82265" height="0.831807" rx="0.415904" fill="white"/>
</g>
<g filter="url(#filter10_d_48_1277)">
<rect x="79.2268" y="183.725" width="4.51552" height="0.831807" rx="0.415904" fill="white"/>
</g>
<g filter="url(#filter11_d_48_1277)">
<rect x="79.2268" y="185.864" width="3.32723" height="0.831807" rx="0.415904" fill="white"/>
</g>
<g filter="url(#filter12_d_48_1277)">
<rect x="79.2268" y="188.003" width="10.6947" height="0.831807" rx="0.415904" fill="white"/>
</g>
<g filter="url(#filter13_d_48_1277)">
<rect x="79.2268" y="190.142" width="10.6947" height="0.831807" rx="0.415904" fill="white"/>
</g>
<g filter="url(#filter14_d_48_1277)">
<rect x="79.2268" y="192.281" width="10.6947" height="0.831807" rx="0.415904" fill="white"/>
</g>
<g filter="url(#filter15_i_48_1277)">
<path d="M85.8482 183.073C86.4174 182.082 86.702 181.586 87.1289 181.586C87.5558 181.586 87.8405 182.082 88.4097 183.073L89.2102 184.466C89.7794 185.457 90.064 185.953 89.8505 186.324C89.6371 186.696 89.0679 186.696 87.9294 186.696H86.3284C85.19 186.696 84.6208 186.696 84.4073 186.324C84.1938 185.953 84.4785 185.457 85.0477 184.466L85.8482 183.073Z" fill="#8061FF"/>
</g>
<g filter="url(#filter16_d_48_1277)">
<rect x="86.8318" y="182.893" width="0.475318" height="2.0201" rx="0.237659" fill="white"/>
</g>
<g filter="url(#filter17_d_48_1277)">
<rect x="86.7129" y="185.151" width="0.712977" height="0.712977" rx="0.356489" fill="white"/>
</g>
<g filter="url(#filter18_i_48_1277)">
<rect x="96.9917" y="175.645" width="12.4959" height="12.4959" rx="2.08264" fill="#8061FF"/>
</g>
<g filter="url(#filter19_i_48_1277)">
<rect x="96.9917" y="190.744" width="33.3223" height="1.56198" rx="0.780992" fill="#FBBC05"/>
</g>
<g filter="url(#filter20_i_48_1277)">
<rect x="112.612" y="182.934" width="17.7025" height="1.56198" rx="0.780992" fill="#FBBC05"/>
</g>
<g filter="url(#filter21_i_48_1277)">
<rect x="96.9917" y="194.388" width="33.3223" height="1.56198" rx="0.780992" fill="#FBBC05"/>
</g>
<g filter="url(#filter22_i_48_1277)">
<rect x="112.612" y="186.579" width="17.7025" height="1.56198" rx="0.780992" fill="#FBBC05"/>
</g>
</g>
<g filter="url(#filter23_i_48_1277)">
<path d="M177.402 215.355H168.166L174.235 130.914H206.693C209.015 133.236 202.383 186.416 198.776 212.716H189.013L190.332 146.219C188.221 151.074 180.832 194.333 177.402 215.355Z" fill="#8061FF"/>
</g>
<g filter="url(#filter24_i_48_1277)">
<path d="M192.443 134.344C202.788 134.555 206.781 132.849 207.485 131.969L206.693 99.7759C209.492 99.4296 215.099 98.7864 215.137 98.9843C212.182 83.3626 202.295 78.9294 197.721 78.6656C197.457 79.809 195.979 82.096 192.18 82.096C188.38 82.096 186.022 79.809 185.319 78.6656C184.703 78.8415 181.888 79.8794 175.555 82.6238C169.222 85.3681 165.88 97.6649 165 103.47L176.347 105.845L173.708 134.344C175.643 134.256 182.099 134.133 192.443 134.344Z" fill="#FBBC05"/>
</g>
<mask id="mask0_48_1277" style="mask-type:alpha" maskUnits="userSpaceOnUse" x="165" y="78" width="51" height="57">
<path d="M192.443 134.344C202.788 134.555 206.781 132.849 207.485 131.969L206.693 99.7759C209.492 99.4296 215.099 98.7864 215.137 98.9843C212.182 83.3626 202.295 78.9294 197.721 78.6656C197.457 79.809 195.979 82.096 192.18 82.096C188.38 82.096 186.022 79.809 185.319 78.6656C184.703 78.8415 181.888 79.8794 175.555 82.6238C169.222 85.3681 165.88 97.6649 165 103.47L176.347 105.845L173.708 134.344C175.643 134.256 182.099 134.133 192.443 134.344Z" fill="url(#paint0_linear_48_1277)"/>
</mask>
<g mask="url(#mask0_48_1277)">
<path fill-rule="evenodd" clip-rule="evenodd" d="M166.152 108.218C166.281 108.073 166.49 108.073 166.619 108.218L167.938 109.711C168.067 109.857 168.067 110.093 167.938 110.239C167.809 110.385 167.6 110.385 167.472 110.239L166.152 108.746C166.023 108.6 166.023 108.364 166.152 108.218Z" fill="black" fill-opacity="0.08"/>
<path fill-rule="evenodd" clip-rule="evenodd" d="M166.152 113.07C166.281 112.925 166.49 112.925 166.619 113.07L167.938 114.563C168.067 114.709 168.067 114.945 167.938 115.091C167.809 115.237 167.6 115.237 167.472 115.091L166.152 113.598C166.023 113.452 166.023 113.216 166.152 113.07Z" fill="black" fill-opacity="0.08"/>
<path fill-rule="evenodd" clip-rule="evenodd" d="M166.152 117.922C166.281 117.776 166.49 117.776 166.619 117.922L167.938 119.415C168.067 119.561 168.067 119.797 167.938 119.943C167.809 120.089 167.6 120.089 167.472 119.943L166.152 118.45C166.023 118.304 166.023 118.068 166.152 117.922Z" fill="black" fill-opacity="0.08"/>
<path fill-rule="evenodd" clip-rule="evenodd" d="M166.152 122.774C166.281 122.628 166.49 122.628 166.619 122.774L167.938 124.267C168.067 124.413 168.067 124.649 167.938 124.795C167.809 124.941 167.6 124.941 167.472 124.795L166.152 123.302C166.023 123.156 166.023 122.92 166.152 122.774Z" fill="black" fill-opacity="0.08"/>
<path fill-rule="evenodd" clip-rule="evenodd" d="M166.152 127.626C166.281 127.48 166.49 127.48 166.619 127.626L167.938 129.119C168.067 129.265 168.067 129.501 167.938 129.647C167.809 129.793 167.6 129.793 167.472 129.647L166.152 128.154C166.023 128.008 166.023 127.772 166.152 127.626Z" fill="black" fill-opacity="0.08"/>
<path fill-rule="evenodd" clip-rule="evenodd" d="M166.152 132.478C166.281 132.332 166.49 132.332 166.619 132.478L167.938 133.971C168.067 134.117 168.067 134.353 167.938 134.499C167.809 134.645 167.6 134.645 167.472 134.499L166.152 133.006C166.023 132.86 166.023 132.624 166.152 132.478Z" fill="black" fill-opacity="0.08"/>
<path fill-rule="evenodd" clip-rule="evenodd" d="M175.388 108.218C175.517 108.073 175.726 108.073 175.855 108.218L177.174 109.711C177.303 109.857 177.303 110.093 177.174 110.239C177.045 110.385 176.836 110.385 176.707 110.239L175.388 108.746C175.259 108.6 175.259 108.364 175.388 108.218Z" fill="black" fill-opacity="0.08"/>
<path fill-rule="evenodd" clip-rule="evenodd" d="M175.388 113.07C175.517 112.925 175.726 112.925 175.855 113.07L177.174 114.563C177.303 114.709 177.303 114.945 177.174 115.091C177.045 115.237 176.836 115.237 176.707 115.091L175.388 113.598C175.259 113.452 175.259 113.216 175.388 113.07Z" fill="black" fill-opacity="0.08"/>
<path fill-rule="evenodd" clip-rule="evenodd" d="M175.388 117.922C175.517 117.776 175.726 117.776 175.855 117.922L177.174 119.415C177.303 119.561 177.303 119.797 177.174 119.943C177.045 120.089 176.836 120.089 176.707 119.943L175.388 118.45C175.259 118.304 175.259 118.068 175.388 117.922Z" fill="black" fill-opacity="0.08"/>
<path fill-rule="evenodd" clip-rule="evenodd" d="M175.388 122.774C175.517 122.628 175.726 122.628 175.855 122.774L177.174 124.267C177.303 124.413 177.303 124.649 177.174 124.795C177.045 124.941 176.836 124.941 176.707 124.795L175.388 123.302C175.259 123.156 175.259 122.92 175.388 122.774Z" fill="black" fill-opacity="0.08"/>
<path fill-rule="evenodd" clip-rule="evenodd" d="M175.388 127.626C175.517 127.48 175.726 127.48 175.855 127.626L177.174 129.119C177.303 129.265 177.303 129.501 177.174 129.647C177.045 129.793 176.836 129.793 176.707 129.647L175.388 128.154C175.259 128.008 175.259 127.772 175.388 127.626Z" fill="black" fill-opacity="0.08"/>
<path fill-rule="evenodd" clip-rule="evenodd" d="M175.388 132.478C175.517 132.332 175.726 132.332 175.855 132.478L177.174 133.971C177.303 134.117 177.303 134.353 177.174 134.499C177.045 134.645 176.836 134.645 176.707 134.499L175.388 133.006C175.259 132.86 175.259 132.624 175.388 132.478Z" fill="black" fill-opacity="0.08"/>
<path fill-rule="evenodd" clip-rule="evenodd" d="M184.624 108.218C184.753 108.073 184.962 108.073 185.09 108.218L186.41 109.711C186.539 109.857 186.539 110.093 186.41 110.239C186.281 110.385 186.072 110.385 185.943 110.239L184.624 108.746C184.495 108.6 184.495 108.364 184.624 108.218Z" fill="black" fill-opacity="0.08"/>
<path fill-rule="evenodd" clip-rule="evenodd" d="M184.624 113.07C184.753 112.925 184.962 112.925 185.09 113.07L186.41 114.563C186.539 114.709 186.539 114.945 186.41 115.091C186.281 115.237 186.072 115.237 185.943 115.091L184.624 113.598C184.495 113.452 184.495 113.216 184.624 113.07Z" fill="black" fill-opacity="0.08"/>
<path fill-rule="evenodd" clip-rule="evenodd" d="M184.624 117.922C184.753 117.776 184.962 117.776 185.09 117.922L186.41 119.415C186.539 119.561 186.539 119.797 186.41 119.943C186.281 120.089 186.072 120.089 185.943 119.943L184.624 118.45C184.495 118.304 184.495 118.068 184.624 117.922Z" fill="black" fill-opacity="0.08"/>
<path fill-rule="evenodd" clip-rule="evenodd" d="M184.624 122.774C184.753 122.628 184.962 122.628 185.09 122.774L186.41 124.267C186.539 124.413 186.539 124.649 186.41 124.795C186.281 124.941 186.072 124.941 185.943 124.795L184.624 123.302C184.495 123.156 184.495 122.92 184.624 122.774Z" fill="black" fill-opacity="0.08"/>
<path fill-rule="evenodd" clip-rule="evenodd" d="M184.624 127.626C184.753 127.48 184.962 127.48 185.09 127.626L186.41 129.119C186.539 129.265 186.539 129.501 186.41 129.647C186.281 129.793 186.072 129.793 185.943 129.647L184.624 128.154C184.495 128.008 184.495 127.772 184.624 127.626Z" fill="black" fill-opacity="0.08"/>
<path fill-rule="evenodd" clip-rule="evenodd" d="M184.624 132.478C184.753 132.332 184.962 132.332 185.09 132.478L186.41 133.971C186.539 134.117 186.539 134.353 186.41 134.499C186.281 134.645 186.072 134.645 185.943 134.499L184.624 133.006C184.495 132.86 184.495 132.624 184.624 132.478Z" fill="black" fill-opacity="0.08"/>
<path fill-rule="evenodd" clip-rule="evenodd" d="M172.556 108.218C172.427 108.073 172.218 108.073 172.09 108.218L170.77 109.711C170.641 109.857 170.641 110.093 170.77 110.239C170.899 110.385 171.108 110.385 171.237 110.239L172.556 108.746C172.685 108.6 172.685 108.364 172.556 108.218Z" fill="black" fill-opacity="0.08"/>
<path fill-rule="evenodd" clip-rule="evenodd" d="M172.556 113.07C172.427 112.925 172.218 112.925 172.09 113.07L170.77 114.563C170.641 114.709 170.641 114.945 170.77 115.091C170.899 115.237 171.108 115.237 171.237 115.091L172.556 113.598C172.685 113.452 172.685 113.216 172.556 113.07Z" fill="black" fill-opacity="0.08"/>
<path fill-rule="evenodd" clip-rule="evenodd" d="M172.556 117.922C172.427 117.776 172.218 117.776 172.09 117.922L170.77 119.415C170.641 119.561 170.641 119.797 170.77 119.943C170.899 120.089 171.108 120.089 171.237 119.943L172.556 118.45C172.685 118.304 172.685 118.068 172.556 117.922Z" fill="black" fill-opacity="0.08"/>
<path fill-rule="evenodd" clip-rule="evenodd" d="M172.556 122.774C172.427 122.628 172.218 122.628 172.09 122.774L170.77 124.267C170.641 124.413 170.641 124.649 170.77 124.795C170.899 124.941 171.108 124.941 171.237 124.795L172.556 123.302C172.685 123.156 172.685 122.92 172.556 122.774Z" fill="black" fill-opacity="0.08"/>
<path fill-rule="evenodd" clip-rule="evenodd" d="M172.556 127.626C172.427 127.48 172.218 127.48 172.09 127.626L170.77 129.119C170.641 129.265 170.641 129.501 170.77 129.647C170.899 129.793 171.108 129.793 171.237 129.647L172.556 128.154C172.685 128.008 172.685 127.772 172.556 127.626Z" fill="black" fill-opacity="0.08"/>
<path fill-rule="evenodd" clip-rule="evenodd" d="M172.556 132.478C172.427 132.332 172.218 132.332 172.09 132.478L170.77 133.971C170.641 134.117 170.641 134.353 170.77 134.499C170.899 134.645 171.108 134.645 171.237 134.499L172.556 133.006C172.685 132.86 172.685 132.624 172.556 132.478Z" fill="black" fill-opacity="0.08"/>
<path fill-rule="evenodd" clip-rule="evenodd" d="M181.792 108.218C181.663 108.073 181.454 108.073 181.325 108.218L180.006 109.711C179.877 109.857 179.877 110.093 180.006 110.239C180.135 110.385 180.344 110.385 180.472 110.239L181.792 108.746C181.921 108.6 181.921 108.364 181.792 108.218Z" fill="black" fill-opacity="0.08"/>
<path fill-rule="evenodd" clip-rule="evenodd" d="M181.792 113.07C181.663 112.925 181.454 112.925 181.325 113.07L180.006 114.563C179.877 114.709 179.877 114.945 180.006 115.091C180.135 115.237 180.344 115.237 180.472 115.091L181.792 113.598C181.921 113.452 181.921 113.216 181.792 113.07Z" fill="black" fill-opacity="0.08"/>
<path fill-rule="evenodd" clip-rule="evenodd" d="M181.792 117.922C181.663 117.776 181.454 117.776 181.325 117.922L180.006 119.415C179.877 119.561 179.877 119.797 180.006 119.943C180.135 120.089 180.344 120.089 180.472 119.943L181.792 118.45C181.921 118.304 181.921 118.068 181.792 117.922Z" fill="black" fill-opacity="0.08"/>
<path fill-rule="evenodd" clip-rule="evenodd" d="M181.792 122.774C181.663 122.628 181.454 122.628 181.325 122.774L180.006 124.267C179.877 124.413 179.877 124.649 180.006 124.795C180.135 124.941 180.344 124.941 180.472 124.795L181.792 123.302C181.921 123.156 181.921 122.92 181.792 122.774Z" fill="black" fill-opacity="0.08"/>
<path fill-rule="evenodd" clip-rule="evenodd" d="M181.792 127.626C181.663 127.48 181.454 127.48 181.325 127.626L180.006 129.119C179.877 129.265 179.877 129.501 180.006 129.647C180.135 129.793 180.344 129.793 180.472 129.647L181.792 128.154C181.921 128.008 181.921 127.772 181.792 127.626Z" fill="black" fill-opacity="0.08"/>
<path fill-rule="evenodd" clip-rule="evenodd" d="M181.792 132.478C181.663 132.332 181.454 132.332 181.325 132.478L180.006 133.971C179.877 134.117 179.877 134.353 180.006 134.499C180.135 134.645 180.344 134.645 180.472 134.499L181.792 133.006C181.921 132.86 181.921 132.624 181.792 132.478Z" fill="black" fill-opacity="0.08"/>
<path fill-rule="evenodd" clip-rule="evenodd" d="M191.028 108.218C190.899 108.073 190.69 108.073 190.561 108.218L189.242 109.711C189.113 109.857 189.113 110.093 189.242 110.239C189.371 110.385 189.579 110.385 189.708 110.239L191.028 108.746C191.156 108.6 191.156 108.364 191.028 108.218Z" fill="black" fill-opacity="0.08"/>
<path fill-rule="evenodd" clip-rule="evenodd" d="M191.028 113.07C190.899 112.925 190.69 112.925 190.561 113.07L189.242 114.563C189.113 114.709 189.113 114.945 189.242 115.091C189.371 115.237 189.579 115.237 189.708 115.091L191.028 113.598C191.156 113.452 191.156 113.216 191.028 113.07Z" fill="black" fill-opacity="0.08"/>
<path fill-rule="evenodd" clip-rule="evenodd" d="M191.028 117.922C190.899 117.776 190.69 117.776 190.561 117.922L189.242 119.415C189.113 119.561 189.113 119.797 189.242 119.943C189.371 120.089 189.579 120.089 189.708 119.943L191.028 118.45C191.156 118.304 191.156 118.068 191.028 117.922Z" fill="black" fill-opacity="0.08"/>
<path fill-rule="evenodd" clip-rule="evenodd" d="M191.028 122.774C190.899 122.628 190.69 122.628 190.561 122.774L189.242 124.267C189.113 124.413 189.113 124.649 189.242 124.795C189.371 124.941 189.579 124.941 189.708 124.795L191.028 123.302C191.156 123.156 191.156 122.92 191.028 122.774Z" fill="black" fill-opacity="0.08"/>
<path fill-rule="evenodd" clip-rule="evenodd" d="M191.028 127.626C190.899 127.48 190.69 127.48 190.561 127.626L189.242 129.119C189.113 129.265 189.113 129.501 189.242 129.647C189.371 129.793 189.579 129.793 189.708 129.647L191.028 128.154C191.156 128.008 191.156 127.772 191.028 127.626Z" fill="black" fill-opacity="0.08"/>
<path fill-rule="evenodd" clip-rule="evenodd" d="M191.028 132.478C190.899 132.332 190.69 132.332 190.561 132.478L189.242 133.971C189.113 134.117 189.113 134.353 189.242 134.499C189.371 134.645 189.579 134.645 189.708 134.499L191.028 133.006C191.156 132.86 191.156 132.624 191.028 132.478Z" fill="black" fill-opacity="0.08"/>
<path fill-rule="evenodd" clip-rule="evenodd" d="M193.86 108.218C193.988 108.073 194.197 108.073 194.326 108.218L195.645 109.711C195.774 109.857 195.774 110.093 195.645 110.239C195.517 110.385 195.308 110.385 195.179 110.239L193.86 108.746C193.731 108.6 193.731 108.364 193.86 108.218Z" fill="black" fill-opacity="0.08"/>
<path fill-rule="evenodd" clip-rule="evenodd" d="M193.86 113.07C193.988 112.925 194.197 112.925 194.326 113.07L195.645 114.563C195.774 114.709 195.774 114.945 195.645 115.091C195.517 115.237 195.308 115.237 195.179 115.091L193.86 113.598C193.731 113.452 193.731 113.216 193.86 113.07Z" fill="black" fill-opacity="0.08"/>
<path fill-rule="evenodd" clip-rule="evenodd" d="M193.86 117.922C193.988 117.776 194.197 117.776 194.326 117.922L195.645 119.415C195.774 119.561 195.774 119.797 195.645 119.943C195.517 120.089 195.308 120.089 195.179 119.943L193.86 118.45C193.731 118.304 193.731 118.068 193.86 117.922Z" fill="black" fill-opacity="0.08"/>
<path fill-rule="evenodd" clip-rule="evenodd" d="M193.86 122.774C193.988 122.628 194.197 122.628 194.326 122.774L195.645 124.267C195.774 124.413 195.774 124.649 195.645 124.795C195.517 124.941 195.308 124.941 195.179 124.795L193.86 123.302C193.731 123.156 193.731 122.92 193.86 122.774Z" fill="black" fill-opacity="0.08"/>
<path fill-rule="evenodd" clip-rule="evenodd" d="M193.86 127.626C193.988 127.48 194.197 127.48 194.326 127.626L195.645 129.119C195.774 129.265 195.774 129.501 195.645 129.647C195.517 129.793 195.308 129.793 195.179 129.647L193.86 128.154C193.731 128.008 193.731 127.772 193.86 127.626Z" fill="black" fill-opacity="0.08"/>
<path fill-rule="evenodd" clip-rule="evenodd" d="M193.86 132.478C193.988 132.332 194.197 132.332 194.326 132.478L195.645 133.971C195.774 134.117 195.774 134.353 195.645 134.499C195.517 134.645 195.308 134.645 195.179 134.499L193.86 133.006C193.731 132.86 193.731 132.624 193.86 132.478Z" fill="black" fill-opacity="0.08"/>
<path fill-rule="evenodd" clip-rule="evenodd" d="M203.095 108.218C203.224 108.073 203.433 108.073 203.562 108.218L204.881 109.711C205.01 109.857 205.01 110.093 204.881 110.239C204.752 110.385 204.544 110.385 204.415 110.239L203.095 108.746C202.967 108.6 202.967 108.364 203.095 108.218Z" fill="black" fill-opacity="0.08"/>
<path fill-rule="evenodd" clip-rule="evenodd" d="M203.095 113.07C203.224 112.925 203.433 112.925 203.562 113.07L204.881 114.563C205.01 114.709 205.01 114.945 204.881 115.091C204.752 115.237 204.544 115.237 204.415 115.091L203.095 113.598C202.967 113.452 202.967 113.216 203.095 113.07Z" fill="black" fill-opacity="0.08"/>
<path fill-rule="evenodd" clip-rule="evenodd" d="M203.095 117.922C203.224 117.776 203.433 117.776 203.562 117.922L204.881 119.415C205.01 119.561 205.01 119.797 204.881 119.943C204.752 120.089 204.544 120.089 204.415 119.943L203.095 118.45C202.967 118.304 202.967 118.068 203.095 117.922Z" fill="black" fill-opacity="0.08"/>
<path fill-rule="evenodd" clip-rule="evenodd" d="M203.095 122.774C203.224 122.628 203.433 122.628 203.562 122.774L204.881 124.267C205.01 124.413 205.01 124.649 204.881 124.795C204.752 124.941 204.544 124.941 204.415 124.795L203.095 123.302C202.967 123.156 202.967 122.92 203.095 122.774Z" fill="black" fill-opacity="0.08"/>
<path fill-rule="evenodd" clip-rule="evenodd" d="M203.095 127.626C203.224 127.48 203.433 127.48 203.562 127.626L204.881 129.119C205.01 129.265 205.01 129.501 204.881 129.647C204.752 129.793 204.544 129.793 204.415 129.647L203.095 128.154C202.967 128.008 202.967 127.772 203.095 127.626Z" fill="black" fill-opacity="0.08"/>
<path fill-rule="evenodd" clip-rule="evenodd" d="M203.095 132.478C203.224 132.332 203.433 132.332 203.562 132.478L204.881 133.971C205.01 134.117 205.01 134.353 204.881 134.499C204.752 134.645 204.544 134.645 204.415 134.499L203.095 133.006C202.967 132.86 202.967 132.624 203.095 132.478Z" fill="black" fill-opacity="0.08"/>
<path fill-rule="evenodd" clip-rule="evenodd" d="M212.331 108.218C212.46 108.073 212.669 108.073 212.798 108.218L214.117 109.711C214.246 109.857 214.246 110.093 214.117 110.239C213.988 110.385 213.779 110.385 213.651 110.239L212.331 108.746C212.202 108.6 212.202 108.364 212.331 108.218Z" fill="black" fill-opacity="0.08"/>
<path fill-rule="evenodd" clip-rule="evenodd" d="M212.331 113.07C212.46 112.925 212.669 112.925 212.798 113.07L214.117 114.563C214.246 114.709 214.246 114.945 214.117 115.091C213.988 115.237 213.779 115.237 213.651 115.091L212.331 113.598C212.202 113.452 212.202 113.216 212.331 113.07Z" fill="black" fill-opacity="0.08"/>
<path fill-rule="evenodd" clip-rule="evenodd" d="M212.331 117.922C212.46 117.776 212.669 117.776 212.798 117.922L214.117 119.415C214.246 119.561 214.246 119.797 214.117 119.943C213.988 120.089 213.779 120.089 213.651 119.943L212.331 118.45C212.202 118.304 212.202 118.068 212.331 117.922Z" fill="black" fill-opacity="0.08"/>
<path fill-rule="evenodd" clip-rule="evenodd" d="M212.331 122.774C212.46 122.628 212.669 122.628 212.798 122.774L214.117 124.267C214.246 124.413 214.246 124.649 214.117 124.795C213.988 124.941 213.779 124.941 213.651 124.795L212.331 123.302C212.202 123.156 212.202 122.92 212.331 122.774Z" fill="black" fill-opacity="0.08"/>
<path fill-rule="evenodd" clip-rule="evenodd" d="M212.331 127.626C212.46 127.48 212.669 127.48 212.798 127.626L214.117 129.119C214.246 129.265 214.246 129.501 214.117 129.647C213.988 129.793 213.779 129.793 213.651 129.647L212.331 128.154C212.202 128.008 212.202 127.772 212.331 127.626Z" fill="black" fill-opacity="0.08"/>
<path fill-rule="evenodd" clip-rule="evenodd" d="M212.331 132.478C212.46 132.332 212.669 132.332 212.798 132.478L214.117 133.971C214.246 134.117 214.246 134.353 214.117 134.499C213.988 134.645 213.779 134.645 213.651 134.499L212.331 133.006C212.202 132.86 212.202 132.624 212.331 132.478Z" fill="black" fill-opacity="0.08"/>
<path fill-rule="evenodd" clip-rule="evenodd" d="M200.263 108.218C200.135 108.073 199.926 108.073 199.797 108.218L198.477 109.711C198.349 109.857 198.349 110.093 198.477 110.239C198.606 110.385 198.815 110.385 198.944 110.239L200.263 108.746C200.392 108.6 200.392 108.364 200.263 108.218Z" fill="black" fill-opacity="0.08"/>
<path fill-rule="evenodd" clip-rule="evenodd" d="M200.263 113.07C200.135 112.925 199.926 112.925 199.797 113.07L198.477 114.563C198.349 114.709 198.349 114.945 198.477 115.091C198.606 115.237 198.815 115.237 198.944 115.091L200.263 113.598C200.392 113.452 200.392 113.216 200.263 113.07Z" fill="black" fill-opacity="0.08"/>
<path fill-rule="evenodd" clip-rule="evenodd" d="M200.263 117.922C200.135 117.776 199.926 117.776 199.797 117.922L198.477 119.415C198.349 119.561 198.349 119.797 198.477 119.943C198.606 120.089 198.815 120.089 198.944 119.943L200.263 118.45C200.392 118.304 200.392 118.068 200.263 117.922Z" fill="black" fill-opacity="0.08"/>
<path fill-rule="evenodd" clip-rule="evenodd" d="M200.263 122.774C200.135 122.628 199.926 122.628 199.797 122.774L198.477 124.267C198.349 124.413 198.349 124.649 198.477 124.795C198.606 124.941 198.815 124.941 198.944 124.795L200.263 123.302C200.392 123.156 200.392 122.92 200.263 122.774Z" fill="black" fill-opacity="0.08"/>
<path fill-rule="evenodd" clip-rule="evenodd" d="M200.263 127.626C200.135 127.48 199.926 127.48 199.797 127.626L198.477 129.119C198.349 129.265 198.349 129.501 198.477 129.647C198.606 129.793 198.815 129.793 198.944 129.647L200.263 128.154C200.392 128.008 200.392 127.772 200.263 127.626Z" fill="black" fill-opacity="0.08"/>
<path fill-rule="evenodd" clip-rule="evenodd" d="M200.263 132.478C200.135 132.332 199.926 132.332 199.797 132.478L198.477 133.971C198.349 134.117 198.349 134.353 198.477 134.499C198.606 134.645 198.815 134.645 198.944 134.499L200.263 133.006C200.392 132.86 200.392 132.624 200.263 132.478Z" fill="black" fill-opacity="0.08"/>
<path fill-rule="evenodd" clip-rule="evenodd" d="M209.499 108.218C209.37 108.073 209.161 108.073 209.033 108.218L207.713 109.711C207.584 109.857 207.584 110.093 207.713 110.239C207.842 110.385 208.051 110.385 208.18 110.239L209.499 108.746C209.628 108.6 209.628 108.364 209.499 108.218Z" fill="black" fill-opacity="0.08"/>
<path fill-rule="evenodd" clip-rule="evenodd" d="M209.499 113.07C209.37 112.925 209.161 112.925 209.033 113.07L207.713 114.563C207.584 114.709 207.584 114.945 207.713 115.091C207.842 115.237 208.051 115.237 208.18 115.091L209.499 113.598C209.628 113.452 209.628 113.216 209.499 113.07Z" fill="black" fill-opacity="0.08"/>
<path fill-rule="evenodd" clip-rule="evenodd" d="M209.499 117.922C209.37 117.776 209.161 117.776 209.033 117.922L207.713 119.415C207.584 119.561 207.584 119.797 207.713 119.943C207.842 120.089 208.051 120.089 208.18 119.943L209.499 118.45C209.628 118.304 209.628 118.068 209.499 117.922Z" fill="black" fill-opacity="0.08"/>
<path fill-rule="evenodd" clip-rule="evenodd" d="M209.499 122.774C209.37 122.628 209.161 122.628 209.033 122.774L207.713 124.267C207.584 124.413 207.584 124.649 207.713 124.795C207.842 124.941 208.051 124.941 208.18 124.795L209.499 123.302C209.628 123.156 209.628 122.92 209.499 122.774Z" fill="black" fill-opacity="0.08"/>
<path fill-rule="evenodd" clip-rule="evenodd" d="M209.499 127.626C209.37 127.48 209.161 127.48 209.033 127.626L207.713 129.119C207.584 129.265 207.584 129.501 207.713 129.647C207.842 129.793 208.051 129.793 208.18 129.647L209.499 128.154C209.628 128.008 209.628 127.772 209.499 127.626Z" fill="black" fill-opacity="0.08"/>
<path fill-rule="evenodd" clip-rule="evenodd" d="M209.499 132.478C209.37 132.332 209.161 132.332 209.033 132.478L207.713 133.971C207.584 134.117 207.584 134.353 207.713 134.499C207.842 134.645 208.051 134.645 208.18 134.499L209.499 133.006C209.628 132.86 209.628 132.624 209.499 132.478Z" fill="black" fill-opacity="0.08"/>
<path fill-rule="evenodd" clip-rule="evenodd" d="M218.735 108.218C218.606 108.073 218.397 108.073 218.268 108.218L216.949 109.711C216.82 109.857 216.82 110.093 216.949 110.239C217.078 110.385 217.287 110.385 217.416 110.239L218.735 108.746C218.864 108.6 218.864 108.364 218.735 108.218Z" fill="black" fill-opacity="0.08"/>
<path fill-rule="evenodd" clip-rule="evenodd" d="M218.735 113.07C218.606 112.925 218.397 112.925 218.268 113.07L216.949 114.563C216.82 114.709 216.82 114.945 216.949 115.091C217.078 115.237 217.287 115.237 217.416 115.091L218.735 113.598C218.864 113.452 218.864 113.216 218.735 113.07Z" fill="black" fill-opacity="0.08"/>
<path fill-rule="evenodd" clip-rule="evenodd" d="M218.735 117.922C218.606 117.776 218.397 117.776 218.268 117.922L216.949 119.415C216.82 119.561 216.82 119.797 216.949 119.943C217.078 120.089 217.287 120.089 217.416 119.943L218.735 118.45C218.864 118.304 218.864 118.068 218.735 117.922Z" fill="black" fill-opacity="0.08"/>
<path fill-rule="evenodd" clip-rule="evenodd" d="M218.735 122.774C218.606 122.628 218.397 122.628 218.268 122.774L216.949 124.267C216.82 124.413 216.82 124.649 216.949 124.795C217.078 124.941 217.287 124.941 217.416 124.795L218.735 123.302C218.864 123.156 218.864 122.92 218.735 122.774Z" fill="black" fill-opacity="0.08"/>
<path fill-rule="evenodd" clip-rule="evenodd" d="M218.735 127.626C218.606 127.48 218.397 127.48 218.268 127.626L216.949 129.119C216.82 129.265 216.82 129.501 216.949 129.647C217.078 129.793 217.287 129.793 217.416 129.647L218.735 128.154C218.864 128.008 218.864 127.772 218.735 127.626Z" fill="black" fill-opacity="0.08"/>
<path fill-rule="evenodd" clip-rule="evenodd" d="M218.735 132.478C218.606 132.332 218.397 132.332 218.268 132.478L216.949 133.971C216.82 134.117 216.82 134.353 216.949 134.499C217.078 134.645 217.287 134.645 217.416 134.499L218.735 133.006C218.864 132.86 218.864 132.624 218.735 132.478Z" fill="black" fill-opacity="0.08"/>
<path fill-rule="evenodd" clip-rule="evenodd" d="M166.152 78.7749C166.281 78.6291 166.49 78.6291 166.619 78.7749L167.938 80.2678C168.067 80.4136 168.067 80.6499 167.938 80.7956C167.809 80.9414 167.6 80.9414 167.472 80.7956L166.152 79.3027C166.023 79.157 166.023 78.9207 166.152 78.7749Z" fill="black" fill-opacity="0.08"/>
<path fill-rule="evenodd" clip-rule="evenodd" d="M166.152 83.6269C166.281 83.4811 166.49 83.4811 166.619 83.6269L167.938 85.1198C168.067 85.2655 168.067 85.5018 167.938 85.6476C167.809 85.7933 167.6 85.7933 167.472 85.6476L166.152 84.1547C166.023 84.0089 166.023 83.7726 166.152 83.6269Z" fill="black" fill-opacity="0.08"/>
<path fill-rule="evenodd" clip-rule="evenodd" d="M166.152 88.4788C166.281 88.333 166.49 88.333 166.619 88.4788L167.938 89.9717C168.067 90.1175 168.067 90.3538 167.938 90.4995C167.809 90.6453 167.6 90.6453 167.472 90.4995L166.152 89.0066C166.023 88.8609 166.023 88.6246 166.152 88.4788Z" fill="black" fill-opacity="0.08"/>
<path fill-rule="evenodd" clip-rule="evenodd" d="M166.152 93.3307C166.281 93.185 166.49 93.185 166.619 93.3307L167.938 94.8237C168.067 94.9694 168.067 95.2057 167.938 95.3515C167.809 95.4972 167.6 95.4972 167.472 95.3515L166.152 93.8586C166.023 93.7128 166.023 93.4765 166.152 93.3307Z" fill="black" fill-opacity="0.08"/>
<path fill-rule="evenodd" clip-rule="evenodd" d="M166.152 98.1827C166.281 98.0369 166.49 98.0369 166.619 98.1827L167.938 99.6756C168.067 99.8214 168.067 100.058 167.938 100.203C167.809 100.349 167.6 100.349 167.472 100.203L166.152 98.7105C166.023 98.5648 166.023 98.3284 166.152 98.1827Z" fill="black" fill-opacity="0.08"/>
<path fill-rule="evenodd" clip-rule="evenodd" d="M166.152 103.035C166.281 102.889 166.49 102.889 166.619 103.035L167.938 104.528C168.067 104.673 168.067 104.91 167.938 105.055C167.809 105.201 167.6 105.201 167.472 105.055L166.152 103.562C166.023 103.417 166.023 103.18 166.152 103.035Z" fill="black" fill-opacity="0.08"/>
<path fill-rule="evenodd" clip-rule="evenodd" d="M175.388 78.7749C175.517 78.6291 175.726 78.6291 175.855 78.7749L177.174 80.2678C177.303 80.4136 177.303 80.6499 177.174 80.7956C177.045 80.9414 176.836 80.9414 176.707 80.7956L175.388 79.3027C175.259 79.157 175.259 78.9207 175.388 78.7749Z" fill="black" fill-opacity="0.08"/>
<path fill-rule="evenodd" clip-rule="evenodd" d="M175.388 83.6269C175.517 83.4811 175.726 83.4811 175.855 83.6269L177.174 85.1198C177.303 85.2655 177.303 85.5018 177.174 85.6476C177.045 85.7933 176.836 85.7933 176.707 85.6476L175.388 84.1547C175.259 84.0089 175.259 83.7726 175.388 83.6269Z" fill="black" fill-opacity="0.08"/>
<path fill-rule="evenodd" clip-rule="evenodd" d="M175.388 88.4788C175.517 88.333 175.726 88.333 175.855 88.4788L177.174 89.9717C177.303 90.1175 177.303 90.3538 177.174 90.4995C177.045 90.6453 176.836 90.6453 176.707 90.4995L175.388 89.0066C175.259 88.8609 175.259 88.6246 175.388 88.4788Z" fill="black" fill-opacity="0.08"/>
<path fill-rule="evenodd" clip-rule="evenodd" d="M175.388 93.3307C175.517 93.185 175.726 93.185 175.855 93.3307L177.174 94.8237C177.303 94.9694 177.303 95.2057 177.174 95.3515C177.045 95.4972 176.836 95.4972 176.707 95.3515L175.388 93.8586C175.259 93.7128 175.259 93.4765 175.388 93.3307Z" fill="black" fill-opacity="0.08"/>
<path fill-rule="evenodd" clip-rule="evenodd" d="M175.388 98.1827C175.517 98.0369 175.726 98.0369 175.855 98.1827L177.174 99.6756C177.303 99.8214 177.303 100.058 177.174 100.203C177.045 100.349 176.836 100.349 176.707 100.203L175.388 98.7105C175.259 98.5648 175.259 98.3284 175.388 98.1827Z" fill="black" fill-opacity="0.08"/>
<path fill-rule="evenodd" clip-rule="evenodd" d="M175.388 103.035C175.517 102.889 175.726 102.889 175.855 103.035L177.174 104.528C177.303 104.673 177.303 104.91 177.174 105.055C177.045 105.201 176.836 105.201 176.707 105.055L175.388 103.562C175.259 103.417 175.259 103.18 175.388 103.035Z" fill="black" fill-opacity="0.08"/>
<path fill-rule="evenodd" clip-rule="evenodd" d="M184.624 78.7749C184.753 78.6291 184.962 78.6291 185.09 78.7749L186.41 80.2678C186.539 80.4136 186.539 80.6499 186.41 80.7956C186.281 80.9414 186.072 80.9414 185.943 80.7956L184.624 79.3027C184.495 79.157 184.495 78.9207 184.624 78.7749Z" fill="black" fill-opacity="0.08"/>
<path fill-rule="evenodd" clip-rule="evenodd" d="M184.624 83.6269C184.753 83.4811 184.962 83.4811 185.09 83.6269L186.41 85.1198C186.539 85.2655 186.539 85.5018 186.41 85.6476C186.281 85.7933 186.072 85.7933 185.943 85.6476L184.624 84.1547C184.495 84.0089 184.495 83.7726 184.624 83.6269Z" fill="black" fill-opacity="0.08"/>
<path fill-rule="evenodd" clip-rule="evenodd" d="M184.624 88.4788C184.753 88.333 184.962 88.333 185.09 88.4788L186.41 89.9717C186.539 90.1175 186.539 90.3538 186.41 90.4995C186.281 90.6453 186.072 90.6453 185.943 90.4995L184.624 89.0066C184.495 88.8609 184.495 88.6246 184.624 88.4788Z" fill="black" fill-opacity="0.08"/>
<path fill-rule="evenodd" clip-rule="evenodd" d="M184.624 93.3307C184.753 93.185 184.962 93.185 185.09 93.3307L186.41 94.8237C186.539 94.9694 186.539 95.2057 186.41 95.3515C186.281 95.4972 186.072 95.4972 185.943 95.3515L184.624 93.8586C184.495 93.7128 184.495 93.4765 184.624 93.3307Z" fill="black" fill-opacity="0.08"/>
<path fill-rule="evenodd" clip-rule="evenodd" d="M184.624 98.1827C184.753 98.0369 184.962 98.0369 185.09 98.1827L186.41 99.6756C186.539 99.8214 186.539 100.058 186.41 100.203C186.281 100.349 186.072 100.349 185.943 100.203L184.624 98.7105C184.495 98.5648 184.495 98.3284 184.624 98.1827Z" fill="black" fill-opacity="0.08"/>
<path fill-rule="evenodd" clip-rule="evenodd" d="M184.624 103.035C184.753 102.889 184.962 102.889 185.09 103.035L186.41 104.528C186.539 104.673 186.539 104.91 186.41 105.055C186.281 105.201 186.072 105.201 185.943 105.055L184.624 103.562C184.495 103.417 184.495 103.18 184.624 103.035Z" fill="black" fill-opacity="0.08"/>
<path fill-rule="evenodd" clip-rule="evenodd" d="M172.556 78.7749C172.427 78.6291 172.218 78.6291 172.09 78.7749L170.77 80.2678C170.641 80.4136 170.641 80.6499 170.77 80.7956C170.899 80.9414 171.108 80.9414 171.237 80.7956L172.556 79.3027C172.685 79.157 172.685 78.9207 172.556 78.7749Z" fill="black" fill-opacity="0.08"/>
<path fill-rule="evenodd" clip-rule="evenodd" d="M172.556 83.6269C172.427 83.4811 172.218 83.4811 172.09 83.6269L170.77 85.1198C170.641 85.2655 170.641 85.5018 170.77 85.6476C170.899 85.7933 171.108 85.7933 171.237 85.6476L172.556 84.1547C172.685 84.0089 172.685 83.7726 172.556 83.6269Z" fill="black" fill-opacity="0.08"/>
<path fill-rule="evenodd" clip-rule="evenodd" d="M172.556 88.4788C172.427 88.333 172.218 88.333 172.09 88.4788L170.77 89.9717C170.641 90.1175 170.641 90.3538 170.77 90.4995C170.899 90.6453 171.108 90.6453 171.237 90.4995L172.556 89.0066C172.685 88.8609 172.685 88.6246 172.556 88.4788Z" fill="black" fill-opacity="0.08"/>
<path fill-rule="evenodd" clip-rule="evenodd" d="M172.556 93.3307C172.427 93.185 172.218 93.185 172.09 93.3307L170.77 94.8237C170.641 94.9694 170.641 95.2057 170.77 95.3515C170.899 95.4972 171.108 95.4972 171.237 95.3515L172.556 93.8586C172.685 93.7128 172.685 93.4765 172.556 93.3307Z" fill="black" fill-opacity="0.08"/>
<path fill-rule="evenodd" clip-rule="evenodd" d="M172.556 98.1827C172.427 98.0369 172.218 98.0369 172.09 98.1827L170.77 99.6756C170.641 99.8214 170.641 100.058 170.77 100.203C170.899 100.349 171.108 100.349 171.237 100.203L172.556 98.7105C172.685 98.5648 172.685 98.3284 172.556 98.1827Z" fill="black" fill-opacity="0.08"/>
<path fill-rule="evenodd" clip-rule="evenodd" d="M172.556 103.035C172.427 102.889 172.218 102.889 172.09 103.035L170.77 104.528C170.641 104.673 170.641 104.91 170.77 105.055C170.899 105.201 171.108 105.201 171.237 105.055L172.556 103.562C172.685 103.417 172.685 103.18 172.556 103.035Z" fill="black" fill-opacity="0.08"/>
<path fill-rule="evenodd" clip-rule="evenodd" d="M181.792 78.7749C181.663 78.6291 181.454 78.6291 181.325 78.7749L180.006 80.2678C179.877 80.4136 179.877 80.6499 180.006 80.7956C180.135 80.9414 180.344 80.9414 180.472 80.7956L181.792 79.3027C181.921 79.157 181.921 78.9207 181.792 78.7749Z" fill="black" fill-opacity="0.08"/>
<path fill-rule="evenodd" clip-rule="evenodd" d="M181.792 83.6269C181.663 83.4811 181.454 83.4811 181.325 83.6269L180.006 85.1198C179.877 85.2655 179.877 85.5018 180.006 85.6476C180.135 85.7933 180.344 85.7933 180.472 85.6476L181.792 84.1547C181.921 84.0089 181.921 83.7726 181.792 83.6269Z" fill="black" fill-opacity="0.08"/>
<path fill-rule="evenodd" clip-rule="evenodd" d="M181.792 88.4788C181.663 88.333 181.454 88.333 181.325 88.4788L180.006 89.9717C179.877 90.1175 179.877 90.3538 180.006 90.4995C180.135 90.6453 180.344 90.6453 180.472 90.4995L181.792 89.0066C181.921 88.8609 181.921 88.6246 181.792 88.4788Z" fill="black" fill-opacity="0.08"/>
<path fill-rule="evenodd" clip-rule="evenodd" d="M181.792 93.3307C181.663 93.185 181.454 93.185 181.325 93.3307L180.006 94.8237C179.877 94.9694 179.877 95.2057 180.006 95.3515C180.135 95.4972 180.344 95.4972 180.472 95.3515L181.792 93.8586C181.921 93.7128 181.921 93.4765 181.792 93.3307Z" fill="black" fill-opacity="0.08"/>
<path fill-rule="evenodd" clip-rule="evenodd" d="M181.792 98.1827C181.663 98.0369 181.454 98.0369 181.325 98.1827L180.006 99.6756C179.877 99.8214 179.877 100.058 180.006 100.203C180.135 100.349 180.344 100.349 180.472 100.203L181.792 98.7105C181.921 98.5648 181.921 98.3284 181.792 98.1827Z" fill="black" fill-opacity="0.08"/>
<path fill-rule="evenodd" clip-rule="evenodd" d="M181.792 103.035C181.663 102.889 181.454 102.889 181.325 103.035L180.006 104.528C179.877 104.673 179.877 104.91 180.006 105.055C180.135 105.201 180.344 105.201 180.472 105.055L181.792 103.562C181.921 103.417 181.921 103.18 181.792 103.035Z" fill="black" fill-opacity="0.08"/>
<path fill-rule="evenodd" clip-rule="evenodd" d="M191.028 78.7749C190.899 78.6291 190.69 78.6291 190.561 78.7749L189.242 80.2678C189.113 80.4136 189.113 80.6499 189.242 80.7956C189.371 80.9414 189.579 80.9414 189.708 80.7956L191.028 79.3027C191.156 79.157 191.156 78.9207 191.028 78.7749Z" fill="black" fill-opacity="0.08"/>
<path fill-rule="evenodd" clip-rule="evenodd" d="M191.028 83.6269C190.899 83.4811 190.69 83.4811 190.561 83.6269L189.242 85.1198C189.113 85.2655 189.113 85.5018 189.242 85.6476C189.371 85.7933 189.579 85.7933 189.708 85.6476L191.028 84.1547C191.156 84.0089 191.156 83.7726 191.028 83.6269Z" fill="black" fill-opacity="0.08"/>
<path fill-rule="evenodd" clip-rule="evenodd" d="M191.028 88.4788C190.899 88.333 190.69 88.333 190.561 88.4788L189.242 89.9717C189.113 90.1175 189.113 90.3538 189.242 90.4995C189.371 90.6453 189.579 90.6453 189.708 90.4995L191.028 89.0066C191.156 88.8609 191.156 88.6246 191.028 88.4788Z" fill="black" fill-opacity="0.08"/>
<path fill-rule="evenodd" clip-rule="evenodd" d="M191.028 93.3307C190.899 93.185 190.69 93.185 190.561 93.3307L189.242 94.8237C189.113 94.9694 189.113 95.2057 189.242 95.3515C189.371 95.4972 189.579 95.4972 189.708 95.3515L191.028 93.8586C191.156 93.7128 191.156 93.4765 191.028 93.3307Z" fill="black" fill-opacity="0.08"/>
<path fill-rule="evenodd" clip-rule="evenodd" d="M191.028 98.1827C190.899 98.0369 190.69 98.0369 190.561 98.1827L189.242 99.6756C189.113 99.8214 189.113 100.058 189.242 100.203C189.371 100.349 189.579 100.349 189.708 100.203L191.028 98.7105C191.156 98.5648 191.156 98.3284 191.028 98.1827Z" fill="black" fill-opacity="0.08"/>
<path fill-rule="evenodd" clip-rule="evenodd" d="M191.028 103.035C190.899 102.889 190.69 102.889 190.561 103.035L189.242 104.528C189.113 104.673 189.113 104.91 189.242 105.055C189.371 105.201 189.579 105.201 189.708 105.055L191.028 103.562C191.156 103.417 191.156 103.18 191.028 103.035Z" fill="black" fill-opacity="0.08"/>
<path fill-rule="evenodd" clip-rule="evenodd" d="M193.86 78.7749C193.988 78.6292 194.197 78.6292 194.326 78.7749L195.645 80.2678C195.774 80.4136 195.774 80.6499 195.645 80.7957C195.517 80.9414 195.308 80.9414 195.179 80.7957L193.86 79.3028C193.731 79.157 193.731 78.9207 193.86 78.7749Z" fill="black" fill-opacity="0.08"/>
<path fill-rule="evenodd" clip-rule="evenodd" d="M193.86 83.6269C193.988 83.4811 194.197 83.4811 194.326 83.6269L195.645 85.1198C195.774 85.2655 195.774 85.5019 195.645 85.6476C195.517 85.7934 195.308 85.7934 195.179 85.6476L193.86 84.1547C193.731 84.009 193.731 83.7726 193.86 83.6269Z" fill="black" fill-opacity="0.08"/>
<path fill-rule="evenodd" clip-rule="evenodd" d="M193.86 88.4788C193.988 88.3331 194.197 88.3331 194.326 88.4788L195.645 89.9717C195.774 90.1175 195.774 90.3538 195.645 90.4996C195.517 90.6453 195.308 90.6453 195.179 90.4996L193.86 89.0067C193.731 88.8609 193.731 88.6246 193.86 88.4788Z" fill="black" fill-opacity="0.08"/>
<path fill-rule="evenodd" clip-rule="evenodd" d="M193.86 93.3308C193.988 93.185 194.197 93.185 194.326 93.3308L195.645 94.8237C195.774 94.9694 195.774 95.2058 195.645 95.3515C195.517 95.4973 195.308 95.4973 195.179 95.3515L193.86 93.8586C193.731 93.7128 193.731 93.4765 193.86 93.3308Z" fill="black" fill-opacity="0.08"/>
<path fill-rule="evenodd" clip-rule="evenodd" d="M193.86 98.1827C193.988 98.037 194.197 98.037 194.326 98.1827L195.645 99.6756C195.774 99.8214 195.774 100.058 195.645 100.203C195.517 100.349 195.308 100.349 195.179 100.203L193.86 98.7105C193.731 98.5648 193.731 98.3285 193.86 98.1827Z" fill="black" fill-opacity="0.08"/>
<path fill-rule="evenodd" clip-rule="evenodd" d="M193.86 103.035C193.988 102.889 194.197 102.889 194.326 103.035L195.645 104.528C195.774 104.673 195.774 104.91 195.645 105.055C195.517 105.201 195.308 105.201 195.179 105.055L193.86 103.562C193.731 103.417 193.731 103.18 193.86 103.035Z" fill="black" fill-opacity="0.08"/>
<path fill-rule="evenodd" clip-rule="evenodd" d="M203.095 78.7749C203.224 78.6292 203.433 78.6292 203.562 78.7749L204.881 80.2678C205.01 80.4136 205.01 80.6499 204.881 80.7957C204.752 80.9414 204.544 80.9414 204.415 80.7957L203.095 79.3028C202.967 79.157 202.967 78.9207 203.095 78.7749Z" fill="black" fill-opacity="0.08"/>
<path fill-rule="evenodd" clip-rule="evenodd" d="M203.095 83.6269C203.224 83.4811 203.433 83.4811 203.562 83.6269L204.881 85.1198C205.01 85.2655 205.01 85.5019 204.881 85.6476C204.752 85.7934 204.544 85.7934 204.415 85.6476L203.095 84.1547C202.967 84.009 202.967 83.7726 203.095 83.6269Z" fill="black" fill-opacity="0.08"/>
<path fill-rule="evenodd" clip-rule="evenodd" d="M203.095 88.4788C203.224 88.3331 203.433 88.3331 203.562 88.4788L204.881 89.9717C205.01 90.1175 205.01 90.3538 204.881 90.4996C204.752 90.6453 204.544 90.6453 204.415 90.4996L203.095 89.0067C202.967 88.8609 202.967 88.6246 203.095 88.4788Z" fill="black" fill-opacity="0.08"/>
<path fill-rule="evenodd" clip-rule="evenodd" d="M203.095 93.3308C203.224 93.185 203.433 93.185 203.562 93.3308L204.881 94.8237C205.01 94.9694 205.01 95.2058 204.881 95.3515C204.752 95.4973 204.544 95.4973 204.415 95.3515L203.095 93.8586C202.967 93.7128 202.967 93.4765 203.095 93.3308Z" fill="black" fill-opacity="0.08"/>
<path fill-rule="evenodd" clip-rule="evenodd" d="M203.095 98.1827C203.224 98.037 203.433 98.037 203.562 98.1827L204.881 99.6756C205.01 99.8214 205.01 100.058 204.881 100.203C204.752 100.349 204.544 100.349 204.415 100.203L203.095 98.7105C202.967 98.5648 202.967 98.3285 203.095 98.1827Z" fill="black" fill-opacity="0.08"/>
<path fill-rule="evenodd" clip-rule="evenodd" d="M203.095 103.035C203.224 102.889 203.433 102.889 203.562 103.035L204.881 104.528C205.01 104.673 205.01 104.91 204.881 105.055C204.752 105.201 204.544 105.201 204.415 105.055L203.095 103.562C202.967 103.417 202.967 103.18 203.095 103.035Z" fill="black" fill-opacity="0.08"/>
<path fill-rule="evenodd" clip-rule="evenodd" d="M212.331 78.7749C212.46 78.6292 212.669 78.6292 212.798 78.7749L214.117 80.2678C214.246 80.4136 214.246 80.6499 214.117 80.7957C213.988 80.9414 213.779 80.9414 213.651 80.7957L212.331 79.3028C212.202 79.157 212.202 78.9207 212.331 78.7749Z" fill="black" fill-opacity="0.08"/>
<path fill-rule="evenodd" clip-rule="evenodd" d="M212.331 83.6269C212.46 83.4811 212.669 83.4811 212.798 83.6269L214.117 85.1198C214.246 85.2655 214.246 85.5019 214.117 85.6476C213.988 85.7934 213.779 85.7934 213.651 85.6476L212.331 84.1547C212.202 84.009 212.202 83.7726 212.331 83.6269Z" fill="black" fill-opacity="0.08"/>
<path fill-rule="evenodd" clip-rule="evenodd" d="M212.331 88.4788C212.46 88.3331 212.669 88.3331 212.798 88.4788L214.117 89.9717C214.246 90.1175 214.246 90.3538 214.117 90.4996C213.988 90.6453 213.779 90.6453 213.651 90.4996L212.331 89.0067C212.202 88.8609 212.202 88.6246 212.331 88.4788Z" fill="black" fill-opacity="0.08"/>
<path fill-rule="evenodd" clip-rule="evenodd" d="M212.331 93.3308C212.46 93.185 212.669 93.185 212.798 93.3308L214.117 94.8237C214.246 94.9694 214.246 95.2058 214.117 95.3515C213.988 95.4973 213.779 95.4973 213.651 95.3515L212.331 93.8586C212.202 93.7128 212.202 93.4765 212.331 93.3308Z" fill="black" fill-opacity="0.08"/>
<path fill-rule="evenodd" clip-rule="evenodd" d="M212.331 98.1827C212.46 98.037 212.669 98.037 212.798 98.1827L214.117 99.6756C214.246 99.8214 214.246 100.058 214.117 100.203C213.988 100.349 213.779 100.349 213.651 100.203L212.331 98.7105C212.202 98.5648 212.202 98.3285 212.331 98.1827Z" fill="black" fill-opacity="0.08"/>
<path fill-rule="evenodd" clip-rule="evenodd" d="M212.331 103.035C212.46 102.889 212.669 102.889 212.798 103.035L214.117 104.528C214.246 104.673 214.246 104.91 214.117 105.055C213.988 105.201 213.779 105.201 213.651 105.055L212.331 103.562C212.202 103.417 212.202 103.18 212.331 103.035Z" fill="black" fill-opacity="0.08"/>
<path fill-rule="evenodd" clip-rule="evenodd" d="M200.263 78.7749C200.135 78.6292 199.926 78.6292 199.797 78.7749L198.477 80.2678C198.349 80.4136 198.349 80.6499 198.477 80.7957C198.606 80.9414 198.815 80.9414 198.944 80.7957L200.263 79.3028C200.392 79.157 200.392 78.9207 200.263 78.7749Z" fill="black" fill-opacity="0.08"/>
<path fill-rule="evenodd" clip-rule="evenodd" d="M200.263 83.6269C200.135 83.4811 199.926 83.4811 199.797 83.6269L198.477 85.1198C198.349 85.2655 198.349 85.5019 198.477 85.6476C198.606 85.7934 198.815 85.7934 198.944 85.6476L200.263 84.1547C200.392 84.009 200.392 83.7726 200.263 83.6269Z" fill="black" fill-opacity="0.08"/>
<path fill-rule="evenodd" clip-rule="evenodd" d="M200.263 88.4788C200.135 88.3331 199.926 88.3331 199.797 88.4788L198.477 89.9717C198.349 90.1175 198.349 90.3538 198.477 90.4996C198.606 90.6453 198.815 90.6453 198.944 90.4996L200.263 89.0067C200.392 88.8609 200.392 88.6246 200.263 88.4788Z" fill="black" fill-opacity="0.08"/>
<path fill-rule="evenodd" clip-rule="evenodd" d="M200.263 93.3308C200.135 93.185 199.926 93.185 199.797 93.3308L198.477 94.8237C198.349 94.9694 198.349 95.2058 198.477 95.3515C198.606 95.4973 198.815 95.4973 198.944 95.3515L200.263 93.8586C200.392 93.7128 200.392 93.4765 200.263 93.3308Z" fill="black" fill-opacity="0.08"/>
<path fill-rule="evenodd" clip-rule="evenodd" d="M200.263 98.1827C200.135 98.037 199.926 98.037 199.797 98.1827L198.477 99.6756C198.349 99.8214 198.349 100.058 198.477 100.203C198.606 100.349 198.815 100.349 198.944 100.203L200.263 98.7105C200.392 98.5648 200.392 98.3285 200.263 98.1827Z" fill="black" fill-opacity="0.08"/>
<path fill-rule="evenodd" clip-rule="evenodd" d="M200.263 103.035C200.135 102.889 199.926 102.889 199.797 103.035L198.477 104.528C198.349 104.673 198.349 104.91 198.477 105.055C198.606 105.201 198.815 105.201 198.944 105.055L200.263 103.562C200.392 103.417 200.392 103.18 200.263 103.035Z" fill="black" fill-opacity="0.08"/>
<path fill-rule="evenodd" clip-rule="evenodd" d="M209.499 78.7749C209.37 78.6292 209.161 78.6292 209.033 78.7749L207.713 80.2678C207.584 80.4136 207.584 80.6499 207.713 80.7957C207.842 80.9414 208.051 80.9414 208.18 80.7957L209.499 79.3028C209.628 79.157 209.628 78.9207 209.499 78.7749Z" fill="black" fill-opacity="0.08"/>
<path fill-rule="evenodd" clip-rule="evenodd" d="M209.499 83.6269C209.37 83.4811 209.161 83.4811 209.033 83.6269L207.713 85.1198C207.584 85.2655 207.584 85.5019 207.713 85.6476C207.842 85.7934 208.051 85.7934 208.18 85.6476L209.499 84.1547C209.628 84.009 209.628 83.7726 209.499 83.6269Z" fill="black" fill-opacity="0.08"/>
<path fill-rule="evenodd" clip-rule="evenodd" d="M209.499 88.4788C209.37 88.3331 209.161 88.3331 209.033 88.4788L207.713 89.9717C207.584 90.1175 207.584 90.3538 207.713 90.4996C207.842 90.6453 208.051 90.6453 208.18 90.4996L209.499 89.0067C209.628 88.8609 209.628 88.6246 209.499 88.4788Z" fill="black" fill-opacity="0.08"/>
<path fill-rule="evenodd" clip-rule="evenodd" d="M209.499 93.3308C209.37 93.185 209.161 93.185 209.033 93.3308L207.713 94.8237C207.584 94.9694 207.584 95.2058 207.713 95.3515C207.842 95.4973 208.051 95.4973 208.18 95.3515L209.499 93.8586C209.628 93.7128 209.628 93.4765 209.499 93.3308Z" fill="black" fill-opacity="0.08"/>
<path fill-rule="evenodd" clip-rule="evenodd" d="M209.499 98.1827C209.37 98.037 209.161 98.037 209.033 98.1827L207.713 99.6756C207.584 99.8214 207.584 100.058 207.713 100.203C207.842 100.349 208.051 100.349 208.18 100.203L209.499 98.7105C209.628 98.5648 209.628 98.3285 209.499 98.1827Z" fill="black" fill-opacity="0.08"/>
<path fill-rule="evenodd" clip-rule="evenodd" d="M209.499 103.035C209.37 102.889 209.161 102.889 209.033 103.035L207.713 104.528C207.584 104.673 207.584 104.91 207.713 105.055C207.842 105.201 208.051 105.201 208.18 105.055L209.499 103.562C209.628 103.417 209.628 103.18 209.499 103.035Z" fill="black" fill-opacity="0.08"/>
<path fill-rule="evenodd" clip-rule="evenodd" d="M218.735 78.7749C218.606 78.6292 218.397 78.6292 218.268 78.7749L216.949 80.2678C216.82 80.4136 216.82 80.6499 216.949 80.7957C217.078 80.9414 217.287 80.9414 217.416 80.7957L218.735 79.3028C218.864 79.157 218.864 78.9207 218.735 78.7749Z" fill="black" fill-opacity="0.08"/>
<path fill-rule="evenodd" clip-rule="evenodd" d="M218.735 83.6269C218.606 83.4811 218.397 83.4811 218.268 83.6269L216.949 85.1198C216.82 85.2655 216.82 85.5019 216.949 85.6476C217.078 85.7934 217.287 85.7934 217.416 85.6476L218.735 84.1547C218.864 84.009 218.864 83.7726 218.735 83.6269Z" fill="black" fill-opacity="0.08"/>
<path fill-rule="evenodd" clip-rule="evenodd" d="M218.735 88.4788C218.606 88.3331 218.397 88.3331 218.268 88.4788L216.949 89.9717C216.82 90.1175 216.82 90.3538 216.949 90.4996C217.078 90.6453 217.287 90.6453 217.416 90.4996L218.735 89.0067C218.864 88.8609 218.864 88.6246 218.735 88.4788Z" fill="black" fill-opacity="0.08"/>
<path fill-rule="evenodd" clip-rule="evenodd" d="M218.735 93.3308C218.606 93.185 218.397 93.185 218.268 93.3308L216.949 94.8237C216.82 94.9694 216.82 95.2058 216.949 95.3515C217.078 95.4973 217.287 95.4973 217.416 95.3515L218.735 93.8586C218.864 93.7128 218.864 93.4765 218.735 93.3308Z" fill="black" fill-opacity="0.08"/>
<path fill-rule="evenodd" clip-rule="evenodd" d="M218.735 98.1827C218.606 98.037 218.397 98.037 218.268 98.1827L216.949 99.6756C216.82 99.8214 216.82 100.058 216.949 100.203C217.078 100.349 217.287 100.349 217.416 100.203L218.735 98.7105C218.864 98.5648 218.864 98.3285 218.735 98.1827Z" fill="black" fill-opacity="0.08"/>
<path fill-rule="evenodd" clip-rule="evenodd" d="M218.735 103.035C218.606 102.889 218.397 102.889 218.268 103.035L216.949 104.528C216.82 104.673 216.82 104.91 216.949 105.055C217.078 105.201 217.287 105.201 217.416 105.055L218.735 103.562C218.864 103.417 218.864 103.18 218.735 103.035Z" fill="black" fill-opacity="0.08"/>
</g>
<path d="M168.052 118.515C163.619 116.826 164.973 107.96 166.205 103.738C169.582 103.738 173.242 104.618 174.649 105.057V106.113L178.343 102.155C179.399 101.451 181.615 99.1465 182.038 95.5577C182.565 91.0717 187.051 88.9607 190.482 90.0162C193.912 91.0717 192.329 92.3911 190.482 92.1272C189.004 91.9161 188.283 92.2152 188.107 92.3911C189.426 92.3911 190.482 95.5576 191.009 96.6132C191.537 97.6687 190.482 97.1409 188.635 100.307C187.157 102.841 185.38 103.65 184.676 103.738L180.718 111.654C178.871 115.349 173.593 120.626 168.052 118.515Z" fill="#FFBE9F"/>
<path d="M196.355 91.2831L195.661 106.324C195.633 106.926 196.113 107.428 196.715 107.428H204.381C204.939 107.428 205.4 106.994 205.434 106.438L206.36 91.3966C206.397 90.7893 205.915 90.2762 205.306 90.2762H197.409C196.845 90.2762 196.381 90.7197 196.355 91.2831Z" fill="black"/>
<path d="M211.091 117.984C219.957 122.206 216.896 106.989 214.346 98.9843L207.749 99.5121L207.397 102.151L207.661 99.5121C208.1 98.0168 208.136 95.0262 204.758 95.0262C200.536 95.0262 200.272 102.415 201.591 102.679C202.647 102.89 203.263 102.239 203.439 101.887C203.175 105.933 204.336 114.817 211.091 117.984Z" fill="#FFBE9F"/>
<path d="M185.055 70.4853V79.1933C186.023 80.5127 188.697 83.1515 191.652 83.1515C194.607 83.1515 197.105 81.0405 197.985 79.985V77.0823C201.574 77.2934 202.295 71.8926 202.207 69.1659C202.119 66.615 201.732 60.7218 200.888 57.5552C199.832 53.597 199.304 52.5415 194.027 52.2776C188.327 52.2776 185.671 55.2683 185.055 56.7636V67.8465C182.416 63.6244 181.888 67.3187 181.888 69.1659C181.888 70.6436 183.999 70.6612 185.055 70.4853Z" fill="#FFBE9F"/>
<path d="M186.954 64.2688C186.954 67.4353 185.723 68.7547 185.107 69.0186C185.529 66.2742 183.524 66.116 182.468 66.3799C182.732 65.9401 182.891 64.0577 181.413 60.0467C179.513 54.558 182.732 53.5377 184.579 53.7137C186.268 48.8583 190.561 49.5795 192.496 50.5471C193.903 48.3481 197.457 44.9001 200.412 48.6999C205.69 55.6664 202.083 58.2876 199.621 58.7274C199.533 57.0561 198.829 53.7137 196.718 53.7137C194.607 53.7137 193.903 56.1765 193.815 57.4079C192.672 56.3524 189.963 54.6636 188.274 56.3524C186.163 58.4634 186.954 60.3106 186.954 64.2688Z" fill="#050505" stroke="black" stroke-width="0.527759"/>
<path d="M176.875 218.786V215.355H168.694V219.841C170.19 221.688 173.655 225.858 175.555 227.758C177.455 229.658 178.458 228.901 178.722 228.285L176.875 218.786Z" fill="#FBBC05"/>
<path d="M189.277 219.313V213.244C189.277 212.953 189.513 212.716 189.805 212.716H197.626C197.952 212.716 198.2 213.009 198.146 213.331L198.075 213.758C198.026 214.053 198.232 214.336 198.516 214.43C200.26 215.006 203.841 217.232 206.344 218.893C206.776 219.179 206.571 219.841 206.054 219.841H189.805C189.513 219.841 189.277 219.605 189.277 219.313Z" fill="#FBBC05"/>
<g filter="url(#filter25_i_48_1277)">
<rect x="32" y="77" width="104" height="85.2613" rx="10.3063" fill="white"/>
</g>
<rect x="32.5" y="77.5" width="103" height="84.2613" rx="9.80631" stroke="#FBBC05"/>
<circle cx="49" cy="95" r="8" fill="#C4C4C4" fill-opacity="0.22"/>
<circle cx="122" cy="138" r="5" fill="#C4C4C4" fill-opacity="0.22"/>
<circle cx="44.5" cy="149.5" r="3.5" fill="#C4C4C4" fill-opacity="0.22"/>
<g filter="url(#filter26_i_48_1277)">
<path d="M103.966 133.057H63.948C62.6357 133.057 61.3772 132.536 60.4492 131.608C59.5213 130.68 59 129.422 59 128.109V109.775C59 109.509 59.0542 109.245 59.1594 109.001C59.2645 108.756 59.4184 108.536 59.6117 108.353L80.817 88.2517C81.6648 87.448 82.7887 87 83.9568 87C85.1253 87 86.2488 87.448 87.0966 88.2517L107.315 107.417C107.82 107.896 108.222 108.472 108.497 109.112C108.772 109.751 108.914 110.44 108.914 111.135V128.109C108.914 128.759 108.786 129.402 108.537 130.003C108.288 130.603 107.924 131.149 107.464 131.608C107.005 132.068 106.459 132.432 105.859 132.681C105.259 132.929 104.616 133.057 103.966 133.057Z" fill="#8061FF"/>
</g>
<g filter="url(#filter27_i_48_1277)">
<rect x="67.9944" y="91.5565" width="31.7771" height="38.1326" rx="3.05061" fill="#FBBC05"/>
</g>
<g filter="url(#filter28_d_48_1277)">
<rect x="72.2959" y="96.7765" width="7.43009" height="1.95529" rx="0.977644" fill="white"/>
</g>
<g filter="url(#filter29_d_48_1277)">
<rect x="72.2959" y="101.469" width="7.43009" height="1.56423" rx="0.782115" fill="white"/>
</g>
<g filter="url(#filter30_d_48_1277)">
<rect x="72.3159" y="105.928" width="7.11808" height="1.77952" rx="0.88976" fill="white"/>
</g>
<g filter="url(#filter31_d_48_1277)">
<rect x="72.3159" y="110.504" width="22.8795" height="1.77952" rx="0.88976" fill="white"/>
</g>
<g filter="url(#filter32_d_48_1277)">
<rect x="72.3159" y="115.08" width="22.8795" height="1.77952" rx="0.88976" fill="white"/>
</g>
<g filter="url(#filter33_d_48_1277)">
<rect x="72.3159" y="119.656" width="22.8795" height="1.77952" rx="0.88976" fill="white"/>
</g>
<g filter="url(#filter34_i_48_1277)">
<path d="M83.9567 121.176L60.3732 109.777C60.2274 109.706 60.066 109.674 59.9042 109.683C59.7425 109.692 59.5856 109.741 59.4483 109.827C59.3111 109.914 59.198 110.033 59.1195 110.175C59.0411 110.317 59 110.476 59 110.638V130.25C59 130.643 59.0773 131.031 59.2274 131.394C59.3776 131.756 59.5977 132.085 59.8751 132.363C60.1525 132.64 60.4819 132.86 60.8444 133.011C61.2069 133.161 61.5954 133.238 61.9878 133.238H105.926C106.318 133.238 106.707 133.161 107.069 133.011C107.432 132.86 107.761 132.64 108.039 132.363C108.316 132.085 108.536 131.756 108.686 131.394C108.837 131.031 108.914 130.643 108.914 130.25V110.974C108.914 110.777 108.864 110.582 108.768 110.409C108.672 110.236 108.534 110.09 108.366 109.985C108.199 109.88 108.008 109.819 107.81 109.808C107.613 109.797 107.416 109.837 107.238 109.923L83.9567 121.176Z" fill="#8061FF"/>
</g>
<g filter="url(#filter35_i_48_1277)">
<circle cx="88.9158" cy="102.447" r="6.45245" fill="#8061FF"/>
</g>
<g filter="url(#filter36_d_48_1277)">
<path fill-rule="evenodd" clip-rule="evenodd" d="M92.8502 99.6814C93.0792 99.9049 93.0792 100.267 92.8502 100.491L88.0449 105.179C87.77 105.447 87.3243 105.447 87.0494 105.179L84.5905 102.78C84.3614 102.556 84.3614 102.194 84.5905 101.97C84.8196 101.747 85.191 101.747 85.4201 101.97L87.5472 104.046L92.0206 99.6814C92.2497 99.4579 92.6211 99.4579 92.8502 99.6814Z" fill="white"/>
</g>
<g filter="url(#filter37_i_48_1277)">
<path d="M66.57 149.98C66.57 147.52 62.99 148.3 62.99 146.9C62.99 146.33 63.4 146.06 63.95 146.08C64.55 146.09 64.92 146.45 64.95 146.91H66.49C66.4 145.65 65.42 144.92 63.99 144.92C62.55 144.92 61.53 145.68 61.53 146.94C61.52 149.47 65.12 148.56 65.12 150.07C65.12 150.57 64.73 150.92 64.07 150.92C63.42 150.92 63.05 150.55 63.01 149.99H61.51C61.53 151.31 62.65 152.07 64.1 152.07C65.69 152.07 66.57 151.08 66.57 149.98Z" fill="#FBBC05"/>
<path d="M68.1638 149.33C68.1638 151.17 69.4238 152.07 70.9538 152.07C72.4838 152.07 73.8038 151.17 73.8038 149.33V145.02H72.3938V149.34C72.3938 150.3 71.8738 150.8 70.9738 150.8C70.0838 150.8 69.5638 150.3 69.5638 149.34V145.02H68.1638V149.33Z" fill="#FBBC05"/>
<path d="M75.2164 148.5C75.2164 150.59 76.7464 152.06 78.7564 152.06C80.3064 152.06 81.5664 151.24 82.0364 149.8H80.4264C80.0964 150.48 79.4964 150.81 78.7464 150.81C77.5264 150.81 76.6564 149.91 76.6564 148.5C76.6564 147.08 77.5264 146.19 78.7464 146.19C79.4964 146.19 80.0964 146.52 80.4264 147.19H82.0364C81.5664 145.76 80.3064 144.93 78.7564 144.93C76.7464 144.93 75.2164 146.41 75.2164 148.5Z" fill="#FBBC05"/>
<path d="M83.2922 148.5C83.2922 150.59 84.8222 152.06 86.8322 152.06C88.3822 152.06 89.6422 151.24 90.1122 149.8H88.5022C88.1722 150.48 87.5722 150.81 86.8222 150.81C85.6022 150.81 84.7322 149.91 84.7322 148.5C84.7322 147.08 85.6022 146.19 86.8222 146.19C87.5722 146.19 88.1722 146.52 88.5022 147.19H90.1122C89.6422 145.76 88.3822 144.93 86.8322 144.93C84.8222 144.93 83.2922 146.41 83.2922 148.5Z" fill="#FBBC05"/>
<path d="M95.758 145.01H91.708V152H95.758V150.86H93.108V149.01H95.458V147.9H93.108V146.15H95.758V145.01Z" fill="#FBBC05"/>
<path d="M102.31 149.98C102.31 147.52 98.7302 148.3 98.7302 146.9C98.7302 146.33 99.1402 146.06 99.6902 146.08C100.29 146.09 100.66 146.45 100.69 146.91H102.23C102.14 145.65 101.16 144.92 99.7302 144.92C98.2902 144.92 97.2702 145.68 97.2702 146.94C97.2602 149.47 100.86 148.56 100.86 150.07C100.86 150.57 100.47 150.92 99.8102 150.92C99.1602 150.92 98.7902 150.55 98.7502 149.99H97.2502C97.2702 151.31 98.3902 152.07 99.8402 152.07C101.43 152.07 102.31 151.08 102.31 149.98Z" fill="#FBBC05"/>
</g>
<path fill-rule="evenodd" clip-rule="evenodd" d="M250.438 54.3003C250.838 54.7007 251 56 250 57L237.893 68.2952C237.172 69.016 236.003 69.016 235.283 68.2952L229.3 62.3128C228.9 61.9124 228.9 60.9859 229.3 60.5854C229.701 60.185 230.5 60 231 60.5L235.281 65.1698C235.934 65.8831 237.06 65.8784 237.708 65.1598L247.5 54.3003C248.5 53.3003 250.037 53.8999 250.438 54.3003Z" fill="white"/>
<defs>
<filter id="filter0_i_48_1277" x="215.942" y="39.3138" width="44.0585" height="43.1862" filterUnits="userSpaceOnUse" color-interpolation-filters="sRGB">
<feFlood flood-opacity="0" result="BackgroundImageFix"/>
<feBlend mode="normal" in="SourceGraphic" in2="BackgroundImageFix" result="shape"/>
<feColorMatrix in="SourceAlpha" type="matrix" values="0 0 0 0 0 0 0 0 0 0 0 0 0 0 0 0 0 0 127 0" result="hardAlpha"/>
<feOffset dx="-5.05847" dy="-1.68616"/>
<feGaussianBlur stdDeviation="12.6462"/>
<feComposite in2="hardAlpha" operator="arithmetic" k2="-1" k3="1"/>
<feColorMatrix type="matrix" values="0 0 0 0 0 0 0 0 0 0 0 0 0 0 0 0 0 0 0.1 0"/>
<feBlend mode="normal" in2="shape" result="effect1_innerShadow_48_1277"/>
</filter>
<filter id="filter1_i_48_1277" x="0.941532" y="37.3138" width="29.0585" height="25.6862" filterUnits="userSpaceOnUse" color-interpolation-filters="sRGB">
<feFlood flood-opacity="0" result="BackgroundImageFix"/>
<feBlend mode="normal" in="SourceGraphic" in2="BackgroundImageFix" result="shape"/>
<feColorMatrix in="SourceAlpha" type="matrix" values="0 0 0 0 0 0 0 0 0 0 0 0 0 0 0 0 0 0 127 0" result="hardAlpha"/>
<feOffset dx="-5.05847" dy="-1.68616"/>
<feGaussianBlur stdDeviation="12.6462"/>
<feComposite in2="hardAlpha" operator="arithmetic" k2="-1" k3="1"/>
<feColorMatrix type="matrix" values="0 0 0 0 0 0 0 0 0 0 0 0 0 0 0 0 0 0 0.1 0"/>
<feBlend mode="normal" in2="shape" result="effect1_innerShadow_48_1277"/>
</filter>
<filter id="filter2_i_48_1277" x="227.942" y="178.314" width="29.0585" height="25.6862" filterUnits="userSpaceOnUse" color-interpolation-filters="sRGB">
<feFlood flood-opacity="0" result="BackgroundImageFix"/>
<feBlend mode="normal" in="SourceGraphic" in2="BackgroundImageFix" result="shape"/>
<feColorMatrix in="SourceAlpha" type="matrix" values="0 0 0 0 0 0 0 0 0 0 0 0 0 0 0 0 0 0 127 0" result="hardAlpha"/>
<feOffset dx="-5.05847" dy="-1.68616"/>
<feGaussianBlur stdDeviation="12.6462"/>
<feComposite in2="hardAlpha" operator="arithmetic" k2="-1" k3="1"/>
<feColorMatrix type="matrix" values="0 0 0 0 0 0 0 0 0 0 0 0 0 0 0 0 0 0 0.1 0"/>
<feBlend mode="normal" in2="shape" result="effect1_innerShadow_48_1277"/>
</filter>
<filter id="filter3_i_48_1277" x="17.4039" y="176.234" width="14.5961" height="14.7664" filterUnits="userSpaceOnUse" color-interpolation-filters="sRGB">
<feFlood flood-opacity="0" result="BackgroundImageFix"/>
<feBlend mode="normal" in="SourceGraphic" in2="BackgroundImageFix" result="shape"/>
<feColorMatrix in="SourceAlpha" type="matrix" values="0 0 0 0 0 0 0 0 0 0 0 0 0 0 0 0 0 0 127 0" result="hardAlpha"/>
<feOffset dx="-0.596051" dy="-0.766351"/>
<feGaussianBlur stdDeviation="1.27725"/>
<feComposite in2="hardAlpha" operator="arithmetic" k2="-1" k3="1"/>
<feColorMatrix type="matrix" values="0 0 0 0 0 0 0 0 0 0 0 0 0 0 0 0 0 0 0.1 0"/>
<feBlend mode="normal" in2="shape" result="effect1_innerShadow_48_1277"/>
</filter>
<filter id="filter4_i_48_1277" x="53.9415" y="36.3138" width="92.0585" height="181.686" filterUnits="userSpaceOnUse" color-interpolation-filters="sRGB">
<feFlood flood-opacity="0" result="BackgroundImageFix"/>
<feBlend mode="normal" in="SourceGraphic" in2="BackgroundImageFix" result="shape"/>
<feColorMatrix in="SourceAlpha" type="matrix" values="0 0 0 0 0 0 0 0 0 0 0 0 0 0 0 0 0 0 127 0" result="hardAlpha"/>
<feOffset dx="-5.05847" dy="-1.68616"/>
<feGaussianBlur stdDeviation="12.6462"/>
<feComposite in2="hardAlpha" operator="arithmetic" k2="-1" k3="1"/>
<feColorMatrix type="matrix" values="0 0 0 0 0 0 0 0 0 0 0 0 0 0 0 0 0 0 0.1 0"/>
<feBlend mode="normal" in2="shape" result="effect1_innerShadow_48_1277"/>
</filter>
<filter id="filter5_i_48_1277" x="71.6897" y="171.601" width="63.3103" height="28.5147" filterUnits="userSpaceOnUse" color-interpolation-filters="sRGB">
<feFlood flood-opacity="0" result="BackgroundImageFix"/>
<feBlend mode="normal" in="SourceGraphic" in2="BackgroundImageFix" result="shape"/>
<feColorMatrix in="SourceAlpha" type="matrix" values="0 0 0 0 0 0 0 0 0 0 0 0 0 0 0 0 0 0 127 0" result="hardAlpha"/>
<feOffset dx="-0.310341" dy="-0.399009"/>
<feGaussianBlur stdDeviation="0.665016"/>
<feComposite in2="hardAlpha" operator="arithmetic" k2="-1" k3="1"/>
<feColorMatrix type="matrix" values="0 0 0 0 0 0 0 0 0 0 0 0 0 0 0 0 0 0 0.1 0"/>
<feBlend mode="normal" in2="shape" result="effect1_innerShadow_48_1277"/>
</filter>
<filter id="filter6_i_48_1277" x="77.1357" y="178.049" width="14.9246" height="17.9155" filterUnits="userSpaceOnUse" color-interpolation-filters="sRGB">
<feFlood flood-opacity="0" result="BackgroundImageFix"/>
<feBlend mode="normal" in="SourceGraphic" in2="BackgroundImageFix" result="shape"/>
<feColorMatrix in="SourceAlpha" type="matrix" values="0 0 0 0 0 0 0 0 0 0 0 0 0 0 0 0 0 0 127 0" result="hardAlpha"/>
<feOffset dx="-0.0708285" dy="-0.0910652"/>
<feGaussianBlur stdDeviation="0.151775"/>
<feComposite in2="hardAlpha" operator="arithmetic" k2="-1" k3="1"/>
<feColorMatrix type="matrix" values="0 0 0 0 0 0 0 0 0 0 0 0 0 0 0 0 0 0 0.1 0"/>
<feBlend mode="normal" in2="shape" result="effect1_innerShadow_48_1277"/>
</filter>
<filter id="filter7_i_48_1277" x="83.4978" y="175.444" width="2.38357" height="1.98281" filterUnits="userSpaceOnUse" color-interpolation-filters="sRGB">
<feFlood flood-opacity="0" result="BackgroundImageFix"/>
<feBlend mode="normal" in="SourceGraphic" in2="BackgroundImageFix" result="shape"/>
<feColorMatrix in="SourceAlpha" type="matrix" values="0 0 0 0 0 0 0 0 0 0 0 0 0 0 0 0 0 0 127 0" result="hardAlpha"/>
<feOffset dx="-0.601096" dy="-0.200365"/>
<feGaussianBlur stdDeviation="1.50274"/>
<feComposite in2="hardAlpha" operator="arithmetic" k2="-1" k3="1"/>
<feColorMatrix type="matrix" values="0 0 0 0 0 0 0 0 0 0 0 0 0 0 0 0 0 0 0.1 0"/>
<feBlend mode="normal" in2="shape" result="effect1_innerShadow_48_1277"/>
</filter>
<filter id="filter8_i_48_1277" x="81.3586" y="176.87" width="6.5425" height="2.81462" filterUnits="userSpaceOnUse" color-interpolation-filters="sRGB">
<feFlood flood-opacity="0" result="BackgroundImageFix"/>
<feBlend mode="normal" in="SourceGraphic" in2="BackgroundImageFix" result="shape"/>
<feColorMatrix in="SourceAlpha" type="matrix" values="0 0 0 0 0 0 0 0 0 0 0 0 0 0 0 0 0 0 127 0" result="hardAlpha"/>
<feOffset dx="-0.601096" dy="-0.200365"/>
<feGaussianBlur stdDeviation="1.50274"/>
<feComposite in2="hardAlpha" operator="arithmetic" k2="-1" k3="1"/>
<feColorMatrix type="matrix" values="0 0 0 0 0 0 0 0 0 0 0 0 0 0 0 0 0 0 0.1 0"/>
<feBlend mode="normal" in2="shape" result="effect1_innerShadow_48_1277"/>
</filter>
<filter id="filter9_d_48_1277" x="79.1756" y="181.543" width="5.9763" height="0.985368" filterUnits="userSpaceOnUse" color-interpolation-filters="sRGB">
<feFlood flood-opacity="0" result="BackgroundImageFix"/>
<feColorMatrix in="SourceAlpha" type="matrix" values="0 0 0 0 0 0 0 0 0 0 0 0 0 0 0 0 0 0 127 0" result="hardAlpha"/>
<feOffset dx="0.0255917" dy="0.0341223"/>
<feGaussianBlur stdDeviation="0.0383875"/>
<feComposite in2="hardAlpha" operator="out"/>
<feColorMatrix type="matrix" values="0 0 0 0 0 0 0 0 0 0 0 0 0 0 0 0 0 0 0.25 0"/>
<feBlend mode="normal" in2="BackgroundImageFix" result="effect1_dropShadow_48_1277"/>
<feBlend mode="normal" in="SourceGraphic" in2="effect1_dropShadow_48_1277" result="shape"/>
</filter>
<filter id="filter10_d_48_1277" x="79.1756" y="183.682" width="4.66918" height="0.985368" filterUnits="userSpaceOnUse" color-interpolation-filters="sRGB">
<feFlood flood-opacity="0" result="BackgroundImageFix"/>
<feColorMatrix in="SourceAlpha" type="matrix" values="0 0 0 0 0 0 0 0 0 0 0 0 0 0 0 0 0 0 127 0" result="hardAlpha"/>
<feOffset dx="0.0255917" dy="0.0341223"/>
<feGaussianBlur stdDeviation="0.0383875"/>
<feComposite in2="hardAlpha" operator="out"/>
<feColorMatrix type="matrix" values="0 0 0 0 0 0 0 0 0 0 0 0 0 0 0 0 0 0 0.25 0"/>
<feBlend mode="normal" in2="BackgroundImageFix" result="effect1_dropShadow_48_1277"/>
<feBlend mode="normal" in="SourceGraphic" in2="effect1_dropShadow_48_1277" result="shape"/>
</filter>
<filter id="filter11_d_48_1277" x="79.1756" y="185.821" width="3.4807" height="0.985368" filterUnits="userSpaceOnUse" color-interpolation-filters="sRGB">
<feFlood flood-opacity="0" result="BackgroundImageFix"/>
<feColorMatrix in="SourceAlpha" type="matrix" values="0 0 0 0 0 0 0 0 0 0 0 0 0 0 0 0 0 0 127 0" result="hardAlpha"/>
<feOffset dx="0.0255917" dy="0.0341223"/>
<feGaussianBlur stdDeviation="0.0383875"/>
<feComposite in2="hardAlpha" operator="out"/>
<feColorMatrix type="matrix" values="0 0 0 0 0 0 0 0 0 0 0 0 0 0 0 0 0 0 0.25 0"/>
<feBlend mode="normal" in2="BackgroundImageFix" result="effect1_dropShadow_48_1277"/>
<feBlend mode="normal" in="SourceGraphic" in2="effect1_dropShadow_48_1277" result="shape"/>
</filter>
<filter id="filter12_d_48_1277" x="79.1756" y="187.96" width="10.8481" height="0.985368" filterUnits="userSpaceOnUse" color-interpolation-filters="sRGB">
<feFlood flood-opacity="0" result="BackgroundImageFix"/>
<feColorMatrix in="SourceAlpha" type="matrix" values="0 0 0 0 0 0 0 0 0 0 0 0 0 0 0 0 0 0 127 0" result="hardAlpha"/>
<feOffset dx="0.0255917" dy="0.0341223"/>
<feGaussianBlur stdDeviation="0.0383875"/>
<feComposite in2="hardAlpha" operator="out"/>
<feColorMatrix type="matrix" values="0 0 0 0 0 0 0 0 0 0 0 0 0 0 0 0 0 0 0.25 0"/>
<feBlend mode="normal" in2="BackgroundImageFix" result="effect1_dropShadow_48_1277"/>
<feBlend mode="normal" in="SourceGraphic" in2="effect1_dropShadow_48_1277" result="shape"/>
</filter>
<filter id="filter13_d_48_1277" x="79.1756" y="190.099" width="10.8481" height="0.985368" filterUnits="userSpaceOnUse" color-interpolation-filters="sRGB">
<feFlood flood-opacity="0" result="BackgroundImageFix"/>
<feColorMatrix in="SourceAlpha" type="matrix" values="0 0 0 0 0 0 0 0 0 0 0 0 0 0 0 0 0 0 127 0" result="hardAlpha"/>
<feOffset dx="0.0255917" dy="0.0341223"/>
<feGaussianBlur stdDeviation="0.0383875"/>
<feComposite in2="hardAlpha" operator="out"/>
<feColorMatrix type="matrix" values="0 0 0 0 0 0 0 0 0 0 0 0 0 0 0 0 0 0 0.25 0"/>
<feBlend mode="normal" in2="BackgroundImageFix" result="effect1_dropShadow_48_1277"/>
<feBlend mode="normal" in="SourceGraphic" in2="effect1_dropShadow_48_1277" result="shape"/>
</filter>
<filter id="filter14_d_48_1277" x="79.1756" y="192.238" width="10.8481" height="0.985368" filterUnits="userSpaceOnUse" color-interpolation-filters="sRGB">
<feFlood flood-opacity="0" result="BackgroundImageFix"/>
<feColorMatrix in="SourceAlpha" type="matrix" values="0 0 0 0 0 0 0 0 0 0 0 0 0 0 0 0 0 0 127 0" result="hardAlpha"/>
<feOffset dx="0.0255917" dy="0.0341223"/>
<feGaussianBlur stdDeviation="0.0383875"/>
<feComposite in2="hardAlpha" operator="out"/>
<feColorMatrix type="matrix" values="0 0 0 0 0 0 0 0 0 0 0 0 0 0 0 0 0 0 0.25 0"/>
<feBlend mode="normal" in2="BackgroundImageFix" result="effect1_dropShadow_48_1277"/>
<feBlend mode="normal" in="SourceGraphic" in2="effect1_dropShadow_48_1277" result="shape"/>
</filter>
<filter id="filter15_i_48_1277" x="81.7027" y="180.708" width="8.21871" height="5.9876" filterUnits="userSpaceOnUse" color-interpolation-filters="sRGB">
<feFlood flood-opacity="0" result="BackgroundImageFix"/>
<feBlend mode="normal" in="SourceGraphic" in2="BackgroundImageFix" result="shape"/>
<feColorMatrix in="SourceAlpha" type="matrix" values="0 0 0 0 0 0 0 0 0 0 0 0 0 0 0 0 0 0 127 0" result="hardAlpha"/>
<feOffset dx="-2.63375" dy="-0.877916"/>
<feGaussianBlur stdDeviation="6.58437"/>
<feComposite in2="hardAlpha" operator="arithmetic" k2="-1" k3="1"/>
<feColorMatrix type="matrix" values="0 0 0 0 0 0 0 0 0 0 0 0 0 0 0 0 0 0 0.1 0"/>
<feBlend mode="normal" in2="shape" result="effect1_innerShadow_48_1277"/>
</filter>
<filter id="filter16_d_48_1277" x="86.7806" y="182.851" width="0.628892" height="2.17366" filterUnits="userSpaceOnUse" color-interpolation-filters="sRGB">
<feFlood flood-opacity="0" result="BackgroundImageFix"/>
<feColorMatrix in="SourceAlpha" type="matrix" values="0 0 0 0 0 0 0 0 0 0 0 0 0 0 0 0 0 0 127 0" result="hardAlpha"/>
<feOffset dx="0.0255917" dy="0.0341223"/>
<feGaussianBlur stdDeviation="0.0383875"/>
<feComposite in2="hardAlpha" operator="out"/>
<feColorMatrix type="matrix" values="0 0 0 0 0 0 0 0 0 0 0 0 0 0 0 0 0 0 0.25 0"/>
<feBlend mode="normal" in2="BackgroundImageFix" result="effect1_dropShadow_48_1277"/>
<feBlend mode="normal" in="SourceGraphic" in2="effect1_dropShadow_48_1277" result="shape"/>
</filter>
<filter id="filter17_d_48_1277" x="86.6617" y="185.108" width="0.866441" height="0.866532" filterUnits="userSpaceOnUse" color-interpolation-filters="sRGB">
<feFlood flood-opacity="0" result="BackgroundImageFix"/>
<feColorMatrix in="SourceAlpha" type="matrix" values="0 0 0 0 0 0 0 0 0 0 0 0 0 0 0 0 0 0 127 0" result="hardAlpha"/>
<feOffset dx="0.0255917" dy="0.0341223"/>
<feGaussianBlur stdDeviation="0.0383875"/>
<feComposite in2="hardAlpha" operator="out"/>
<feColorMatrix type="matrix" values="0 0 0 0 0 0 0 0 0 0 0 0 0 0 0 0 0 0 0.25 0"/>
<feBlend mode="normal" in2="BackgroundImageFix" result="effect1_dropShadow_48_1277"/>
<feBlend mode="normal" in="SourceGraphic" in2="effect1_dropShadow_48_1277" result="shape"/>
</filter>
<filter id="filter18_i_48_1277" x="94.358" y="174.767" width="15.1296" height="13.3738" filterUnits="userSpaceOnUse" color-interpolation-filters="sRGB">
<feFlood flood-opacity="0" result="BackgroundImageFix"/>
<feBlend mode="normal" in="SourceGraphic" in2="BackgroundImageFix" result="shape"/>
<feColorMatrix in="SourceAlpha" type="matrix" values="0 0 0 0 0 0 0 0 0 0 0 0 0 0 0 0 0 0 127 0" result="hardAlpha"/>
<feOffset dx="-2.63375" dy="-0.877916"/>
<feGaussianBlur stdDeviation="6.58437"/>
<feComposite in2="hardAlpha" operator="arithmetic" k2="-1" k3="1"/>
<feColorMatrix type="matrix" values="0 0 0 0 0 0 0 0 0 0 0 0 0 0 0 0 0 0 0.1 0"/>
<feBlend mode="normal" in2="shape" result="effect1_innerShadow_48_1277"/>
</filter>
<filter id="filter19_i_48_1277" x="96.6814" y="190.345" width="33.6326" height="1.96099" filterUnits="userSpaceOnUse" color-interpolation-filters="sRGB">
<feFlood flood-opacity="0" result="BackgroundImageFix"/>
<feBlend mode="normal" in="SourceGraphic" in2="BackgroundImageFix" result="shape"/>
<feColorMatrix in="SourceAlpha" type="matrix" values="0 0 0 0 0 0 0 0 0 0 0 0 0 0 0 0 0 0 127 0" result="hardAlpha"/>
<feOffset dx="-0.310341" dy="-0.399009"/>
<feGaussianBlur stdDeviation="0.665016"/>
<feComposite in2="hardAlpha" operator="arithmetic" k2="-1" k3="1"/>
<feColorMatrix type="matrix" values="0 0 0 0 0 0 0 0 0 0 0 0 0 0 0 0 0 0 0.1 0"/>
<feBlend mode="normal" in2="shape" result="effect1_innerShadow_48_1277"/>
</filter>
<filter id="filter20_i_48_1277" x="112.301" y="182.535" width="18.0127" height="1.96099" filterUnits="userSpaceOnUse" color-interpolation-filters="sRGB">
<feFlood flood-opacity="0" result="BackgroundImageFix"/>
<feBlend mode="normal" in="SourceGraphic" in2="BackgroundImageFix" result="shape"/>
<feColorMatrix in="SourceAlpha" type="matrix" values="0 0 0 0 0 0 0 0 0 0 0 0 0 0 0 0 0 0 127 0" result="hardAlpha"/>
<feOffset dx="-0.310341" dy="-0.399009"/>
<feGaussianBlur stdDeviation="0.665016"/>
<feComposite in2="hardAlpha" operator="arithmetic" k2="-1" k3="1"/>
<feColorMatrix type="matrix" values="0 0 0 0 0 0 0 0 0 0 0 0 0 0 0 0 0 0 0.1 0"/>
<feBlend mode="normal" in2="shape" result="effect1_innerShadow_48_1277"/>
</filter>
<filter id="filter21_i_48_1277" x="96.6814" y="193.989" width="33.6326" height="1.96099" filterUnits="userSpaceOnUse" color-interpolation-filters="sRGB">
<feFlood flood-opacity="0" result="BackgroundImageFix"/>
<feBlend mode="normal" in="SourceGraphic" in2="BackgroundImageFix" result="shape"/>
<feColorMatrix in="SourceAlpha" type="matrix" values="0 0 0 0 0 0 0 0 0 0 0 0 0 0 0 0 0 0 127 0" result="hardAlpha"/>
<feOffset dx="-0.310341" dy="-0.399009"/>
<feGaussianBlur stdDeviation="0.665016"/>
<feComposite in2="hardAlpha" operator="arithmetic" k2="-1" k3="1"/>
<feColorMatrix type="matrix" values="0 0 0 0 0 0 0 0 0 0 0 0 0 0 0 0 0 0 0.1 0"/>
<feBlend mode="normal" in2="shape" result="effect1_innerShadow_48_1277"/>
</filter>
<filter id="filter22_i_48_1277" x="112.301" y="186.18" width="18.0127" height="1.96099" filterUnits="userSpaceOnUse" color-interpolation-filters="sRGB">
<feFlood flood-opacity="0" result="BackgroundImageFix"/>
<feBlend mode="normal" in="SourceGraphic" in2="BackgroundImageFix" result="shape"/>
<feColorMatrix in="SourceAlpha" type="matrix" values="0 0 0 0 0 0 0 0 0 0 0 0 0 0 0 0 0 0 127 0" result="hardAlpha"/>
<feOffset dx="-0.310341" dy="-0.399009"/>
<feGaussianBlur stdDeviation="0.665016"/>
<feComposite in2="hardAlpha" operator="arithmetic" k2="-1" k3="1"/>
<feColorMatrix type="matrix" values="0 0 0 0 0 0 0 0 0 0 0 0 0 0 0 0 0 0 0.1 0"/>
<feBlend mode="normal" in2="shape" result="effect1_innerShadow_48_1277"/>
</filter>
<filter id="filter23_i_48_1277" x="165.497" y="130.024" width="41.678" height="85.3314" filterUnits="userSpaceOnUse" color-interpolation-filters="sRGB">
<feFlood flood-opacity="0" result="BackgroundImageFix"/>
<feBlend mode="normal" in="SourceGraphic" in2="BackgroundImageFix" result="shape"/>
<feColorMatrix in="SourceAlpha" type="matrix" values="0 0 0 0 0 0 0 0 0 0 0 0 0 0 0 0 0 0 127 0" result="hardAlpha"/>
<feOffset dx="-2.66965" dy="-0.889885"/>
<feGaussianBlur stdDeviation="6.67414"/>
<feComposite in2="hardAlpha" operator="arithmetic" k2="-1" k3="1"/>
<feColorMatrix type="matrix" values="0 0 0 0 0 0 0 0 0 0 0 0 0 0 0 0 0 0 0.1 0"/>
<feBlend mode="normal" in2="shape" result="effect1_innerShadow_48_1277"/>
</filter>
<filter id="filter24_i_48_1277" x="164.685" y="78.2611" width="50.4518" height="56.101" filterUnits="userSpaceOnUse" color-interpolation-filters="sRGB">
<feFlood flood-opacity="0" result="BackgroundImageFix"/>
<feBlend mode="normal" in="SourceGraphic" in2="BackgroundImageFix" result="shape"/>
<feColorMatrix in="SourceAlpha" type="matrix" values="0 0 0 0 0 0 0 0 0 0 0 0 0 0 0 0 0 0 127 0" result="hardAlpha"/>
<feOffset dx="-0.314572" dy="-0.404449"/>
<feGaussianBlur stdDeviation="0.674082"/>
<feComposite in2="hardAlpha" operator="arithmetic" k2="-1" k3="1"/>
<feColorMatrix type="matrix" values="0 0 0 0 0 0 0 0 0 0 0 0 0 0 0 0 0 0 0.1 0"/>
<feBlend mode="normal" in2="shape" result="effect1_innerShadow_48_1277"/>
</filter>
<filter id="filter25_i_48_1277" x="31.3174" y="76.1224" width="104.683" height="86.1388" filterUnits="userSpaceOnUse" color-interpolation-filters="sRGB">
<feFlood flood-opacity="0" result="BackgroundImageFix"/>
<feBlend mode="normal" in="SourceGraphic" in2="BackgroundImageFix" result="shape"/>
<feColorMatrix in="SourceAlpha" type="matrix" values="0 0 0 0 0 0 0 0 0 0 0 0 0 0 0 0 0 0 127 0" result="hardAlpha"/>
<feOffset dx="-0.682565" dy="-0.877583"/>
<feGaussianBlur stdDeviation="1.46264"/>
<feComposite in2="hardAlpha" operator="arithmetic" k2="-1" k3="1"/>
<feColorMatrix type="matrix" values="0 0 0 0 0 0 0 0 0 0 0 0 0 0 0 0 0 0 0.1 0"/>
<feBlend mode="normal" in2="shape" result="effect1_innerShadow_48_1277"/>
</filter>
<filter id="filter26_i_48_1277" x="57.0218" y="86.3406" width="51.8917" height="46.7167" filterUnits="userSpaceOnUse" color-interpolation-filters="sRGB">
<feFlood flood-opacity="0" result="BackgroundImageFix"/>
<feBlend mode="normal" in="SourceGraphic" in2="BackgroundImageFix" result="shape"/>
<feColorMatrix in="SourceAlpha" type="matrix" values="0 0 0 0 0 0 0 0 0 0 0 0 0 0 0 0 0 0 127 0" result="hardAlpha"/>
<feOffset dx="-1.97815" dy="-0.659384"/>
<feGaussianBlur stdDeviation="4.94538"/>
<feComposite in2="hardAlpha" operator="arithmetic" k2="-1" k3="1"/>
<feColorMatrix type="matrix" values="0 0 0 0 0 0 0 0 0 0 0 0 0 0 0 0 0 0 0.1 0"/>
<feBlend mode="normal" in2="shape" result="effect1_innerShadow_48_1277"/>
</filter>
<filter id="filter27_i_48_1277" x="67.8429" y="91.3616" width="31.9286" height="38.3274" filterUnits="userSpaceOnUse" color-interpolation-filters="sRGB">
<feFlood flood-opacity="0" result="BackgroundImageFix"/>
<feBlend mode="normal" in="SourceGraphic" in2="BackgroundImageFix" result="shape"/>
<feColorMatrix in="SourceAlpha" type="matrix" values="0 0 0 0 0 0 0 0 0 0 0 0 0 0 0 0 0 0 127 0" result="hardAlpha"/>
<feOffset dx="-0.151526" dy="-0.19482"/>
<feGaussianBlur stdDeviation="0.324699"/>
<feComposite in2="hardAlpha" operator="arithmetic" k2="-1" k3="1"/>
<feColorMatrix type="matrix" values="0 0 0 0 0 0 0 0 0 0 0 0 0 0 0 0 0 0 0.1 0"/>
<feBlend mode="normal" in2="shape" result="effect1_innerShadow_48_1277"/>
</filter>
<filter id="filter28_d_48_1277" x="72.1864" y="96.6852" width="7.75867" height="2.28379" filterUnits="userSpaceOnUse" color-interpolation-filters="sRGB">
<feFlood flood-opacity="0" result="BackgroundImageFix"/>
<feColorMatrix in="SourceAlpha" type="matrix" values="0 0 0 0 0 0 0 0 0 0 0 0 0 0 0 0 0 0 127 0" result="hardAlpha"/>
<feOffset dx="0.0547494" dy="0.0729992"/>
<feGaussianBlur stdDeviation="0.0821241"/>
<feComposite in2="hardAlpha" operator="out"/>
<feColorMatrix type="matrix" values="0 0 0 0 0 0 0 0 0 0 0 0 0 0 0 0 0 0 0.25 0"/>
<feBlend mode="normal" in2="BackgroundImageFix" result="effect1_dropShadow_48_1277"/>
<feBlend mode="normal" in="SourceGraphic" in2="effect1_dropShadow_48_1277" result="shape"/>
</filter>
<filter id="filter29_d_48_1277" x="72.1864" y="101.378" width="7.75867" height="1.89274" filterUnits="userSpaceOnUse" color-interpolation-filters="sRGB">
<feFlood flood-opacity="0" result="BackgroundImageFix"/>
<feColorMatrix in="SourceAlpha" type="matrix" values="0 0 0 0 0 0 0 0 0 0 0 0 0 0 0 0 0 0 127 0" result="hardAlpha"/>
<feOffset dx="0.0547494" dy="0.0729992"/>
<feGaussianBlur stdDeviation="0.0821241"/>
<feComposite in2="hardAlpha" operator="out"/>
<feColorMatrix type="matrix" values="0 0 0 0 0 0 0 0 0 0 0 0 0 0 0 0 0 0 0.25 0"/>
<feBlend mode="normal" in2="BackgroundImageFix" result="effect1_dropShadow_48_1277"/>
<feBlend mode="normal" in="SourceGraphic" in2="effect1_dropShadow_48_1277" result="shape"/>
</filter>
<filter id="filter30_d_48_1277" x="72.2064" y="105.837" width="7.44666" height="2.10801" filterUnits="userSpaceOnUse" color-interpolation-filters="sRGB">
<feFlood flood-opacity="0" result="BackgroundImageFix"/>
<feColorMatrix in="SourceAlpha" type="matrix" values="0 0 0 0 0 0 0 0 0 0 0 0 0 0 0 0 0 0 127 0" result="hardAlpha"/>
<feOffset dx="0.0547494" dy="0.0729992"/>
<feGaussianBlur stdDeviation="0.0821241"/>
<feComposite in2="hardAlpha" operator="out"/>
<feColorMatrix type="matrix" values="0 0 0 0 0 0 0 0 0 0 0 0 0 0 0 0 0 0 0.25 0"/>
<feBlend mode="normal" in2="BackgroundImageFix" result="effect1_dropShadow_48_1277"/>
<feBlend mode="normal" in="SourceGraphic" in2="effect1_dropShadow_48_1277" result="shape"/>
</filter>
<filter id="filter31_d_48_1277" x="72.2064" y="110.413" width="23.2081" height="2.10801" filterUnits="userSpaceOnUse" color-interpolation-filters="sRGB">
<feFlood flood-opacity="0" result="BackgroundImageFix"/>
<feColorMatrix in="SourceAlpha" type="matrix" values="0 0 0 0 0 0 0 0 0 0 0 0 0 0 0 0 0 0 127 0" result="hardAlpha"/>
<feOffset dx="0.0547494" dy="0.0729992"/>
<feGaussianBlur stdDeviation="0.0821241"/>
<feComposite in2="hardAlpha" operator="out"/>
<feColorMatrix type="matrix" values="0 0 0 0 0 0 0 0 0 0 0 0 0 0 0 0 0 0 0.25 0"/>
<feBlend mode="normal" in2="BackgroundImageFix" result="effect1_dropShadow_48_1277"/>
<feBlend mode="normal" in="SourceGraphic" in2="effect1_dropShadow_48_1277" result="shape"/>
</filter>
<filter id="filter32_d_48_1277" x="72.2064" y="114.989" width="23.2081" height="2.10801" filterUnits="userSpaceOnUse" color-interpolation-filters="sRGB">
<feFlood flood-opacity="0" result="BackgroundImageFix"/>
<feColorMatrix in="SourceAlpha" type="matrix" values="0 0 0 0 0 0 0 0 0 0 0 0 0 0 0 0 0 0 127 0" result="hardAlpha"/>
<feOffset dx="0.0547494" dy="0.0729992"/>
<feGaussianBlur stdDeviation="0.0821241"/>
<feComposite in2="hardAlpha" operator="out"/>
<feColorMatrix type="matrix" values="0 0 0 0 0 0 0 0 0 0 0 0 0 0 0 0 0 0 0.25 0"/>
<feBlend mode="normal" in2="BackgroundImageFix" result="effect1_dropShadow_48_1277"/>
<feBlend mode="normal" in="SourceGraphic" in2="effect1_dropShadow_48_1277" result="shape"/>
</filter>
<filter id="filter33_d_48_1277" x="72.2064" y="119.565" width="23.2081" height="2.10801" filterUnits="userSpaceOnUse" color-interpolation-filters="sRGB">
<feFlood flood-opacity="0" result="BackgroundImageFix"/>
<feColorMatrix in="SourceAlpha" type="matrix" values="0 0 0 0 0 0 0 0 0 0 0 0 0 0 0 0 0 0 127 0" result="hardAlpha"/>
<feOffset dx="0.0547494" dy="0.0729992"/>
<feGaussianBlur stdDeviation="0.0821241"/>
<feComposite in2="hardAlpha" operator="out"/>
<feColorMatrix type="matrix" values="0 0 0 0 0 0 0 0 0 0 0 0 0 0 0 0 0 0 0.25 0"/>
<feBlend mode="normal" in2="BackgroundImageFix" result="effect1_dropShadow_48_1277"/>
<feBlend mode="normal" in="SourceGraphic" in2="effect1_dropShadow_48_1277" result="shape"/>
</filter>
<filter id="filter34_i_48_1277" x="57.0218" y="109.022" width="51.8917" height="24.2158" filterUnits="userSpaceOnUse" color-interpolation-filters="sRGB">
<feFlood flood-opacity="0" result="BackgroundImageFix"/>
<feBlend mode="normal" in="SourceGraphic" in2="BackgroundImageFix" result="shape"/>
<feColorMatrix in="SourceAlpha" type="matrix" values="0 0 0 0 0 0 0 0 0 0 0 0 0 0 0 0 0 0 127 0" result="hardAlpha"/>
<feOffset dx="-1.97815" dy="-0.659384"/>
<feGaussianBlur stdDeviation="4.94538"/>
<feComposite in2="hardAlpha" operator="arithmetic" k2="-1" k3="1"/>
<feColorMatrix type="matrix" values="0 0 0 0 0 0 0 0 0 0 0 0 0 0 0 0 0 0 0.1 0"/>
<feBlend mode="normal" in2="shape" result="effect1_innerShadow_48_1277"/>
</filter>
<filter id="filter35_i_48_1277" x="80.4852" y="95.3349" width="14.8829" height="13.5643" filterUnits="userSpaceOnUse" color-interpolation-filters="sRGB">
<feFlood flood-opacity="0" result="BackgroundImageFix"/>
<feBlend mode="normal" in="SourceGraphic" in2="BackgroundImageFix" result="shape"/>
<feColorMatrix in="SourceAlpha" type="matrix" values="0 0 0 0 0 0 0 0 0 0 0 0 0 0 0 0 0 0 127 0" result="hardAlpha"/>
<feOffset dx="-1.97815" dy="-0.659384"/>
<feGaussianBlur stdDeviation="4.94538"/>
<feComposite in2="hardAlpha" operator="arithmetic" k2="-1" k3="1"/>
<feColorMatrix type="matrix" values="0 0 0 0 0 0 0 0 0 0 0 0 0 0 0 0 0 0 0.1 0"/>
<feBlend mode="normal" in2="shape" result="effect1_innerShadow_48_1277"/>
</filter>
<filter id="filter36_d_48_1277" x="84.3092" y="99.4225" width="8.93177" height="6.19437" filterUnits="userSpaceOnUse" color-interpolation-filters="sRGB">
<feFlood flood-opacity="0" result="BackgroundImageFix"/>
<feColorMatrix in="SourceAlpha" type="matrix" values="0 0 0 0 0 0 0 0 0 0 0 0 0 0 0 0 0 0 127 0" result="hardAlpha"/>
<feOffset dx="0.0547494" dy="0.0729992"/>
<feGaussianBlur stdDeviation="0.0821241"/>
<feComposite in2="hardAlpha" operator="out"/>
<feColorMatrix type="matrix" values="0 0 0 0 0 0 0 0 0 0 0 0 0 0 0 0 0 0 0.25 0"/>
<feBlend mode="normal" in2="BackgroundImageFix" result="effect1_dropShadow_48_1277"/>
<feBlend mode="normal" in="SourceGraphic" in2="effect1_dropShadow_48_1277" result="shape"/>
</filter>
<filter id="filter37_i_48_1277" x="60.914" y="144.154" width="41.3963" height="7.91635" filterUnits="userSpaceOnUse" color-interpolation-filters="sRGB">
<feFlood flood-opacity="0" result="BackgroundImageFix"/>
<feBlend mode="normal" in="SourceGraphic" in2="BackgroundImageFix" result="shape"/>
<feColorMatrix in="SourceAlpha" type="matrix" values="0 0 0 0 0 0 0 0 0 0 0 0 0 0 0 0 0 0 127 0" result="hardAlpha"/>
<feOffset dx="-0.596051" dy="-0.766351"/>
<feGaussianBlur stdDeviation="1.27725"/>
<feComposite in2="hardAlpha" operator="arithmetic" k2="-1" k3="1"/>
<feColorMatrix type="matrix" values="0 0 0 0 0 0 0 0 0 0 0 0 0 0 0 0 0 0 0.1 0"/>
<feBlend mode="normal" in2="shape" result="effect1_innerShadow_48_1277"/>
</filter>
<linearGradient id="paint0_linear_48_1277" x1="165" y1="99.0423" x2="210.898" y2="118.418" gradientUnits="userSpaceOnUse">
<stop stop-color="#FFC977"/>
<stop offset="1" stop-color="#FB9905"/>
</linearGradient>
</defs>
</svg>
