<svg width="164" height="218" viewBox="0 0 164 218" fill="none" xmlns="http://www.w3.org/2000/svg">
<rect x="3.1333" width="16.6662" height="21.7586" fill="#7F60FC"/>
<rect x="3.1333" y="76.3864" width="16.6662" height="21.7586" fill="#7F60FC"/>
<rect x="130.445" y="76.3864" width="16.6662" height="21.7586" fill="#7F60FC"/>
<rect x="131.833" width="16.6662" height="21.7586" fill="#7F60FC"/>
<rect x="4.05908" y="1.38872" width="143.051" height="95.3676" fill="#8061FF"/>
<rect x="8.22632" y="5.09273" width="133.792" height="85.1827" fill="white"/>
<rect x="21.6519" y="23.1472" width="1.8518" height="60.6464" fill="#7F60FC"/>
<rect x="21.6519" y="81.9423" width="102.312" height="1.8518" fill="#7F60FC"/>
<rect x="29.5215" y="52.7759" width="9.25899" height="29.1658" fill="#F3B505"/>
<rect x="40.1689" y="37.0359" width="9.25899" height="44.9061" fill="#F3B505"/>
<rect x="50.8167" y="39.3508" width="9.25899" height="42.5913" fill="#F3B505"/>
<rect x="61.928" y="52.7759" width="9.25899" height="29.1658" fill="#F3B505"/>
<rect x="72.5757" y="68.9794" width="9.25899" height="12.9626" fill="#F3B505"/>
<rect x="83.2239" y="39.3508" width="9.25899" height="42.5913" fill="#F3B505"/>
<rect x="93.8716" y="32.8693" width="9.25899" height="49.0726" fill="#F3B505"/>
<rect x="104.519" y="31.4805" width="9.25899" height="50.4615" fill="#F3B505"/>
<circle cx="111.001" cy="31.4807" r="2.88552" stroke="#7659EB" stroke-width="0.710259"/>
<path d="M24.1978 65.9703C27.0526 63.347 33.0401 59.6279 34.1512 65.7389C34.6141 70.8312 38.7807 74.3033 42.7157 66.4332C43.8268 63.2851 47.0366 53.3935 48.5026 48.8411C50.663 45.7548 55.4468 41.6191 57.2986 49.767C57.2986 52.5447 57.6073 55.2453 57.7616 56.2483C58.0702 58.4859 59.6134 62.0352 63.317 58.3316C64.2429 56.8501 64.4743 54.0107 64.4743 52.7762C65.3231 50.23 67.9928 46.6653 71.8815 52.7762C72.4371 55.1835 72.576 59.026 72.576 60.6463C72.4988 62.7296 72.9463 67.2665 75.3537 68.7479C78.3628 70.5997 80.9091 68.5165 80.9091 64.8129C80.9091 61.85 81.6806 54.3194 82.0664 50.9244C83.0695 47.4523 85.8163 42.0358 88.7792 48.1467C89.1495 51.8503 89.2421 53.8564 89.2421 54.3965C89.7822 56.5569 91.7421 59.7204 95.2605 55.0909C96.7419 51.7577 97.7295 44.4431 98.0382 41.2025C98.1925 39.1963 99.2881 34.9526 102.436 34.0267C105.584 33.1008 109.303 32.4064 110.769 32.1749" stroke="#7F60FC" stroke-width="0.710259"/>
<circle cx="77.206" cy="68.9795" r="2.88552" stroke="#7F60FC" stroke-width="0.710259"/>
<path d="M117.919 76.9811H114.143C113.949 88.4042 114.433 110.949 119.08 110.949C123.727 110.949 124.701 109.497 124.598 108.056C124.017 99.9242 122.856 82.9637 122.856 80.1757C122.856 77.3877 119.564 76.8843 117.919 76.9811Z" fill="#153E55"/>
<path d="M85.3914 76.9811C82.1387 76.9811 81.9064 79.1109 82.1968 80.1758C82.7776 88.0171 83.9975 104.455 84.2298 107.475C84.4622 110.496 86.4564 111.057 87.4244 110.96C95.7498 110.864 113.446 110.728 117.628 110.96C121.81 111.193 121.504 108.917 121.404 107.475C120.92 100.505 119.952 85.8099 119.952 82.7895C120.242 79.0141 118.306 77.4652 117.047 76.9811H85.3914Z" fill="#1F4171"/>
<mask id="mask0_193_673" style="mask-type:alpha" maskUnits="userSpaceOnUse" x="82" y="76" width="40" height="35">
<path d="M85.3912 76.9801C82.1384 76.9801 81.9061 79.1098 82.1965 80.1747C82.7774 88.0161 83.9972 104.454 84.2296 107.474C84.4619 110.495 86.4561 111.056 87.4242 110.959C95.7496 110.862 113.446 110.727 117.628 110.959C121.81 111.192 121.403 108.916 121.403 107.474C120.919 100.504 119.951 85.8089 119.951 82.7885C120.242 79.013 118.306 77.4641 117.047 76.9801H85.3912Z" fill="#163561"/>
</mask>
<g mask="url(#mask0_193_673)">
<path d="M126.34 99.0523C107.056 75.5863 87.7141 78.8196 80.4536 83.3696L82.1961 112.992L125.178 115.606L126.34 99.0523Z" fill="#163561"/>
</g>
<path d="M101.655 110.669L103.978 97.0196H104.849L106.592 110.669H101.655Z" fill="#0A1D38"/>
<path d="M94.6848 97.0196L90.6189 118.22H102.236L104.849 97.0196H94.6848Z" fill="#395782"/>
<path d="M47.3464 110.38C49.4375 113.4 49.3794 116.866 49.089 118.221H72.3226L70.8705 110.38H47.3464Z" fill="#F3B505"/>
<path d="M79.293 118.221H72.323L70.8708 110.369L78.7122 113.574L79.293 118.221Z" fill="#FFC3B6"/>
<rect x="0.29248" y="118.232" width="163.359" height="4.26155" rx="2.13078" fill="#8061FF"/>
<path d="M25.2744 122.286H29.9211L28.7595 205.346H26.4361L25.2744 122.286Z" fill="#8061FF"/>
<path d="M140.281 122.286H144.928L143.766 205.346H141.443L140.281 122.286Z" fill="#8061FF"/>
<path d="M125.179 121.705H129.825L128.664 202.441H125.76L125.179 121.705Z" fill="#8061FF"/>
<path d="M122.51 212.908L124.418 205.488H128.87L128.446 214.392C128.234 215.098 127.513 216.596 126.326 216.935C121.068 217.783 121.591 214.604 122.51 212.908Z" fill="#FFC7C7"/>
<path d="M121.874 215.239C122.044 212.696 124.912 212.766 126.326 213.12C126.962 213.261 128.191 213.883 128.022 215.239C127.343 217.274 125.054 217.218 123.994 216.935C123.358 216.935 122.044 216.596 121.874 215.239Z" fill="#355389"/>
<path d="M123.683 61.6028C119.782 54.9889 122.906 48.1064 124.955 45.4919C126.721 44.9973 131.272 44.0504 135.342 44.22C139.412 44.3896 142.126 60.6842 142.973 68.8103L123.259 82.3774C119.867 77.7985 123.259 73.9686 125.379 72.626C126.439 71.7074 127.583 68.2168 123.683 61.6028Z" fill="#FFB27F"/>
<path d="M138.722 217.46C134.143 218.986 134.27 210.181 134.906 205.588C136.107 204.811 138.51 203.808 138.51 206.012C138.51 208.217 139.782 211.029 140.418 212.16C140.842 212.937 141.69 214.746 141.69 215.764C141.69 217.036 140.206 217.248 138.722 217.46L138.722 217.46Z" fill="#FFC7C7"/>
<path d="M117.959 165.052C115.754 152.841 115.627 132.971 115.839 124.562H145.093C149.333 132.363 146.522 161.845 144.191 175.2L139.737 205.812H133.434L130.89 144.277H130.042V205.812H123.683C122.057 193.093 118.637 171.326 117.959 165.052Z" fill="#FBA705"/>
<path d="M115.203 80.0457C108.08 89.8818 104.886 106.19 104.18 113.115L110.539 112.479L114.779 107.816L115.627 125.834C126.311 130.752 139.864 127.177 145.305 124.774L146.789 106.756C147.425 107.392 148.824 108.918 149.333 109.935C149.968 111.207 158.024 115.447 158.236 114.811C158.448 114.175 155.904 99.3362 155.268 96.3684C154.759 93.9941 152.088 86.1931 150.816 82.5893C149.333 79.8335 145.941 72.7956 144.245 66.6904C142.125 59.059 128.963 76.9131 127.903 75.8532C126.843 74.7933 120.503 73.8981 115.203 80.0457Z" fill="#8061FF"/>
<path d="M104.18 115.659C104.349 118.033 114.991 119.475 120.291 119.899C122.057 119.899 128.049 120.323 137.885 119.899C150.169 119.369 139.157 115.659 137.038 115.023C135.122 114.448 123.047 112.055 113.295 111.207C103.544 110.36 103.968 112.691 104.18 115.659Z" fill="#F8AA77"/>
<path d="M158.024 114.387C158.363 110.147 151.382 110.5 147.849 111.207C146.294 111.348 140.641 112.097 130.466 113.963C116.56 119.898 134.847 120.11 145.729 119.474C149.686 119.545 157.685 118.627 158.024 114.387Z" fill="#FFB889"/>
<path d="M135.118 215.127C134.948 213.771 137.874 213.432 139.358 213.432C139.852 213.361 140.884 213.262 141.053 213.432C142.113 216.187 141.477 216.187 141.053 216.823C140.714 217.332 138.368 217.601 137.238 217.671C136.602 217.389 135.287 216.484 135.118 215.127Z" fill="#355389"/>
<path d="M120.079 48.4595C116.009 47.442 122.482 43.6545 126.227 41.888C132.374 38.7082 139.37 39.1322 142.55 42.7359C145.729 46.3397 145.941 53.1232 145.941 56.5149C145.941 59.2283 150.746 70.3646 153.149 75.5936C152.372 77.0775 149.545 80.0453 144.457 80.0453C135.342 77.9254 134.706 64.9943 135.766 63.2985C136.826 61.6026 137.462 56.5149 137.25 55.031C137.038 53.5471 135.13 52.0632 134.282 53.1232C133.434 54.1831 132.586 53.5471 132.162 51.6393C131.738 49.7314 128.982 48.2475 127.711 47.8235C126.693 47.4844 124.601 48.2475 123.683 48.6715C123.4 48.7421 122.284 48.7987 120.079 48.4595Z" fill="#30215A"/>
<path d="M28.0253 202.94C28.4258 202.239 28.4425 198.142 28.4008 196.181L35.8559 195.436C35.8591 195.009 35.8876 195.174 35.9109 195.43L35.8559 195.436C35.8533 195.773 35.8666 196.481 35.9109 197.808C36.011 200.812 41.3765 202.648 44.0468 203.19C45.0064 203.482 47.3512 204.417 49.0535 205.819C52.1827 209.824 48.0522 210.45 46.5502 211.201C45.3485 211.802 41.3765 211.452 39.5407 211.201C38.6646 210.826 36.1111 210.15 32.9069 210.45C27.024 214.205 27.5246 203.816 28.0253 202.94Z" fill="#1C4385"/>
<mask id="mask1_193_673" style="mask-type:alpha" maskUnits="userSpaceOnUse" x="27" y="195" width="24" height="17">
<path d="M28.0253 202.94C28.4258 202.239 28.4425 198.142 28.4008 196.181L35.8559 195.436C35.8591 195.009 35.8876 195.174 35.9109 195.43L35.8559 195.436C35.8533 195.773 35.8666 196.482 35.9109 197.808C36.011 200.812 41.3765 202.648 44.0468 203.191C45.0064 203.483 47.3512 204.417 49.0535 205.819C52.1827 209.825 48.0522 210.45 46.5502 211.201C45.3485 211.802 41.3765 211.452 39.5407 211.201C38.6646 210.826 36.1111 210.15 32.9069 210.45C27.024 214.205 27.5246 203.816 28.0253 202.94Z" fill="#EA4949"/>
</mask>
<g mask="url(#mask1_193_673)">
<path d="M37.6629 203.316C34.3585 202.515 33.7827 199.477 33.9079 198.059L34.9093 196.682L47.0506 202.94L44.4221 204.567C43.5459 204.484 40.9674 204.117 37.6629 203.316Z" fill="#193E7C"/>
<path d="M45.9244 203.816C42.9204 203.916 42.0859 208.114 42.0442 210.2L43.0455 212.703L50.4305 212.077L50.9311 207.446C50.5139 206.195 48.9284 203.716 45.9244 203.816Z" fill="#E5E5E5"/>
<path d="M34.2834 200.562C34.659 200.145 35.6353 199.335 36.5365 199.435M36.161 202.565C36.7451 201.981 38.0135 200.862 38.414 201.063M38.7895 203.691C39.2484 203.065 40.2665 201.864 40.667 202.064M41.418 204.067C41.7518 203.566 42.5195 202.615 42.92 202.815" stroke="#2A5297" stroke-width="0.473506"/>
<path d="M29.6522 208.448C29.452 207.547 28.0668 207.488 27.3992 207.572C26.1475 212.203 32.5311 212.328 34.659 212.579C36.7868 212.829 48.803 211.828 50.305 210.951C51.5066 210.25 50.305 208.99 49.554 208.448C48.6778 210.576 45.2982 210.075 43.6711 210.325C41.8998 210.598 38.6643 208.823 35.0345 209.199C31.4046 209.574 29.9026 209.575 29.6522 208.448Z" fill="#202750"/>
</g>
<path d="M9.85651 203.049C10.958 200.846 10.3155 197.291 9.85651 195.789L18.4931 195.414C18.9521 196.999 19.92 200.546 20.1203 202.048C20.3707 203.925 23.3747 205.803 27.6304 205.928C31.8861 206.053 32.2616 209.933 32.1365 211.185C32.0363 212.186 28.2562 212.52 26.3787 212.562C21.8727 212.311 12.7354 211.811 12.2347 211.811C11.6089 211.811 8.85516 211.31 8.47966 211.185C8.10415 211.06 8.47966 205.803 9.85651 203.049Z" fill="#1C4385"/>
<mask id="mask2_193_673" style="mask-type:alpha" maskUnits="userSpaceOnUse" x="8" y="195" width="25" height="18">
<path d="M9.85651 203.049C10.958 200.846 10.3155 197.291 9.85651 195.789L18.4931 195.414C18.9521 196.999 19.92 200.545 20.1203 202.048C20.3707 203.925 23.3747 205.803 27.6304 205.928C31.8861 206.053 32.2616 209.933 32.1365 211.185C32.0363 212.186 28.2562 212.52 26.3787 212.562C21.8727 212.311 12.7354 211.811 12.2347 211.811C11.6089 211.811 8.85516 211.31 8.47966 211.185C8.10415 211.06 8.47966 205.803 9.85651 203.049Z" fill="#1C4385"/>
</mask>
<g mask="url(#mask2_193_673)">
<path d="M16.9908 199.795C17.6167 199.878 18.9935 199.97 19.4942 199.67M17.867 202.799C18.4094 202.84 19.6194 202.849 20.12 202.548M21.1214 205.552C21.4552 205.344 22.1478 204.851 22.2479 204.551M23.8751 206.554C24.0837 206.387 24.526 205.953 24.6261 205.552M8.10391 204.551C9.64765 204.009 13.0606 204.1 14.3623 208.807C14.6627 212.211 14.1537 214.398 13.8616 215.065C10.8159 213.521 4.72437 210.359 4.72437 210.058C4.72437 209.758 6.97739 206.262 8.10391 204.551Z" stroke="#2A5297" stroke-width="0.710259"/>
<path d="M20.4959 205.302C17.3918 203.8 16.7826 199.503 16.8661 197.542L19.4945 196.29L29.0073 204.301L27.2549 207.18C26.2953 207.18 23.6001 206.804 20.4959 205.302Z" fill="#193E7C"/>
<path d="M25.5024 212.061C24.7014 208.757 26.2534 206.596 27.1296 205.928C29.3826 203.425 33.7636 208.932 34.3894 211.185C35.0153 213.438 26.5038 216.192 25.5024 212.061Z" fill="#E5E5E5"/>
<path d="M15.8645 211.435C7.47828 210.934 8.02068 209.683 7.47828 208.681C6.85244 214.689 15.1135 212.937 23.2495 212.937C29.4578 214.439 32.3033 212.937 32.7622 210.309C29.6581 212.011 24.8767 212.019 22.874 211.811L15.8645 211.435Z" fill="#202750"/>
<path d="M17.1164 199.544C17.6579 199.544 18.7436 199.294 19.6198 199.67M17.9927 202.298C18.7963 202.107 19.745 202.101 20.2059 202.101M19.4597 204.551C20.1785 204.259 20.8941 203.716 21.247 203.925M21.3722 205.552C21.9189 205.301 22.6232 204.775 23.1245 205.052" stroke="#2A5297" stroke-width="0.473506"/>
</g>
<path d="M9.12509 146.739C6.87034 138.119 9.20854 130.593 10.1264 127.714L32.2811 126.713L31.4049 140.982C30.7791 145.321 29.4774 154.525 29.2771 156.628C29.0768 158.731 25.2717 174.026 23.3942 181.411L19.1385 197.433C18.3374 198.334 12.7967 197.808 10.1264 197.433C9.79266 196.264 8.97487 192.05 8.37399 184.54C7.7731 177.03 9.29192 166.975 10.1264 162.886C10.7522 159.215 10.7098 152.798 9.12509 146.739Z" fill="#7659EB"/>
<path d="M42.6701 148.366L43.4211 126.337L27.0241 124.209C26.6069 139.604 25.6723 171.547 25.2717 176.153C24.8712 180.76 26.2731 192.258 27.0241 197.432C30.2284 198.734 34.868 197.974 36.7872 197.432C37.9555 190.172 40.4421 174.777 41.0429 171.272C42.2445 167.367 42.6284 154.374 42.6701 148.366Z" fill="#7F60FC"/>
<path d="M36.9534 81.9528C36.9396 81.9391 36.9259 81.9256 36.9124 81.9123C36.9124 81.7401 36.924 81.7101 36.9534 81.9528C39.0182 84.0065 43.6109 90.8756 45.7993 102.315L47.051 111.953C47.051 112.854 45.7993 117.168 45.1735 119.212L42.5449 116.334C41.2515 113.538 38.4895 105.144 37.7885 93.9285C37.2684 85.6065 37.0377 82.651 36.9534 81.9528Z" fill="#FBBC05"/>
<path d="M43.1706 118.827C41.969 117.725 42.503 116.699 42.9203 116.323C43.5461 116.24 44.8479 116.398 45.0482 117.7C45.2485 119.002 44.0468 121.413 43.421 122.457C43.5879 121.664 43.7715 119.828 43.1706 118.827Z" fill="#8C4949"/>
<path d="M16.8855 75.6435C12.8801 75.9439 8.54098 78.9396 6.87207 80.3999L11.5033 110.691C10.5437 115.656 8.67449 126.086 8.87476 128.089C9.1251 130.592 12.755 130.968 21.7671 132.595C28.9768 133.897 37.5383 132.386 40.9178 131.468C42.1278 130.884 44.5727 129.566 44.6728 128.965C44.798 128.214 44.6728 127.338 43.7967 125.586C42.9205 123.833 44.6728 120.078 42.9205 116.198C38.7899 109.564 39.7913 85.4066 37.4131 82.5277C35.3103 79.4236 30.5288 77.1455 28.401 76.3945C24.2955 78.0968 19.5975 75.9355 17.7617 74.6421L16.8855 75.6435Z" fill="#FBA705"/>
<path d="M34.9101 90.6641L35.0352 97.0477C34.4094 97.5066 32.2315 98.85 28.5265 100.552C24.8215 102.255 24.8132 99.1754 25.2721 97.4231V90.6641C27.9758 89.1621 32.8239 90.0383 34.9101 90.6641Z" fill="#E3E9EE"/>
<path d="M25.0216 93.5428C23.119 93.7431 24.6461 94.8779 25.6474 95.4203L26.0228 96.2964C25.8142 96.3799 25.2219 96.4717 24.5209 96.1713C23.6448 95.7958 23.0189 94.9197 23.2692 93.4177C23.4695 92.216 25.0216 92.166 25.7726 92.2911L26.6488 93.2925C26.5236 93.3342 26.0229 93.4427 25.0216 93.5428Z" fill="#E3E9EE"/>
<path d="M23.2689 104.433L20.2649 101.929L24.2703 96.7972C24.2703 96.5469 24.4205 95.6207 25.0213 93.9186C25.8224 92.0161 26.0226 92.7086 26.0226 93.2927V97.5484C31.8304 98.7501 34.5341 94.9616 35.1599 92.9172C35.1599 93.251 35.1849 93.9936 35.2851 94.2939C35.7857 93.8934 35.9109 94.4608 35.9109 94.7946C35.6606 95.2953 35.21 96.2966 35.4102 96.2966C35.6105 96.2966 35.744 96.547 35.7857 96.6721C35.8859 97.0727 34.9096 99.551 33.9082 100.678C33.1572 102.054 29.4022 102.68 27.775 102.305C26.6841 102.053 25.6888 102.513 25.2716 102.931L23.2689 104.433Z" fill="#FFBA8C"/>
<path d="M12.3671 80.3517C7.46051 76.6467 2.32437 83.4042 1.23958 87.2844C-0.0567792 90.6639 -0.137268 107.061 0.113068 115.322C0.363404 123.583 5.99597 123.959 13.2557 119.202C19.0635 115.397 23.1857 107.019 24.5209 103.306L21.3917 100.677L11.8789 106.06L13.2557 89.913C13.5895 88.1189 15.271 83.7563 12.3671 80.3517Z" fill="#FBBC05"/>
<path d="M26.1477 91.0395C28.1504 90.9144 32.4812 90.7391 33.783 91.0395C35.4101 91.415 26.8987 92.2913 26.1477 91.0395Z" fill="#FBBC05" stroke="#FBBC05" stroke-width="0.473506"/>
<path d="M26.7734 94.6695C27.0238 93.835 27.6997 92.6668 28.4006 94.6695C28.9013 95.9712 29.8609 94.9615 30.2781 94.2939C30.5285 93.9184 31.2545 93.3927 32.1557 94.2939C32.6563 94.8947 33.1987 94.2105 33.4073 93.7933" stroke="#8061FF" stroke-width="0.473506"/>
<path d="M27.6497 96.547C28.0669 96.2132 29.0265 95.7709 29.5272 96.6722C30.153 97.7987 30.7789 96.7974 30.904 96.547C31.0292 96.2966 31.9054 96.0462 32.1557 96.2966" stroke="#8061FF" stroke-width="0.473506"/>
<path d="M16.7604 77.1455C19.5641 74.9426 20.3485 69.3017 20.3902 66.7566L29.0268 70.762C27.5246 75.6435 29.152 78.1469 29.0268 79.8992C28.9016 81.6516 13.2557 79.8992 16.7604 77.1455Z" fill="#FFB27F"/>
<path d="M28.4012 75.3933C24.7964 75.2931 21.3501 71.1793 20.1401 69.1349C22.1428 72.1389 26.5654 72.9733 28.5264 73.0151C28.4012 73.6409 28.4012 75.0178 28.4012 75.3933Z" fill="#E69964"/>
<path d="M33.2821 61.8753C33.2821 56.3679 31.5298 53.8228 30.6536 53.2387C26.523 47.9816 20.515 55.3666 17.6361 58.1203C15.333 60.3232 16.8434 64.2952 17.8864 66.0059C18.8043 67.1741 20.8404 69.7359 21.6415 70.6371C22.6428 71.7636 24.27 72.5146 28.2754 73.0153C32.2808 73.5159 33.2821 68.7596 33.2821 61.8753Z" fill="#FFB27F"/>
<path d="M26.273 49.108C22.8684 47.9064 20.0146 50.1928 19.0132 51.4862C13.8813 54.3651 14.5072 56.493 14.2568 60.248C14.0566 63.2521 17.8867 69.2184 19.7642 71.7635L20.6404 67.0071C19.806 66.5899 17.8867 65.3048 17.8867 63.5024C18.3874 60.5985 20.3483 62.2924 21.2662 63.5024L21.1271 60.4645C21.0016 58.8072 21.0159 59.2807 21.0159 57.4943C21.1271 55.4927 21.8374 54.0721 22.7683 54.3651C25.1519 55.0192 27.3995 54.6155 29.6525 54.3651C32.3922 54.0607 32.5314 51.8618 32.6565 50.2346C32.7817 48.6074 30.6539 48.9829 30.4035 49.108C29.7777 49.7338 28.7763 49.6087 26.273 49.108Z" fill="#30215A"/>
<circle cx="21.6416" cy="209.449" r="0.751009" fill="#2A5297"/>
<circle cx="18.8882" cy="209.449" r="0.751009" fill="#2A5297"/>
<circle cx="13.8815" cy="200.436" r="1.75235" fill="#2A5297"/>
</svg>
