<svg width="24" height="24" viewBox="0 0 24 24" fill="none" xmlns="http://www.w3.org/2000/svg">
<path d="M13.9416 4.85882C13.8279 4.28304 13.3647 3.37134 12.1857 3.37134C10.8934 3.37134 10.5235 4.46674 10.5001 5.01444C10.4522 6.13356 11.2948 7.74523 13.9416 8.91464C16.7021 7.81466 17.431 6.13356 17.3831 5.01444C17.3597 4.46674 16.9898 3.37134 15.6975 3.37134C14.5185 3.37134 14.0553 4.28304 13.9416 4.85882Z" fill="#7959FF"/>
<path d="M8.65038 10.1822C6.50025 9.71187 5.17882 11.4421 4.78687 12.3659L7.30655 17.5733H13.1858C15.3695 16.0895 20.1065 12.9371 21.5847 12.198C23.4325 11.2741 23.2645 10.7701 22.2567 10.1822C21.4504 9.71188 20.1289 9.98624 19.569 10.1822L14.0257 13.4578H10.6661C10.2462 13.4578 10.2462 13.3738 10.2462 12.9539C10.2462 12.5339 10.6661 12.5339 12.5139 12.6179C14.3617 12.7019 14.6136 12.3659 14.6136 11.3581C14.6136 10.5518 14.0537 10.4062 13.7737 10.4342C12.9058 10.4902 10.6661 10.5182 8.65038 10.1822Z" fill="#FBBC05"/>
<rect x="1" y="13.382" width="4.03149" height="7.08284" rx="0.5" transform="rotate(-26.4445 1 13.382)" fill="#7959FF"/>
</svg>
