<svg width="24" height="24" viewBox="0 0 24 24" fill="none" xmlns="http://www.w3.org/2000/svg">
<g filter="url(#filter0_i_44_743)">
<path fill-rule="evenodd" clip-rule="evenodd" d="M1.00416 6.86957H21.0828C21.0656 5.68369 20.9777 5.01136 20.5266 4.56032C19.9663 4 19.0645 4 17.2609 4H4.82609C3.02245 4 2.12063 4 1.56032 4.56032C1.10928 5.01136 1.02131 5.68369 1.00416 6.86957ZM21.087 9.02174H1V12.3696C1 14.1732 1 15.075 1.56032 15.6353C2.12063 16.1957 3.02245 16.1957 4.82608 16.1957H17.2609C19.0645 16.1957 19.9663 16.1957 20.5266 15.6353C21.087 15.075 21.087 14.1732 21.087 12.3696V9.02174Z" fill="#7959FF"/>
</g>
<rect x="3.63049" y="10.2174" width="10.5217" height="0.956522" rx="0.478261" fill="white"/>
<rect x="3.63049" y="11.8913" width="10.5217" height="0.956522" rx="0.478261" fill="white"/>
<rect x="3.63049" y="13.5652" width="5.26087" height="0.956522" rx="0.478261" fill="white"/>
<g filter="url(#filter1_i_44_743)">
<rect x="1" y="6.86957" width="20.087" height="2.15217" fill="#FBBC05"/>
</g>
<g filter="url(#filter2_i_44_743)">
<path d="M12.3219 15.2667C12.3219 14.7182 12.7666 14.2734 13.3152 14.2734H21.2617C21.8103 14.2734 22.255 14.7182 22.255 15.2667V19.985C22.255 20.5336 21.8103 20.9783 21.2617 20.9783H13.3152C12.7666 20.9783 12.3219 20.5336 12.3219 19.985V15.2667Z" fill="#FBBC05"/>
</g>
<g filter="url(#filter3_i_44_743)">
<rect x="11.5769" y="12.0385" width="11.4231" height="2.97993" rx="0.717391" fill="#FBBC05"/>
</g>
<g filter="url(#filter4_i_44_743)">
<path d="M21.2617 12.0385C21.2617 10.9847 20.8431 9.97411 20.0979 9.22898C19.3528 8.48386 18.3422 8.06525 17.2884 8.06525C16.2347 8.06525 15.224 8.48385 14.4789 9.22898C13.7338 9.97411 13.3152 10.9847 13.3152 12.0385L14.5072 12.0385C14.5072 11.3009 14.8002 10.5934 15.3218 10.0718C15.8434 9.55025 16.5508 9.25722 17.2884 9.25722C18.0261 9.25722 18.7335 9.55025 19.2551 10.0718C19.7767 10.5934 20.0697 11.3009 20.0697 12.0385H21.2617Z" fill="#7959FF"/>
</g>
<path fill-rule="evenodd" clip-rule="evenodd" d="M19.9986 16.0445C20.1177 16.2123 20.0782 16.4448 19.9104 16.5638L17.4008 18.3444C17.08 18.572 16.9196 18.6859 16.7427 18.6691C16.5657 18.6523 16.4295 18.5104 16.1572 18.2266L15.3239 17.3583C15.1815 17.2099 15.1863 16.9741 15.3348 16.8317C15.4832 16.6892 15.719 16.6941 15.8614 16.8425L16.2499 17.2473C16.5223 17.5312 16.6585 17.6731 16.8354 17.6898C17.0123 17.7066 17.1727 17.5928 17.4936 17.3651L19.4793 15.9563C19.6471 15.8372 19.8796 15.8767 19.9986 16.0445Z" fill="white"/>
<defs>
<filter id="filter0_i_44_743" x="-0.209634" y="3.59679" width="21.2965" height="12.5989" filterUnits="userSpaceOnUse" color-interpolation-filters="sRGB">
<feFlood flood-opacity="0" result="BackgroundImageFix"/>
<feBlend mode="normal" in="SourceGraphic" in2="BackgroundImageFix" result="shape"/>
<feColorMatrix in="SourceAlpha" type="matrix" values="0 0 0 0 0 0 0 0 0 0 0 0 0 0 0 0 0 0 127 0" result="hardAlpha"/>
<feOffset dx="-1.20963" dy="-0.403211"/>
<feGaussianBlur stdDeviation="3.02408"/>
<feComposite in2="hardAlpha" operator="arithmetic" k2="-1" k3="1"/>
<feColorMatrix type="matrix" values="0 0 0 0 0 0 0 0 0 0 0 0 0 0 0 0 0 0 0.1 0"/>
<feBlend mode="normal" in2="shape" result="effect1_innerShadow_44_743"/>
</filter>
<filter id="filter1_i_44_743" x="0.857466" y="6.68631" width="20.2294" height="2.33542" filterUnits="userSpaceOnUse" color-interpolation-filters="sRGB">
<feFlood flood-opacity="0" result="BackgroundImageFix"/>
<feBlend mode="normal" in="SourceGraphic" in2="BackgroundImageFix" result="shape"/>
<feColorMatrix in="SourceAlpha" type="matrix" values="0 0 0 0 0 0 0 0 0 0 0 0 0 0 0 0 0 0 127 0" result="hardAlpha"/>
<feOffset dx="-0.142534" dy="-0.183258"/>
<feGaussianBlur stdDeviation="0.30543"/>
<feComposite in2="hardAlpha" operator="arithmetic" k2="-1" k3="1"/>
<feColorMatrix type="matrix" values="0 0 0 0 0 0 0 0 0 0 0 0 0 0 0 0 0 0 0.1 0"/>
<feBlend mode="normal" in2="shape" result="effect1_innerShadow_44_743"/>
</filter>
<filter id="filter2_i_44_743" x="12.1794" y="14.0902" width="10.0756" height="6.88809" filterUnits="userSpaceOnUse" color-interpolation-filters="sRGB">
<feFlood flood-opacity="0" result="BackgroundImageFix"/>
<feBlend mode="normal" in="SourceGraphic" in2="BackgroundImageFix" result="shape"/>
<feColorMatrix in="SourceAlpha" type="matrix" values="0 0 0 0 0 0 0 0 0 0 0 0 0 0 0 0 0 0 127 0" result="hardAlpha"/>
<feOffset dx="-0.142534" dy="-0.183258"/>
<feGaussianBlur stdDeviation="0.30543"/>
<feComposite in2="hardAlpha" operator="arithmetic" k2="-1" k3="1"/>
<feColorMatrix type="matrix" values="0 0 0 0 0 0 0 0 0 0 0 0 0 0 0 0 0 0 0.1 0"/>
<feBlend mode="normal" in2="shape" result="effect1_innerShadow_44_743"/>
</filter>
<filter id="filter3_i_44_743" x="11.4344" y="11.8552" width="11.5656" height="3.16318" filterUnits="userSpaceOnUse" color-interpolation-filters="sRGB">
<feFlood flood-opacity="0" result="BackgroundImageFix"/>
<feBlend mode="normal" in="SourceGraphic" in2="BackgroundImageFix" result="shape"/>
<feColorMatrix in="SourceAlpha" type="matrix" values="0 0 0 0 0 0 0 0 0 0 0 0 0 0 0 0 0 0 127 0" result="hardAlpha"/>
<feOffset dx="-0.142534" dy="-0.183258"/>
<feGaussianBlur stdDeviation="0.30543"/>
<feComposite in2="hardAlpha" operator="arithmetic" k2="-1" k3="1"/>
<feColorMatrix type="matrix" values="0 0 0 0 0 0 0 0 0 0 0 0 0 0 0 0 0 0 0.1 0"/>
<feBlend mode="normal" in2="shape" result="effect1_innerShadow_44_743"/>
</filter>
<filter id="filter4_i_44_743" x="12.1056" y="7.66204" width="9.15617" height="4.37645" filterUnits="userSpaceOnUse" color-interpolation-filters="sRGB">
<feFlood flood-opacity="0" result="BackgroundImageFix"/>
<feBlend mode="normal" in="SourceGraphic" in2="BackgroundImageFix" result="shape"/>
<feColorMatrix in="SourceAlpha" type="matrix" values="0 0 0 0 0 0 0 0 0 0 0 0 0 0 0 0 0 0 127 0" result="hardAlpha"/>
<feOffset dx="-1.20963" dy="-0.403211"/>
<feGaussianBlur stdDeviation="3.02408"/>
<feComposite in2="hardAlpha" operator="arithmetic" k2="-1" k3="1"/>
<feColorMatrix type="matrix" values="0 0 0 0 0 0 0 0 0 0 0 0 0 0 0 0 0 0 0.1 0"/>
<feBlend mode="normal" in2="shape" result="effect1_innerShadow_44_743"/>
</filter>
</defs>
</svg>
