<svg width="48" height="61" viewBox="0 0 48 61" fill="none" xmlns="http://www.w3.org/2000/svg">
<g filter="url(#filter0_i_86_2245)">
<path d="M0 20.3623C0 16.2311 0 14.1655 1.28339 12.8822C2.56678 11.5988 4.63236 11.5988 8.76353 11.5988H33.6599C37.7911 11.5988 39.8567 11.5988 41.1401 12.8822C42.4235 14.1655 42.4235 16.2311 42.4235 20.3623V51.433C42.4235 55.5642 42.4235 57.6297 41.1401 58.9131C39.8567 60.1965 37.7911 60.1965 33.6599 60.1965H8.76353C4.63236 60.1965 2.56678 60.1965 1.28339 58.9131C0 57.6297 0 55.5642 0 51.433V20.3623Z" fill="#7959FF"/>
</g>
<path d="M7.56836 21.9555C7.56836 21.1855 8.19256 20.5613 8.96256 20.5613H33.2614C34.0314 20.5613 34.6556 21.1855 34.6556 21.9555V21.9555C34.6556 22.7255 34.0314 23.3497 33.2614 23.3497H8.96256C8.19256 23.3497 7.56836 22.7255 7.56836 21.9555V21.9555Z" fill="#F8FAFF"/>
<path d="M7.56836 28.7267C7.56836 27.9567 8.19256 27.3325 8.96256 27.3325H33.2614C34.0314 27.3325 34.6556 27.9567 34.6556 28.7267V28.7267C34.6556 29.4967 34.0314 30.1209 33.2614 30.1209H8.96256C8.19256 30.1209 7.56836 29.4967 7.56836 28.7267V28.7267Z" fill="#F8FAFF"/>
<path d="M7.56836 35.4989C7.56836 34.7289 8.19256 34.1047 8.96256 34.1047H33.2614C34.0314 34.1047 34.6556 34.7289 34.6556 35.4989V35.4989C34.6556 36.2689 34.0314 36.8931 33.2614 36.8931H8.96256C8.19256 36.8931 7.56836 36.2689 7.56836 35.4989V35.4989Z" fill="#F8FAFF"/>
<path d="M7.56836 42.2708C7.56836 41.5008 8.19256 40.8766 8.96256 40.8766H33.2614C34.0314 40.8766 34.6556 41.5008 34.6556 42.2708V42.2708C34.6556 43.0408 34.0314 43.665 33.2614 43.665H8.96256C8.19256 43.665 7.56836 43.0408 7.56836 42.2708V42.2708Z" fill="#F8FAFF"/>
<path d="M7.56836 49.043C7.56836 48.273 8.19256 47.6488 8.96256 47.6488H21.7095C22.4795 47.6488 23.1037 48.273 23.1037 49.043V49.043C23.1037 49.813 22.4795 50.4372 21.7095 50.4372H8.96256C8.19256 50.4372 7.56836 49.813 7.56836 49.043V49.043Z" fill="#F8FAFF"/>
<g filter="url(#filter1_i_86_2245)">
<rect x="21" width="27" height="27" rx="13.5" fill="#FBBC05"/>
</g>
<path fill-rule="evenodd" clip-rule="evenodd" d="M29.5377 7.53768C29.8819 7.19341 30.3489 7 30.8357 7H35.3333C35.6375 7 35.8841 7.24657 35.8841 7.55072C35.8841 7.85488 35.6375 8.10145 35.3333 8.10145H30.8357C30.641 8.10145 30.4542 8.17881 30.3165 8.31652C30.1788 8.45423 30.1014 8.641 30.1014 8.83575V17.8309C30.1014 18.0257 30.1788 18.2124 30.3165 18.3501C30.4542 18.4879 30.641 18.5652 30.8357 18.5652H39.8309C40.0257 18.5652 40.2124 18.4879 40.3501 18.3501C40.4879 18.2124 40.5652 18.0257 40.5652 17.8309V13.3333C40.5652 13.0292 40.8118 12.7826 41.1159 12.7826C41.4201 12.7826 41.6667 13.0292 41.6667 13.3333V17.8309C41.6667 18.3178 41.4733 18.7847 41.129 19.129C40.7847 19.4733 40.3178 19.6667 39.8309 19.6667H30.8357C30.3489 19.6667 29.8819 19.4733 29.5377 19.129C29.1934 18.7847 29 18.3178 29 17.8309V8.83575C29 8.34888 29.1934 7.88195 29.5377 7.53768Z" fill="#F8FAFF"/>
<path fill-rule="evenodd" clip-rule="evenodd" d="M40.0783 7.91415C39.8995 7.91415 39.7281 7.98518 39.6016 8.1116L34.6252 13.088L34.3074 14.3592L35.5786 14.0414L40.555 9.06497C40.6814 8.93854 40.7525 8.76707 40.7525 8.58828C40.7525 8.40949 40.6814 8.23803 40.555 8.1116C40.4286 7.98518 40.2571 7.91415 40.0783 7.91415ZM38.9552 7.4652C39.2531 7.16734 39.6571 7 40.0783 7C40.4996 7 40.9036 7.16734 41.2014 7.4652C41.4993 7.76306 41.6666 8.16704 41.6666 8.58828C41.6666 9.00952 41.4993 9.41351 41.2014 9.71137L36.1355 14.7773C36.0769 14.8359 36.0035 14.8774 35.9231 14.8975L33.7901 15.4308C33.6344 15.4697 33.4696 15.4241 33.3561 15.3106C33.2425 15.197 33.1969 15.0323 33.2358 14.8765L33.7691 12.7435C33.7892 12.6631 33.8307 12.5897 33.8893 12.5311L38.9552 7.4652Z" fill="#F8FAFF"/>
<defs>
<filter id="filter0_i_86_2245" x="-5.05847" y="9.91261" width="47.4819" height="50.2839" filterUnits="userSpaceOnUse" color-interpolation-filters="sRGB">
<feFlood flood-opacity="0" result="BackgroundImageFix"/>
<feBlend mode="normal" in="SourceGraphic" in2="BackgroundImageFix" result="shape"/>
<feColorMatrix in="SourceAlpha" type="matrix" values="0 0 0 0 0 0 0 0 0 0 0 0 0 0 0 0 0 0 127 0" result="hardAlpha"/>
<feOffset dx="-5.05847" dy="-1.68616"/>
<feGaussianBlur stdDeviation="12.6462"/>
<feComposite in2="hardAlpha" operator="arithmetic" k2="-1" k3="1"/>
<feColorMatrix type="matrix" values="0 0 0 0 0 0 0 0 0 0 0 0 0 0 0 0 0 0 0.1 0"/>
<feBlend mode="normal" in2="shape" result="effect1_innerShadow_86_2245"/>
</filter>
<filter id="filter1_i_86_2245" x="20.4039" y="-0.766351" width="27.5961" height="27.7664" filterUnits="userSpaceOnUse" color-interpolation-filters="sRGB">
<feFlood flood-opacity="0" result="BackgroundImageFix"/>
<feBlend mode="normal" in="SourceGraphic" in2="BackgroundImageFix" result="shape"/>
<feColorMatrix in="SourceAlpha" type="matrix" values="0 0 0 0 0 0 0 0 0 0 0 0 0 0 0 0 0 0 127 0" result="hardAlpha"/>
<feOffset dx="-0.596051" dy="-0.766351"/>
<feGaussianBlur stdDeviation="1.27725"/>
<feComposite in2="hardAlpha" operator="arithmetic" k2="-1" k3="1"/>
<feColorMatrix type="matrix" values="0 0 0 0 0 0 0 0 0 0 0 0 0 0 0 0 0 0 0.1 0"/>
<feBlend mode="normal" in2="shape" result="effect1_innerShadow_86_2245"/>
</filter>
</defs>
</svg>
