<svg width="24" height="24" viewBox="0 0 24 24" fill="none" xmlns="http://www.w3.org/2000/svg">
<path d="M3 6.50044C3 4.91829 3 4.12722 3.49151 3.63571C3.98302 3.1442 4.7741 3.1442 6.35624 3.1442H15.891C17.4732 3.1442 18.2643 3.1442 18.7558 3.63571C19.2473 4.12722 19.2473 4.91829 19.2473 6.50044V18.3999C19.2473 19.982 19.2473 20.7731 18.7558 21.2646C18.2643 21.7561 17.4732 21.7561 15.891 21.7561H6.35624C4.7741 21.7561 3.98302 21.7561 3.49151 21.2646C3 20.7731 3 19.982 3 18.3999V6.50044Z" fill="#7959FF"/>
<path d="M5.89856 7.11067C5.89856 6.81578 6.13762 6.57672 6.43251 6.57672H15.7385C16.0333 6.57672 16.2724 6.81578 16.2724 7.11067V7.11067C16.2724 7.40556 16.0333 7.64462 15.7385 7.64462H6.43251C6.13762 7.64462 5.89856 7.40556 5.89856 7.11067V7.11067Z" fill="white"/>
<path d="M5.89856 9.70402C5.89856 9.40913 6.13762 9.17007 6.43251 9.17007H15.7385C16.0333 9.17007 16.2724 9.40913 16.2724 9.70402V9.70402C16.2724 9.99891 16.0333 10.238 15.7385 10.238H6.43251C6.13762 10.238 5.89856 9.99891 5.89856 9.70402V9.70402Z" fill="white"/>
<path d="M5.89856 12.2975C5.89856 12.0026 6.13762 11.7635 6.43251 11.7635H15.7385C16.0333 11.7635 16.2724 12.0026 16.2724 12.2975V12.2975C16.2724 12.5924 16.0333 12.8314 15.7385 12.8314H6.43251C6.13762 12.8314 5.89856 12.5924 5.89856 12.2975V12.2975Z" fill="white"/>
<path d="M5.89856 14.891C5.89856 14.5961 6.13762 14.3571 6.43251 14.3571H15.7385C16.0333 14.3571 16.2724 14.5961 16.2724 14.891V14.891C16.2724 15.1859 16.0333 15.425 15.7385 15.425H6.43251C6.13762 15.425 5.89856 15.1859 5.89856 14.891V14.891Z" fill="white"/>
<path d="M5.89856 17.4845C5.89856 17.1896 6.13762 16.9506 6.43251 16.9506H11.3143C11.6092 16.9506 11.8483 17.1896 11.8483 17.4845V17.4845C11.8483 17.7794 11.6092 18.0185 11.3143 18.0185H6.43251C6.13762 18.0185 5.89856 17.7794 5.89856 17.4845V17.4845Z" fill="white"/>
<path d="M16.39 4.45141C16.2048 3.50251 15.4502 2 13.5295 2C11.4242 2 10.8216 3.80525 10.7835 4.70788C10.7056 6.55223 12.0782 9.2083 16.39 11.1355C20.8869 9.32272 22.0743 6.55223 21.9964 4.70788C21.9583 3.80525 21.3557 2 19.2504 2C17.3297 2 16.5751 3.50251 16.39 4.45141Z" fill="#FBBC05"/>
</svg>
