<svg width="24" height="24" viewBox="0 0 24 24" fill="none" xmlns="http://www.w3.org/2000/svg">
<path d="M2.49184 8.37141C2.78824 6.9882 4.01063 6 5.42525 6H17.9883C19.4417 6 20.686 7.04184 20.9415 8.47263L22.1601 15.2968C22.598 17.7486 20.7129 20 18.2224 20H4.94795C2.40137 20 0.503157 17.6519 1.03674 15.1619L2.49184 8.37141Z" fill="#7959FF"/>
<path d="M7.59319 14.3348C7.70365 14.3348 7.79319 14.2453 7.79319 14.1348V9.96274C7.79319 9.85228 7.70365 9.76274 7.59319 9.76274H7.2C7.08954 9.76274 7 9.6732 7 9.56274V9.2C7 9.08954 7.08954 9 7.2 9H9.34635C9.83638 9 10.2254 9.04091 10.5133 9.12274C10.8012 9.20164 11.0393 9.37114 11.2276 9.63123C11.4158 9.8884 11.51 10.2099 11.51 10.5956C11.51 11.321 11.1886 11.8042 10.5459 12.045C10.4293 12.0887 10.3659 12.2205 10.418 12.3336L11.2861 14.2185C11.3188 14.2894 11.3897 14.3348 11.4678 14.3348H11.8457C11.9561 14.3348 12.0457 14.4243 12.0457 14.5348V14.8975C12.0457 15.008 11.9561 15.0975 11.8457 15.0975H10.9236C10.8456 15.0975 10.7747 15.0522 10.742 14.9814L9.53288 12.3643C9.50018 12.2935 9.42931 12.2482 9.35133 12.2482H8.86528C8.75483 12.2482 8.66528 12.3378 8.66528 12.4482V14.1348C8.66528 14.2453 8.75483 14.3348 8.86528 14.3348H9.20449C9.31494 14.3348 9.40449 14.4243 9.40449 14.5348V14.8975C9.40449 15.008 9.31494 15.0975 9.20449 15.0975H7.2C7.08954 15.0975 7 15.008 7 14.8975V14.5348C7 14.4243 7.08954 14.3348 7.2 14.3348H7.59319ZM8.66528 11.2855C8.66528 11.3959 8.75483 11.4855 8.86528 11.4855H9.34635C9.6758 11.4855 9.91805 11.4636 10.0731 11.4197C10.2309 11.373 10.3596 11.2809 10.4593 11.1436C10.559 11.0033 10.6088 10.8163 10.6088 10.5825C10.6088 10.3837 10.5576 10.2157 10.4551 10.0784C10.3555 9.941 10.2309 9.85479 10.0814 9.81973C9.93466 9.78174 9.70903 9.76274 9.40449 9.76274H8.86528C8.75483 9.76274 8.66528 9.85228 8.66528 9.96274V11.2855Z" fill="white"/>
<path d="M12.6264 16.2592C12.7369 16.2592 12.8264 16.1696 12.8264 16.0592V11.7951C12.8264 11.6846 12.7369 11.5951 12.6264 11.5951H12.3495C12.239 11.5951 12.1495 11.5055 12.1495 11.3951V11.0542C12.1495 10.9438 12.239 10.8542 12.3495 10.8542H13.4417C13.5377 10.8542 13.6154 10.932 13.6154 11.028V11.028C13.6154 11.1919 13.8335 11.2738 13.9613 11.1711C14.2788 10.916 14.6397 10.7885 15.044 10.7885C15.6088 10.7885 16.0753 10.9931 16.4435 11.4022C16.8145 11.8113 17 12.3432 17 12.9978C17 13.6846 16.7993 14.2267 16.3978 14.6241C15.9964 15.0216 15.5396 15.2203 15.0274 15.2203C14.6531 15.2203 14.309 15.113 13.995 14.8985C13.8457 14.7965 13.6154 14.8926 13.6154 15.0734V16.0592C13.6154 16.1696 13.705 16.2592 13.8154 16.2592H14.1962C14.3066 16.2592 14.3962 16.3487 14.3962 16.4592V16.8C14.3962 16.9105 14.3066 17 14.1962 17H12.2914C12.1809 17 12.0914 16.9105 12.0914 16.8V16.4592C12.0914 16.3487 12.1809 16.2592 12.2914 16.2592H12.6264ZM13.603 13.0373C13.603 13.2711 13.6487 13.4946 13.74 13.7079C13.8314 13.9213 13.9767 14.101 14.1761 14.2471C14.3754 14.3903 14.6094 14.4619 14.8779 14.4619C15.2544 14.4619 15.5645 14.3289 15.8081 14.063C16.0545 13.7971 16.1777 13.4318 16.1777 12.9671C16.1777 12.5142 16.049 12.1605 15.7915 11.9063C15.5368 11.6521 15.2461 11.5249 14.9194 11.5249C14.5706 11.5249 14.2633 11.6637 13.9975 11.9414C13.7345 12.2161 13.603 12.5814 13.603 13.0373Z" fill="white"/>
<rect x="2" y="5" width="20" height="2" rx="1" fill="#FBBC05"/>
<rect x="9" y="3" width="3" height="3" rx="1.5" fill="#FBBC05"/>
<rect x="11" y="3" width="3" height="3" rx="1.5" fill="#FBBC05"/>
</svg>
