<svg width="24" height="24" viewBox="0 0 24 24" fill="none" xmlns="http://www.w3.org/2000/svg">
<path d="M12.617 9.30852C12.617 12.7926 9.79261 15.617 6.30852 15.617C2.82442 15.617 0 12.7926 0 9.30852C0 5.82442 2.82442 3 6.30852 3C9.79261 3 12.617 5.82442 12.617 9.30852Z" fill="#FBBC05"/>
<path d="M8.59629 6.70891C8.59629 7.95323 7.58757 8.96195 6.34325 8.96195C5.09893 8.96195 4.09021 7.95323 4.09021 6.70891C4.09021 5.46459 5.09893 4.45587 6.34325 4.45587C7.58757 4.45587 8.59629 5.46459 8.59629 6.70891Z" fill="white"/>
<path d="M9.98265 11.9429C9.98265 13.1298 8.33766 14.0919 6.30847 14.0919C4.27927 14.0919 2.63428 13.1298 2.63428 11.9429C2.63428 10.756 4.27927 9.79382 6.30847 9.79382C8.33766 9.79382 9.98265 10.756 9.98265 11.9429Z" fill="white"/>
<path d="M23.1164 9.30852C23.1164 12.7926 20.292 15.617 16.8079 15.617C13.3238 15.617 10.4994 12.7926 10.4994 9.30852C10.4994 5.82442 13.3238 3 16.8079 3C20.292 3 23.1164 5.82442 23.1164 9.30852Z" fill="#FBBC05"/>
<path d="M19.0956 6.70891C19.0956 7.95323 18.0868 8.96195 16.8425 8.96195C15.5982 8.96195 14.5895 7.95323 14.5895 6.70891C14.5895 5.46459 15.5982 4.45587 16.8425 4.45587C18.0868 4.45587 19.0956 5.46459 19.0956 6.70891Z" fill="white"/>
<path d="M20.482 11.9429C20.482 13.1298 18.8371 14.0919 16.8079 14.0919C14.7787 14.0919 13.1337 13.1298 13.1337 11.9429C13.1337 10.756 14.7787 9.79382 16.8079 9.79382C18.8371 9.79382 20.482 10.756 20.482 11.9429Z" fill="white"/>
<path d="M19.0588 13.5882C19.0588 17.6816 15.7404 21 11.647 21C7.55359 21 4.23523 17.6816 4.23523 13.5882C4.23523 9.49478 7.55359 6.17642 11.647 6.17642C15.7404 6.17642 19.0588 9.49478 19.0588 13.5882Z" fill="#7959FF"/>
<path d="M14.3348 10.5338C14.3348 11.9957 13.1496 13.1809 11.6877 13.1809C10.2258 13.1809 9.04065 11.9957 9.04065 10.5338C9.04065 9.07188 10.2258 7.88675 11.6877 7.88675C13.1496 7.88675 14.3348 9.07188 14.3348 10.5338Z" fill="white"/>
<path d="M15.9637 16.6833C15.9637 18.0778 14.031 19.2082 11.6469 19.2082C9.26287 19.2082 7.3302 18.0778 7.3302 16.6833C7.3302 15.2889 9.26287 14.1584 11.6469 14.1584C14.031 14.1584 15.9637 15.2889 15.9637 16.6833Z" fill="white"/>
</svg>
