<svg width="24" height="24" viewBox="0 0 24 24" fill="none" xmlns="http://www.w3.org/2000/svg">
<path d="M8.21849 14.4286C8.21849 18.2343 11.3036 21.3194 15.1092 21.3194C15.871 21.3194 16.6039 21.1958 17.289 20.9675C18.2115 20.6601 21.0156 20.9675 21.3672 20.6866C21.7891 20.4053 21.0859 18.1553 21.7549 16.2568C21.9147 15.6746 22 15.0616 22 14.4286C22 10.623 18.9149 7.53787 15.1092 7.53787C11.3036 7.53787 8.21849 10.623 8.21849 14.4286Z" fill="#FBBC05"/>
<path d="M18.4706 11.2353C18.4706 15.7835 14.7835 19.4706 10.2353 19.4706C9.32489 19.4706 8.44899 19.3229 7.63025 19.0501C6.52775 18.6827 3.17647 19.0501 2.7563 18.7143C2.2521 18.3782 3.09244 15.6891 2.29297 13.4202C2.10199 12.7244 2 11.9917 2 11.2353C2 6.68707 5.68707 3 10.2353 3C14.7835 3 18.4706 6.68707 18.4706 11.2353Z" fill="#7959FF"/>
<path d="M8.0504 11.2353C8.0504 11.9779 7.44843 12.5799 6.70587 12.5799C5.9633 12.5799 5.36133 11.9779 5.36133 11.2353C5.36133 10.4927 5.9633 9.89078 6.70587 9.89078C7.44843 9.89078 8.0504 10.4927 8.0504 11.2353Z" fill="white"/>
<path d="M11.5798 11.2353C11.5798 11.9779 10.9779 12.5799 10.2353 12.5799C9.49272 12.5799 8.89075 11.9779 8.89075 11.2353C8.89075 10.4927 9.49272 9.89078 10.2353 9.89078C10.9779 9.89078 11.5798 10.4927 11.5798 11.2353Z" fill="white"/>
<path d="M15.1092 11.2353C15.1092 11.9779 14.5073 12.5799 13.7647 12.5799C13.0221 12.5799 12.4202 11.9779 12.4202 11.2353C12.4202 10.4927 13.0221 9.89078 13.7647 9.89078C14.5073 9.89078 15.1092 10.4927 15.1092 11.2353Z" fill="white"/>
</svg>
