<svg width="87" height="119" viewBox="0 0 87 119" fill="none" xmlns="http://www.w3.org/2000/svg">
<path d="M20.6398 36.511L22.0132 46.4529C27.5066 48.0436 31.6266 45.7901 33 44.4645C31.3978 41.3163 28.3306 35.0198 28.8799 35.0198C32.3133 32.0372 28.8799 22.5925 20.6398 25.575C14.0477 27.9611 17.8931 33.8599 20.6398 36.511Z" fill="#FCC7E9"/>
<path d="M19 30.5C22.6 27.3 27.5 28.1667 29.5 29C28.5 22 21 23.5 17 26.5C13.8 28.9 17.3333 33.1667 19.5 35L19 30.5Z" fill="#4A4A4A"/>
<ellipse cx="51.5" cy="26.5" rx="19.5" ry="12.5" transform="rotate(-44.9667 51.5 26.5)" fill="#FBBC05"/>
<path d="M52.4818 75H16.9818L27.9818 118.5H49.9818L43.9818 96.5L57.9818 118.5H82.4818L52.4818 75Z" fill="#4D4FD7"/>
<path d="M38 118L28 81" stroke="#3A3AB5" stroke-linecap="round"/>
<path d="M71 118L36 80" stroke="#3A3AB5" stroke-linecap="round"/>
<path d="M51.9817 74L48.4817 61C49.3151 61.5 52.1818 63.2 56.9818 66C65.7817 68.8 61.9818 46.1667 58.9818 34.5H46.4818L46.9818 43.5C44.9818 39.1 39.8151 37.6667 37.4818 37.5L30.4817 38.5C29.2817 50.5 23.3151 45.1667 20.4818 41C18.9817 41 14.4817 41.9 8.48173 45.5C0.981734 50 6.98173 57.5 13.4817 70.5C18.6817 80.9 26.9817 81.1667 30.4817 80L51.9817 74Z" fill="#E6F4FF"/>
<path d="M46 62C43.3333 62.5 36.6 63.9 31 65.5C27.6558 66.4555 25.3339 64.4866 23.8639 62L44 57.5L46 62Z" fill="#4C4FD6"/>
<path d="M22 57C22.2685 58.4099 22.8724 60.3227 23.8639 62M23.8639 62C25.3339 64.4866 27.6558 66.4555 31 65.5C36.6 63.9 43.3333 62.5 46 62L44 57.5L23.8639 62Z" stroke="#4C4ED8" stroke-width="0.5"/>
<path d="M10 60.5759C14 58.9092 21.7 59.8759 20.5 77.0759" stroke="#EED78D" stroke-linecap="round"/>
<path d="M48 62.7343C52.8333 60.7343 62.8 57.0343 64 58.2343C65.5 59.7343 66.5 62.2343 60.5 63.2343C62.3333 64.7343 65.4 68.3343 63 70.7343C62.1216 71.3932 61.1025 70.8764 60.2241 70.0282C61.6756 72.5698 61.6325 75.3373 55 74.7343C52.2341 74.7343 52.8152 73.2999 54.0983 72.5801L50.5 73.2343L48 62.7343Z" fill="#FCC7E9"/>
<path d="M14.5 43C14 45.6667 11.8 52 7 56" stroke="#EED78D" stroke-linecap="round"/>
<path d="M33.5 78C36.8333 74.1667 43.9 68.1 45.5 74.5" stroke="#EED78D" stroke-linecap="round"/>
<path d="M32 59.5L39 51" stroke="#EED78D" stroke-linecap="round"/>
<path d="M46 62L40 49" stroke="#4D4FD7" stroke-linecap="round"/>
<path d="M47 38C48.5684 38.1905 51.2348 40.0571 49.3527 46" stroke="#EED78D" stroke-linecap="round"/>
<path d="M59.1518 42C57.1518 44.3333 54.7518 49.5 61.1518 51.5" stroke="#EED78D" stroke-linecap="round"/>
<path d="M51 25L41.5 29L46 38L53.5 33.5L56.5 25.5L51 25Z" fill="#7C7CE8"/>
<path d="M45.5097 25.2669C49.5974 22.3799 55.5398 25.095 58 26.8135L52.3226 33C49.1054 31.1097 43.2387 26.9166 45.5097 25.2669Z" fill="#FCC7E9"/>
<circle cx="55.5" cy="30.5" r="5" fill="#FEDF04" stroke="#4D4FD7"/>
<circle cx="44.5" cy="33.5" r="5" fill="#FEDF04" stroke="#4D4FD7"/>
</svg>
