<svg width="130" height="136" viewBox="0 0 130 136" fill="none" xmlns="http://www.w3.org/2000/svg">
<path d="M54.0799 39.8845C53.1901 38.3791 52.6794 36.623 52.6794 34.7475C52.6794 29.1638 57.206 24.6373 62.7897 24.6373C66.1672 24.6373 69.1579 26.2934 70.9939 28.8379C72.9457 27.6806 75.2241 27.0162 77.6578 27.0162C84.8838 27.0162 90.7417 32.874 90.7417 40.1C90.7417 43.0814 89.7445 45.8299 88.0655 48.0301C91.1774 50.9587 93.1206 55.1154 93.1206 59.7259C93.1206 68.5942 85.9314 75.7834 77.0631 75.7834C68.1947 75.7834 61.0055 68.5942 61.0055 59.7259C61.0055 58.7081 61.1002 57.7125 61.2813 56.7473C55.8451 56.5788 51.49 52.119 51.49 46.642C51.49 44.0442 52.4697 41.6753 54.0799 39.8845Z" fill="#FBBF00"/>
<ellipse cx="78.5872" cy="60.4986" rx="16.6522" ry="16.0575" fill="#FBBC05"/>
<circle cx="62.5297" cy="34.3308" r="10.1103" fill="#FBBC05"/>
<circle cx="78.5872" cy="39.6833" r="13.0839" fill="#FBBC05"/>
<path d="M47.9216 105.52L59.2213 121.577V124.551H33.6483C23.1812 116.462 25.3222 101.356 27.7011 94.8145L41.3797 67.4573C46.7322 68.845 59.2213 71.9772 66.358 73.4045C73.4947 74.8318 77.6577 93.0303 78.8472 101.951L103.826 115.63L91.9311 135.85C85.9838 132.084 72.5431 123.837 66.358 120.982C60.1729 118.128 57.0407 110.277 56.2477 106.709C55.4548 101.356 53.631 91.4841 52.6794 94.8145C51.7278 98.1449 49.1111 103.339 47.9216 105.52Z" fill="#35C5FC"/>
<path d="M69.9264 71.6203L41.9744 65.0784V59.1312L31.8641 56.7523L34.8377 41.2895L54.4636 46.642C53.4724 48.8226 52.9173 53.4218 58.6266 54.3734C64.336 55.3249 66.1598 50.805 66.358 48.4262L84.7944 52.5892L87.768 54.3734L83.0103 70.4309L80.0366 69.8362L69.9264 62.1048V71.6203Z" fill="#FD7BE2"/>
<path d="M8.66993 15.1217C7.2426 19.8795 12.04 36.5317 14.6172 44.2631C17.4718 50.924 28.0975 54.9681 33.0535 56.1576L36.0272 42.4789C34.243 41.686 30.1989 39.9811 28.2958 39.5053C26.3927 39.0296 20.7626 29.3951 18.1855 24.6373L20.5644 23.4478C22.3485 18.4918 24.8464 8.22294 20.5644 6.7956C15.2119 5.01144 10.4541 9.17449 8.66993 15.1217Z" fill="#FFF1FC"/>
<path d="M95.4994 50.8051C93.1205 53.6598 87.768 54.7699 85.3891 54.9681L82.4155 66.2679C98.592 70.5499 107.79 56.1576 110.367 48.4262C114.134 46.642 122.143 42.479 124.046 40.1001C126.425 37.1265 122.262 32.9634 120.478 37.1265C119.05 40.4569 115.522 41.686 113.936 41.8842C116.79 41.4085 116.711 39.7036 116.315 38.9106C115.323 39.1089 112.508 39.6243 109.178 40.1001C105.015 40.6948 98.473 47.2368 95.4994 50.8051Z" fill="#FFF1FC"/>
<path d="M57.4372 47.2367L58.0319 41.8842C59.4593 42.8358 62.5915 42.6772 63.9792 42.4789V48.4262L66.9528 49.6156C65.9616 51.9945 62.6708 56.5144 57.4372 55.5628C52.2037 54.6113 53.2742 49.2191 54.4636 46.642L57.4372 47.2367Z" fill="#FFF1FC"/>
<ellipse cx="61.6003" cy="37.7212" rx="5.3525" ry="5.94722" transform="rotate(2.40814 61.6003 37.7212)" fill="#FFF1FC"/>
<path d="M22.3834 23.9408L15.3011 22.0885C14.7761 21.9512 14.4564 21.4203 14.5807 20.892L18.3099 5.04268C18.4426 4.47878 19.0252 4.14525 19.5787 4.31632L25.425 6.12336C25.8996 6.27006 26.1946 6.74295 26.1176 7.23373L23.6243 23.1283C23.5326 23.713 22.956 24.0906 22.3834 23.9408Z" fill="#858585"/>
<path d="M30.4147 56.9303L34.5778 40.8728L37.5514 41.4675L33.3883 58.1197L30.4147 56.9303Z" fill="white"/>
<path d="M80.9661 70.4038L85.1292 51.5778L88.1028 52.275L83.9397 71.7983L80.9661 70.4038Z" fill="white"/>
<path d="M44.3968 123.539C40.8284 119.574 35.0002 109.266 40.2337 99.7503C46.7757 87.8558 47.3704 84.8822 50.9387 85.4769" stroke="#F1F1F1" stroke-width="0.5" stroke-linecap="round"/>
<path d="M61.049 78.935C61.842 80.1245 63.7847 84.0496 65.2121 90.2347C66.9962 97.9661 68.1857 112.834 77.7012 116.997C85.3137 120.328 89.9922 122.746 91.3798 123.539" stroke="#F1F1F1" stroke-width="0.5" stroke-linecap="round"/>
<path d="M45.5863 74.1772C45.388 75.3667 43.8021 77.6266 39.0443 77.1508" stroke="#F1F1F1" stroke-width="0.5" stroke-linecap="round"/>
<path d="M68.1857 83.6928C66.9962 83.6928 63.9037 82.7412 61.049 78.935" stroke="#F1F1F1" stroke-width="0.5" stroke-linecap="round"/>
<path d="M26.41 70.254L5 76.2013C5 70.0161 8.96482 69.6593 10.9472 70.254C18.0839 60.7385 24.2294 66.2892 26.41 70.254Z" fill="white"/>
<path d="M103.566 87.7574L124.976 93.7046C124.976 87.5195 121.011 87.1627 119.028 87.7574C111.892 78.2418 105.746 83.7926 103.566 87.7574Z" fill="white"/>
<ellipse cx="64" cy="31.5" rx="4" ry="3.5" fill="#FBBC05"/>
<ellipse cx="67" cy="40.5" rx="1" ry="1.5" fill="#FD7BE2"/>
<ellipse cx="56" cy="39.5" rx="1" ry="1.5" fill="#FD7BE2"/>
</svg>
